<svg viewBox="0 0 400 400" xmlns="http://www.w3.org/2000/svg" id="No-Connection-5--Streamline-Brooklyn.svg" height="400" width="400"><desc>No Connection 5 Streamline Illustration: https://streamlinehq.com</desc><path d="M275.828 66.08a4.314 4.314 0 0 1 2.782 -4.08 12.688 12.688 0 0 1 4.526 -0.6 7.188 7.188 0 0 0 0.11 1.854 0.852 0.852 0 0 0 1.636 0c1.308 -8.78 10.524 -10.416 18.05 -9.924a3.344 3.344 0 0 0 0.22 1.472 0.738 0.738 0 0 0 1.416 0 7.508 7.508 0 0 1 1.528 -3.654 4.918 4.918 0 0 1 3.272 -1.364 11.336 11.336 0 0 0 -0.272 3.054 0.612 0.612 0 0 0 1.2 0.164c6.29 -20.622 26.576 -20.046 35.558 -5.508a17.294 17.294 0 0 0 -6 3.818 0.668 0.668 0 0 0 0.818 1.036c6.926 -3.49 13.906 -5.618 21.486 -2.728a23.122 23.122 0 0 1 8.726 6.054 28.2 28.2 0 0 1 4.254 6.98c-27.54 0.218 -55.3 -0.38 -82.784 1.8a0.6 0.6 0 0 0 0 1.2c27.866 -0.054 55.68 -1.036 83.548 -0.982 1.146 0 1.472 -0.436 1.418 -0.982 -1.014 -10.376 -15.6 -21.2 -30.378 -16.632 -2.944 -8.4 -12.432 -13.362 -21.05 -12.108a20.732 20.732 0 0 0 -16.088 13.308 5.778 5.778 0 0 0 -6.544 3.762c-6.326 -1.364 -17.942 0.546 -19.8 7.636a8.974 8.974 0 0 0 -7.09 1.254 4.542 4.542 0 0 0 -1.964 5.236 0.732 0.732 0 0 0 1.422 -0.066Z" fill="#16a34a" stroke-width="1"></path><path d="M18.31 249.866c8.782 0.082 17.56 0.164 26.342 0.11 0.108 1.582 0.218 3.218 0.38 4.8a2.482 2.482 0 0 0 1.692 2.4c2.454 0.764 12.27 1.254 16.742 -0.49 1.878 -0.752 1.304 -4.072 1.472 -6.926 17.434 -0.4 48.746 -0.172 60.916 -1.42a0.682 0.682 0 0 0 0 -1.362c-9.052 -0.6 -18.104 -0.328 -27.158 -0.164 -8.89 0.164 -31.358 0.492 -33.702 0.546q0.244 -16.77 0.38 -33.54c18.052 1.418 12.762 -44.228 12.49 -44.72 -1.2 -4.252 -8.236 -3.926 -8.072 0.982 1.364 34.522 -4.362 32.504 -4.362 32.504s0.108 -26.34 0.108 -39.538c0 -7.636 -0.654 -18.652 -10.2 -20.234a13.914 13.914 0 0 0 -6.98 0.928c-4.854 2.4 -7.362 8.29 -6.762 14.016 -0.382 6 0.926 54.536 1.144 59.444a4.896 4.896 0 0 1 -4.636 -3.546c-0.872 -2.78 0.818 -22.032 -0.6 -30.266a3.52 3.52 0 0 0 -3.272 -3.164c-3.544 -0.272 -4.472 2.072 -4.634 5.944 -0.056 0.982 -1.036 24.214 0.108 30.376 1.364 7.09 7.308 10.2 13.47 9.872 0.382 7.09 0.874 14.18 1.418 21.324 -8.726 0.162 -17.45 0.436 -26.176 0.872a0.63 0.63 0 1 0 -0.108 1.252Z" fill="#16a34a" stroke-width="1"></path><path d="M166.484 281.934c-1.526 -0.168 -1.854 2.29 -0.382 2.672 1.8 0.436 3.654 0.764 5.454 1.2a19.456 19.456 0 0 0 4.962 0.98 0.784 0.784 0 0 0 0.546 -1.308c-2.562 -2.29 -7.198 -3.172 -10.58 -3.544Z" fill="#999999" stroke-width="1"></path><path d="M172.102 297.366c-3.114 -1.57 -7.472 -1.744 -10.908 -2.18 -1.582 -0.218 -1.908 2.508 -0.382 2.78 3.382 0.6 7.636 1.692 11.072 1.038a0.906 0.906 0 0 0 0.218 -1.638Z" fill="#999999" stroke-width="1"></path><path d="M383.046 347.322c-4.2 0.744 -8.234 2.4 -12.326 3.544 -3.98 1.146 -7.906 2.51 -11.834 3.764 -32.874 10.316 -68.628 17.654 -99.036 1.69 -36.782 -19.412 -34.102 -46.328 -61.2 -57.372a12.868 12.868 0 0 0 -3.49 -11.4c-3.654 -3.98 -9.108 -5.672 -14.18 -7.088a1.182 1.182 0 0 0 -1.362 0.544c-6 5.29 -11.29 15.38 -8.236 23.45a1.12 1.12 0 0 0 0.6 0.764c7.09 3.982 19.8 5.018 24.978 -2.562 14.174 8.924 18.54 19.55 26.232 30.92a92.33 92.33 0 0 0 30.648 28.142c35 19.686 79.572 10.58 117.416 -3.436a82.432 82.432 0 0 0 13.8 -6.108 2.67 2.67 0 0 0 -2.01 -4.852ZM173.028 303.856a23.26 23.26 0 0 1 7.854 -20.778 30.042 30.042 0 0 1 10.526 4.418c3.326 2.454 7.088 6.98 3.98 12.488 -4.418 7.964 -16.142 5.564 -22.36 3.872Z" fill="#16a34a" stroke-width="1"></path><path d="M130.708 269.062c-6.6 -0.94 -18.868 2.018 -22.85 10.908 -4.744 -0.818 -14.942 1.2 -20.886 4.09 -13.778 6.58 -22.386 19.054 -30.16 24.486 -13 8.826 -30.284 6.49 -44.446 -0.49a1.614 1.614 0 0 0 -1.636 2.782c11.67 8.834 28.358 12.16 42.266 7.09 16.556 -6.098 24.962 -23.8 42.428 -29.014a34.338 34.338 0 0 1 12.27 -1.526 12.158 12.158 0 0 0 7.744 9.38c3.382 1.418 9.49 3.162 13.416 1.8 6.164 -2.562 9 -11.452 8.618 -17.068 -0.218 -4.258 -1.472 -11.684 -6.764 -12.438Zm-20.4 16.308a12.892 12.892 0 0 1 6 -11.4 23.654 23.654 0 0 1 9.762 -2.78c-3.434 4.422 -5.556 17.94 -0.71 24.65a26.108 26.108 0 0 1 -6.49 -0.818c-4.576 -1.364 -8.3 -4.526 -8.558 -9.652Zm17.67 10.58c-3.168 -4.158 -3.438 -10.54 -2.29 -15.708 0.49 -2.4 1.362 -7.688 4.2 -8.016 3.764 -0.382 5.508 6.216 5.726 8.944 0.222 4.362 -2.234 13.47 -7.632 14.78Z" fill="#16a34a" stroke-width="1"></path><path d="M221.51 140.632c2.674 -0.928 7.31 -2.51 6.982 1.854 -0.11 1.8 2.726 1.8 2.836 0 0.49 -6.872 -6.546 -6.108 -11.072 -4.418 -15.412 5.766 -46.77 33.118 -81.748 39.266 -13.466 2.33 -21.548 -0.24 -30.104 -7.308a56.822 56.822 0 0 1 -15.434 -21.378c-3.654 -8.4 -9.816 -27.65 -5.726 -39.484 3.864 -11.306 20.6 -22.48 31.304 -30.922 11.07 -8.672 22.85 -16.416 34.084 -24.868 0.654 -0.492 0.49 -0.982 0.436 -1.09 -0.61 -12.35 4.134 -19.052 11.18 -21.706a18.738 18.738 0 0 1 18.324 3.436 55.122 55.122 0 0 0 4.09 3.926c0.71 0.49 1.472 -0.328 1.31 -1.036a7.122 7.122 0 0 0 -1.8 -3.544 52.88 52.88 0 0 1 25.358 2.616c17.6 6.124 40.724 30.016 47.502 62.6 3.548 16.86 0.928 23.148 1.526 31.2a1 1 0 0 0 1.964 0.274 41.492 41.492 0 0 0 1.308 -14.452 97.8 97.8 0 0 0 -10.524 -41.83c-7.652 -15.302 -23.234 -33.836 -39.212 -39.702 -8.672 -3.218 -20.07 -5.29 -28.958 -1.69a24.576 24.576 0 0 0 -7.908 -4.418 20.316 20.316 0 0 0 -14.452 0.654c-8.018 3.6 -14.724 14.78 -10.908 23.45 -17.614 11.738 -37.906 25.75 -53.99 39.486 -6.272 5.4 -12 12.054 -14.18 20.288 -2.344 8.726 1.364 21.378 2.454 25.632 4.418 16.742 14.234 34.302 30.978 41.228 9.924 4.146 21.322 2.018 31.302 -0.762 31.2 -8.8 61.452 -33.134 73.078 -37.302Z" fill="#999999" stroke-width="1"></path><path d="M237.98 143.576c0.16 -0.764 -0.818 -1.472 -1.418 -0.818 -1.4 1.474 -2.976 4.418 -7.526 4.418a0.692 0.692 0 0 0 -0.162 1.362c3.436 0.6 8.326 -1.15 9.106 -4.962Z" fill="#999999" stroke-width="1"></path><path d="M124.164 111.182a0.864 0.864 0 0 0 1.582 -0.218c1.036 -4.146 -2.4 -8.726 -5.672 -10.852 -3.436 -2.236 -9.216 -3.164 -12.652 -0.438a0.524 0.524 0 0 0 0.328 0.874c4.144 -0.218 7.634 -0.874 11.234 1.854 3.162 2.29 3.65 5.454 5.18 8.78Z" fill="#999999" stroke-width="1"></path><path d="M170.8 181.752a9.684 9.684 0 0 0 4.854 -7.2 10.532 10.532 0 0 0 15.87 -9.108 10.8 10.8 0 0 0 16.076 -9.324 9.688 9.688 0 0 0 13.852 -9.708c-0.164 -1.146 -2.018 -1.09 -2.236 0a9.166 9.166 0 0 1 -3.872 6.816 7.428 7.428 0 0 1 -8.344 -0.708 1.446 1.446 0 0 0 -2.4 1.364 8.2 8.2 0 0 1 -13.906 7.416 1.444 1.444 0 0 0 -2.4 1.364A7.932 7.932 0 0 1 174.72 170.2c-1.146 -1.2 -2.892 0.326 -2.182 1.69 1.854 3.654 -1.582 7.58 -4.964 8.616 -4.58 1.418 -9.27 -0.762 -13.578 -2.018 -0.654 -0.162 -1.092 0.764 -0.492 1.092 4.964 2.82 12 5.338 17.296 2.172Z" fill="#999999" stroke-width="1"></path><path d="M181 178.424a0.682 0.682 0 0 0 0 1.364c25.186 0.738 51.752 -12.542 68.66 -32.4a27.578 27.578 0 0 0 5.782 -8.78c0.272 -0.818 -0.764 -1.256 -1.364 -0.764 -3.87 3.186 -5.2 7.386 -14.234 15.652A97.732 97.732 0 0 1 181 178.424Z" fill="#999999" stroke-width="1"></path><path d="M113.148 103.928c-3.374 1.272 -2.944 6.382 -2.782 9.272 0.11 2.4 0.71 6.544 4.036 6.052 3.44 -0.442 4.6 -5.016 4.036 -8.452 -0.49 -2.346 -1.574 -8.272 -5.29 -6.872Z" fill="#999999" stroke-width="1"></path><path d="M94.334 121a3.748 3.748 0 0 0 -4.854 1.036 5.292 5.292 0 0 0 -0.164 4.364c1.254 3.38 5.18 5.126 8.072 2.454 1.908 -1.854 0.824 -5.304 -3.054 -7.854Z" fill="#999999" stroke-width="1"></path><path d="M168.556 81.024c5.142 3.51 11.032 5 16.58 2.126 4.8 -2.454 4.634 -9.926 4.254 -12.052a21.446 21.446 0 0 0 -7.418 -12.544C172.24 49.6 160.716 53.34 158.74 60.9a16.696 16.696 0 0 0 -0.328 6.162c2.028 -5.128 9.758 -5.17 12.816 1.746 1.2 2.726 2.236 6.87 0.71 9.706a3.98 3.98 0 0 1 -3.382 2.51Z" fill="#999999" stroke-width="1"></path><path d="M385.882 168.826c-0.696 -1.532 -1.8 -1.418 -2.454 -0.928s-3.108 4.8 -3.544 5.346c-1.364 1.636 1.852 3.762 0.49 5.344 -0.928 1.036 -3.872 0.6 -4.09 2.344 -0.218 1.582 1.308 2.728 1.526 4.2 0.218 1.418 -1.254 1.964 -2.454 2.182 -1.036 0.164 -3 -0.054 -3.6 0.928 -0.546 0.872 -0.11 1.962 0.054 2.89 0.49 2.29 1.69 6.654 -2.018 6.816 -1.8 0.054 -3.818 -1.254 -5.562 -0.546 -2.532 0.986 0.158 7.612 -2.292 9.272 -0.708 0.49 -8.18 -0.546 -9.162 0s-2.562 8.4 -3.38 8.836c-1.474 0.818 -7.854 -3.656 -9.49 -3.874 -1.636 -0.164 -7.526 9.872 -8.726 9.38 -0.926 -0.382 -4.2 -5.67 -5.18 -7.034 -0.6 -0.818 -1.472 -1.8 -2.618 -1.528 -1.092 0.274 -9.818 5.946 -10.362 5.89 -1.964 -0.272 -2.836 -7.852 -3.272 -9.488 -0.546 -1.91 -0.6 -4.472 -3.164 -4.746 -1.854 -0.162 -8.126 2.4 -9.488 2.128 -1.69 -0.328 2.29 -12.98 -1.91 -13.634 -1.308 -0.218 -8.506 -0.764 -8.942 -2.236 -0.328 -1.254 5.452 -10.254 2.726 -11.834 -1.908 -1.146 -8.944 -5.018 -8.834 -6.982 0.162 -3.272 3.6 -10.634 3.544 -11.234 -0.164 -1.636 -11.834 -4.526 -12.544 -5.616s1.91 -9.6 1.2 -12.762c-0.272 -1.254 -12.87 -1.69 -14.56 -1.2 -0.6 -0.218 -1.2 0.708 -0.656 1.146 21.76 18.6 18.924 50.936 37.958 71.278 17.2 18.436 48.948 19.376 71.17 -2.072a66.122 66.122 0 0 0 18.978 -38.23 106.692 106.692 0 0 1 1.744 11.834 85.906 85.906 0 0 1 -8.726 43.902c-10.78 21.702 -33.364 37.782 -53.172 43.8 -4.526 1.362 -9.27 1.8 -13.8 3 -0.818 0.22 -0.926 1.636 0 1.8 14.094 2.256 69.964 -18.32 77.878 -74.168 1.476 -11.136 1.398 -23.936 -3.268 -34.204Z" fill="#999999" stroke-width="1"></path><path d="M256.632 267.972c-7.846 -0.63 -14.888 -1.364 -21.978 -5.126 -21.8 -11.6 -29.446 -37.968 -23.778 -62.498a115.68 115.68 0 0 1 10.8 -26.832 0.516 0.516 0 0 0 -0.872 -0.546 72.728 72.728 0 0 0 -10.744 21.106 15.76 15.76 0 0 1 -5.46 4.744c-9.834 5.2 -19.922 -1.242 -24.976 6.164a8.48 8.48 0 0 0 -0.22 9.488c0.656 0.982 2.564 0.382 2.02 -0.872a6.788 6.788 0 0 1 6.162 -9.816c5.884 -0.368 14.37 1.552 21.16 -5.236 -6.218 24.6 -0.328 52.41 22.96 65.934 7.2 4.2 16.8 7.416 25.2 5.672 1.308 -0.274 0.926 -2.086 -0.274 -2.182Z" fill="#999999" stroke-width="1"></path><path d="M219.056 211.8c1.8 -0.718 3.872 -0.654 5.726 -1.2a18.108 18.108 0 0 0 8.344 -5.726c5.4 -6.38 6.764 -15.488 6.764 -23.614 0 -0.654 -1.092 -0.872 -1.2 -0.164 -1.964 9.544 -2.89 21.978 -13.308 26.4 -3.216 1.364 -7.962 0.6 -10.142 3.818 -2.236 3.326 0.162 7.252 2.944 9.324 0.818 0.6 1.8 -0.544 1.364 -1.362 -1.2 -2.24 -4.262 -5.968 -0.492 -7.476Z" fill="#999999" stroke-width="1"></path><path d="M227.946 222.762a0.8 0.8 0 0 0 -0.218 -1.472c-2.618 -0.504 -4.282 -1.422 -4.472 -4.09 -0.054 -0.6 0.164 -1.2 -0.218 -1.692 -0.548 -0.548 -1.712 -0.084 -1.854 2.074a4.988 4.988 0 0 0 6.762 5.18Z" fill="#999999" stroke-width="1"></path><path d="M234.982 223.47c0.6 -0.262 0.98 -1.254 0.216 -1.58a14.17 14.17 0 0 1 -3.926 -1.746A6.6 6.6 0 0 1 229.2 216c-0.108 -0.818 -1.308 -1.146 -1.526 -0.218a6.294 6.294 0 0 0 1.582 5.78 5.496 5.496 0 0 0 5.726 1.908Z" fill="#999999" stroke-width="1"></path><path d="M255.814 188.568a0.896 0.896 0 0 0 -1.746 0.218 25.838 25.838 0 0 1 -4.2 16.852c-3.6 5.018 -8.836 7.416 -14.562 9.162a0.612 0.612 0 0 0 0.164 1.2c13.254 0.054 23.94 -15.012 20.344 -27.432Z" fill="#999999" stroke-width="1"></path><path d="M189.116 215.4c-0.922 -0.662 -2.018 -1.036 -2.618 -2.018a4.288 4.288 0 0 1 -0.054 -3.654c0.274 -0.818 -0.818 -1.254 -1.364 -0.764a4.736 4.736 0 0 0 -0.98 5.618 4.262 4.262 0 0 0 4.744 2.508 0.97 0.97 0 0 0 0.272 -1.69Z" fill="#999999" stroke-width="1"></path><path d="M192.498 213.982a5.252 5.252 0 0 1 -0.764 -3.546 0.654 0.654 0 0 0 -1.2 -0.49c-2.4 3.91 1.024 8.176 4.2 7.58 0.818 -0.164 0.764 -1.2 0.218 -1.636a11.236 11.236 0 0 1 -2.454 -1.908Z" fill="#999999" stroke-width="1"></path><path d="M203.678 210.164a23.516 23.516 0 0 1 -7.69 -1.036c-0.928 -0.382 -1.746 0.872 -0.818 1.364a10.696 10.696 0 0 0 8.89 1.144c0.818 -0.382 0.326 -1.408 -0.382 -1.472Z" fill="#999999" stroke-width="1"></path><path d="M315.966 255.264c0.436 -0.708 -0.654 -1.636 -1.2 -0.926 -14.102 17.178 -16.66 46.922 -7.2 66.152 0.71 1.364 3.054 0.436 2.51 -1.036 -8.046 -22.534 -7.296 -41.332 5.89 -64.19Z" fill="#999999" stroke-width="1"></path><path d="M307.84 322.508a65.946 65.946 0 0 0 -6.652 2.236c-0.328 -2.564 -1.2 -5.508 -3.926 -6.436a3.4 3.4 0 0 0 -4.036 1.418 5.918 5.918 0 0 0 -2.618 -2.29 3.772 3.772 0 0 0 -4.964 2.182 6.882 6.882 0 0 0 -3.326 -2.672 3.16 3.16 0 0 0 -3.6 1.744 5.266 5.266 0 0 0 0.272 4.526c-4.8 -6.544 -9.436 -12.706 -12.326 -20.4a64.2 64.2 0 0 1 -4.254 -24.158c0.44 -18.892 11.444 -31.2 6.49 -50.884a41.978 41.978 0 0 0 -13.688 -21.868c-0.436 -0.382 -1.09 0.218 -0.654 0.654a47.234 47.234 0 0 1 11.616 21.978c4.344 18.976 -6.4 31.486 -6.654 51 -0.148 21.316 10.252 39.638 19.8 45.81a27.414 27.414 0 0 0 14.29 3.108c4.096 -0.166 12.148 -1.452 15.16 -4.2 1.03 -0.766 0.054 -1.9 -0.93 -1.748Zm-10.47 -1.146a7.8 7.8 0 0 1 1.308 3.982 31.416 31.416 0 0 1 -3.162 0.49 9.096 9.096 0 0 0 -1.146 -3.98c-0.108 -0.164 -0.164 -0.382 -0.272 -0.546 0.382 -1.472 2.566 -0.766 3.272 0.054Zm-17.178 -1.744c1.578 -2.412 4.348 1.442 5.344 4.144 0.218 0.6 0.326 1.146 0.546 1.69a49.2 49.2 0 0 1 -5.51 -1.09c-0.436 -1.308 -1.172 -3.53 -0.372 -4.744Zm7.906 6.108a6.336 6.336 0 0 0 -1.144 -4.146c0.054 -1.362 1.09 -2.78 2.672 -2.072 2 0.872 3.262 6.24 3.326 6.436a24.046 24.046 0 0 1 -4.854 -0.218Z" fill="#999999" stroke-width="1"></path><path d="M246.98 274.4c-7.02 7.87 -8.468 24.466 -4.692 31.684a42.236 42.236 0 0 1 -11.288 0.71 6.248 6.248 0 0 0 -2.126 -5.126 3.728 3.728 0 0 0 -3.71 -0.656 8.278 8.278 0 0 0 -1.58 -2.236 2.31 2.31 0 0 0 -3.436 -0.218 38.2 38.2 0 0 1 -4.254 -17.506 49.854 49.854 0 0 1 5.454 -23.232 0.76 0.76 0 0 0 -1.31 -0.764c-7.046 9.978 -8.728 24 -5.18 36.158a45 45 0 0 0 5.944 11.616c3.918 5.698 17.588 6.46 22.742 2.946a1.176 1.176 0 0 0 0.49 -1.364c-2.39 -14.038 -1.348 -17.968 4.09 -31.2a0.724 0.724 0 0 0 -1.144 -0.812Zm-19.144 29.666a14.068 14.068 0 0 1 0.764 2.292 12.952 12.952 0 0 1 -2.18 -0.818 4.084 4.084 0 0 0 -0.492 -2.836 2.874 2.874 0 0 1 1.908 1.37Zm-4.58 -0.98c0.102 0.328 0.218 0.654 0.328 0.98 -0.436 -0.272 -0.874 -0.49 -1.31 -0.762a28.034 28.034 0 0 0 -1.362 -3.218c0.652 -0.756 2.226 2.628 2.344 3.008Z" fill="#999999" stroke-width="1"></path><path d="M128.472 287.168a2.938 2.938 0 0 0 -0.436 2.128 1.736 1.736 0 0 0 1.854 1.526c1.582 -0.436 1.418 -2.562 1.146 -3.272a1.412 1.412 0 0 0 -2.564 -0.382Z" fill="#999999" stroke-width="1"></path><path d="M130.054 276.37a1.86 1.86 0 0 0 -1.036 1.636c-0.054 2.182 1.908 2.292 2.618 1.636 1.066 -0.958 0.7 -4.032 -1.582 -3.272Z" fill="#999999" stroke-width="1"></path></svg>