<svg width="400" height="400" viewBox="0 0 400 400" fill="none" xmlns="http://www.w3.org/2000/svg">
<path d="M108.536 165.914C108.04 164.764 106.07 165.468 106.482 166.628C112.478 183.518 116.674 200.993 119 218.764C119.2 220.194 121.342 219.71 121.172 218.312C119.6 205.436 113.936 178.382 108.536 165.914Z" fill="#16A34A"/>
<path d="M150.94 318.18C146.982 317.076 144.42 316.336 140.398 315.474C140.106 315.39 139.793 315.426 139.527 315.573C139.262 315.72 139.066 315.966 138.982 316.258C138.898 316.55 138.934 316.863 139.081 317.128C139.228 317.394 139.474 317.59 139.766 317.674C143.234 318.874 148.606 319.558 148.942 320.334C149.076 320.646 140.842 349.164 139.436 351.358C138.248 353.212 136.33 351.668 134.748 350.994C132.98 350.246 131.68 349.95 129.906 349.214C128.238 348.52 127.45 351.248 129.122 351.932C131.122 352.75 132.656 353.088 134.658 353.886C138 355.218 140.42 356.424 141.896 352.068C145.464 341.532 148.55 330.468 151.83 319.796C151.921 319.464 151.879 319.109 151.713 318.807C151.546 318.506 151.269 318.281 150.94 318.18Z" fill="#16A34A"/>
<path d="M232.484 322.906C229.658 326.306 220.612 326.136 216.202 326.632C201.23 328.316 196.35 331.488 183.202 338.112C169.886 344.818 159.84 346.036 150.562 345.594C148.26 345.484 146.332 348.03 150.444 348.282C161.25 349.069 172.072 346.97 181.8 342.2C196.434 335.228 200.098 331.074 216.984 329.2C221.926 328.652 231.058 328.378 234.278 324.2C235.172 323.048 234.058 321.016 232.484 322.906Z" fill="#999999"/>
<path d="M275 162.384C268.117 162.524 261.542 165.264 256.596 170.053C251.65 174.842 248.7 181.325 248.338 188.2C257.398 188.4 284.578 187.884 301.918 186.4C301.766 177.03 292.272 162.384 275 162.384Z" fill="#16A34A"/>
<path d="M272.886 133.352C271.311 133.392 269.762 133.765 268.341 134.447C266.921 135.129 265.661 136.105 264.646 137.309C263.63 138.514 262.882 139.921 262.45 141.436C262.018 142.951 261.912 144.541 262.14 146.1C262.666 153.37 270.462 156.636 275.204 156.636C279.946 156.636 285.95 152.836 285.742 144.52C285.534 136.204 279.916 132.712 272.886 133.352Z" fill="#16A34A"/>
<path d="M321.586 97.4441C321.33 97.3697 321.056 97.3814 320.808 97.4776C320.559 97.5737 320.349 97.7489 320.21 97.9762C320.07 98.2035 320.009 98.4703 320.037 98.7356C320.064 99.0008 320.177 99.2498 320.36 99.4441C322.286 102.032 323.666 103.254 324.062 106.778C324.348 109.336 326.462 109.884 327.016 106.736C327.134 104.823 326.68 102.919 325.714 101.265C324.747 99.61 323.31 98.2803 321.586 97.4441Z" fill="#999999"/>
<path d="M310.4 95.314C310.128 95.3567 309.881 95.495 309.702 95.704C309.524 95.913 309.425 96.179 309.425 96.454C309.425 96.729 309.524 96.9949 309.702 97.2039C309.881 97.4129 310.128 97.5512 310.4 97.594C314.258 98.104 316.354 105.514 316.884 108.836C317.578 113.178 319.884 112.236 320.054 108.62C320.26 103.954 315.656 94.618 310.4 95.314Z" fill="#999999"/>
<path d="M297.866 94.814C296.904 95.056 296.65 96.85 297.878 97.014C305.12 97.998 306.346 103.268 307.358 109.436C308.192 114.516 310.796 113.912 310.83 108.808C310.876 101.886 305.848 92.81 297.866 94.814Z" fill="#999999"/>
<path d="M286.078 97.85C285.204 98.572 286.192 100.094 287.212 99.738C294.832 97.082 297.728 104.928 298.104 109.27C298.246 110.908 300.352 112.032 300.754 110.112C302.586 101.342 292.946 92.174 286.078 97.85Z" fill="#999999"/>
<path d="M387.934 209.586C387.612 184.292 388.956 157.868 387.934 132.91C387.238 115.874 386.8 105.882 367.72 103.524C356.32 102.124 341.676 103.232 330.622 103.302C330.317 103.299 330.024 103.417 329.806 103.631C329.589 103.844 329.465 104.135 329.462 104.44C329.459 104.745 329.577 105.038 329.79 105.256C330.004 105.473 330.295 105.597 330.6 105.6C342.166 106.176 355.526 105.818 366.078 106.454C382.906 107.466 385.3 116.274 385.328 134.654C385.366 159.854 384.674 185.004 384.904 210.23C385.14 236.258 387.204 265.182 386.448 290.876C385.704 316.26 373.798 315.242 356.066 315.676C302.626 317.012 245.968 316.034 192.666 316.43C191.444 316.43 191.446 318.584 192.666 318.596C243.738 319.118 302.108 320.498 353.52 319.062C377.32 318.396 387.862 319.352 389.596 291.662C391.04 268.8 388.108 223.474 387.934 209.586Z" fill="#999999"/>
<path d="M289.4 103.168C259.55 102.832 227.764 101.926 198.01 102.968C183.514 103.476 166.372 108.806 166.372 126.136C166.342 172.636 166.094 219.136 166.172 265.634C166.188 276.434 165.338 290.144 166.548 300.462C166.651 302.571 167.209 304.633 168.183 306.507C169.158 308.38 170.526 310.021 172.194 311.316C173.212 312.116 175.214 310.786 173.86 309.438C172.439 308.029 171.311 306.353 170.542 304.505C169.772 302.658 169.376 300.677 169.376 298.676C168.59 287.184 169.346 273.748 169.352 262.006C169.374 216.752 169.226 171.492 169.226 126.244C169.226 109.276 187.338 106.118 200.73 105.954C230.186 105.592 259.698 106.328 289.166 106.176C291.074 106.166 291.35 103.2 289.4 103.168Z" fill="#999999"/>
<path d="M300.776 263.302C300.189 263.374 299.631 263.599 299.159 263.956C298.688 264.312 298.318 264.787 298.089 265.332C297.86 265.878 297.78 266.474 297.855 267.06C297.931 267.647 298.16 268.203 298.52 268.672C300.208 271.06 304.404 271.072 304.814 267.456C304.875 266.906 304.814 266.348 304.635 265.824C304.455 265.3 304.162 264.822 303.776 264.425C303.39 264.028 302.921 263.721 302.402 263.527C301.883 263.333 301.328 263.256 300.776 263.302Z" fill="#999999"/>
<path d="M286.682 263.552C286.13 263.455 285.563 263.48 285.021 263.624C284.479 263.769 283.975 264.029 283.545 264.388C283.114 264.747 282.766 265.195 282.526 265.702C282.286 266.209 282.159 266.761 282.154 267.322C282.32 269.88 286.768 271.194 288.566 268.746C288.91 268.312 289.137 267.797 289.226 267.251C289.314 266.704 289.262 266.144 289.073 265.623C288.884 265.103 288.565 264.639 288.147 264.277C287.728 263.914 287.224 263.665 286.682 263.552Z" fill="#999999"/>
<path d="M274.252 265.464C273.861 264.883 273.298 264.439 272.642 264.194C271.986 263.949 271.27 263.915 270.594 264.097C269.918 264.279 269.315 264.668 268.871 265.209C268.427 265.751 268.163 266.417 268.116 267.116C268.121 267.732 268.283 268.337 268.586 268.873C268.89 269.409 269.324 269.86 269.85 270.182C270.375 270.504 270.973 270.687 271.589 270.714C272.205 270.741 272.817 270.611 273.368 270.336C273.753 270.079 274.081 269.748 274.335 269.362C274.588 268.976 274.762 268.542 274.844 268.088C274.927 267.633 274.917 267.166 274.815 266.716C274.713 266.265 274.522 265.839 274.252 265.464Z" fill="#999999"/>
<path d="M257.68 264.93C253 263.206 250.49 267.704 253.374 269.99C254.154 270.516 255.068 270.809 256.009 270.837C256.949 270.864 257.878 270.624 258.688 270.144C261.076 268.8 260.09 265.818 257.68 264.93Z" fill="#999999"/>
<path d="M239.714 264.584C239.12 264.661 238.56 264.909 238.103 265.296C237.646 265.684 237.311 266.196 237.139 266.77C236.966 267.344 236.964 267.956 237.131 268.532C237.298 269.107 237.629 269.622 238.082 270.014C240.082 271.648 243.948 271.534 244.13 268.252C244.147 267.699 244.038 267.149 243.81 266.644C243.583 266.14 243.243 265.694 242.818 265.34C242.392 264.986 241.891 264.734 241.353 264.603C240.815 264.472 240.255 264.466 239.714 264.584Z" fill="#999999"/>
<path d="M226.282 265.072C225.644 264.979 224.993 265.066 224.402 265.323C223.811 265.58 223.304 265.997 222.938 266.528C222.572 267.058 222.361 267.68 222.33 268.324C222.298 268.968 222.448 269.607 222.761 270.171C223.074 270.734 223.538 271.199 224.102 271.512C224.665 271.825 225.304 271.975 225.948 271.944C226.592 271.913 227.214 271.702 227.745 271.336C228.275 270.97 228.693 270.463 228.95 269.872C229.174 269.386 229.281 268.854 229.261 268.319C229.241 267.785 229.095 267.262 228.835 266.794C228.575 266.327 228.208 265.927 227.765 265.628C227.321 265.328 226.813 265.138 226.282 265.072Z" fill="#999999"/>
<path d="M344.136 254.68C343.834 253.182 341.854 253.692 341.69 254.984C341.09 259.668 342.11 272.452 341.518 280.184C324.858 280.226 308.318 281.204 291.604 281.56C265.22 282.124 239.144 282.058 212.804 282.862C213.124 275.262 212.672 265.884 212.94 257.082C246.586 258.128 295.184 255.422 337.712 255.67C338.077 255.656 338.423 255.501 338.676 255.238C338.929 254.975 339.071 254.624 339.071 254.259C339.071 253.894 338.929 253.543 338.676 253.279C338.423 253.016 338.077 252.862 337.712 252.848C297.234 253.494 247.81 253.448 211.882 254.882C211.445 254.906 211.031 255.084 210.714 255.384C210.396 255.684 210.195 256.087 210.146 256.522C210.266 267.176 209.796 275.664 210.262 282.11C210.418 284.25 209.83 285.212 212.406 285.268C229.222 285.628 245.606 285.214 262.428 284.974C288.428 284.604 315.148 284.756 341.05 283.27C344.554 283.07 344.198 282.778 344.364 279.622C344.682 273.836 344.2 254.948 344.136 254.68Z" fill="#999999"/>
<path d="M343.668 206.3C343.218 202.82 342.706 202.7 339.484 202.624C300.284 201.624 252.59 202.398 213.306 203.274C210.338 203.34 209.926 203.348 209.794 206.578C209.476 214.306 209.636 223.926 209.918 231.56C209.974 233.104 212.204 232.944 212.274 231.456C212.586 225.036 212.36 212.694 212.654 205.81C255.202 205.764 298.454 205.678 340.978 205.33C340.578 213.112 341.93 221.832 340.998 229.856C300.354 230.116 258.998 231.142 217.952 231.586C216.488 231.602 216.31 233.878 217.822 233.898C258.822 234.424 299.91 233.738 342.338 232.772C342.684 232.764 343.017 232.637 343.281 232.413C343.545 232.189 343.725 231.882 343.79 231.542C344.664 228 344.242 210.73 343.668 206.3Z" fill="#999999"/>
<path d="M190.8 303.44C178.146 306.558 169.726 322.59 156.708 322.878C152.846 322.964 152.024 325.024 156.708 325.37C170.294 326.37 178.996 309.29 191.358 306.142C196.9 304.73 188.346 308.412 183.318 319.808C182.636 321.354 185.096 322.264 185.776 320.73C187.591 316.591 190.198 312.846 193.45 309.708C197.176 306.064 196.504 302.032 190.8 303.44Z" fill="#999999"/>
<path d="M85.7518 99.706C83.6658 101.414 81.9198 99.004 80.8898 97.28C79.1558 94.376 76.8898 87.77 77.9998 84.356C79.3458 80.19 84.3798 82.794 86.6678 84.516C87.6918 85.288 88.7838 84.01 89.2138 83.19C92.4998 76.914 94.7198 67.616 93.2858 60.59C93.0498 59.434 91.0858 59.348 91.1038 60.656C91.2318 68.726 90.9158 74.42 87.0758 81.772C83.0958 78.24 76.1018 78.222 75.0438 84.064C73.7418 91.264 79.1798 105.748 86.0718 102.924C87.6178 116.182 89.8718 129.386 90.4098 143.554C90.464 143.818 90.6101 144.054 90.8221 144.22C91.034 144.386 91.2981 144.471 91.5671 144.46C91.8362 144.45 92.0927 144.344 92.291 144.162C92.4893 143.98 92.6164 143.733 92.6498 143.466C93.5218 130.922 89.9278 113.318 88.0278 100.8C87.8298 99.508 86.6278 98.988 85.7518 99.706Z" fill="#999999"/>
<path d="M121.242 148.936C120.776 143.336 117.054 146.278 114.592 148.054C111.586 150.215 108.365 152.059 104.98 153.558C99.8775 150.245 94.3171 147.699 88.4758 146C88.2835 145.926 88.0769 145.896 87.8715 145.914C87.6661 145.931 87.4674 145.995 87.2902 146.1C87.1131 146.206 86.9621 146.35 86.8488 146.522C86.7354 146.694 86.6626 146.89 86.6358 147.094C86.4478 150.38 87.3058 164.978 90.4478 167.294C93.0138 169.186 103.416 161.202 105.448 159.598C109.75 160.51 117.402 167.678 119.754 166.998C121.824 166.382 121.444 151.4 121.242 148.936Z" fill="#999999"/>
<path d="M128.812 54.11C128.174 52.792 126.344 53.852 126.85 55.152C133.828 73.092 139.096 94.904 135.414 114.006C132.968 126.696 124.346 130.392 112.614 127.018C109.77 126.202 106.978 125.088 104.292 124.084C103.006 123.604 102.492 125.544 103.678 126.084C105.981 127.144 108.34 128.079 110.744 128.884C111.308 133.226 110.918 142.23 111.06 144.562C111.138 145.856 113.06 145.794 113.288 144.548C113.591 139.556 113.517 134.547 113.068 129.566C122.868 132.12 132.408 129.748 136.36 119.45C142.558 103.272 136.618 70.2 128.812 54.11Z" fill="#999999"/>
<path d="M110.466 37.6681C109.194 37.7181 109.266 39.7201 110.478 39.8681C116.36 40.6081 125.31 42.2801 124.478 50.3081C124.45 50.5788 124.529 50.8497 124.698 51.063C124.867 51.2763 125.112 51.4153 125.382 51.4502C125.652 51.4851 125.925 51.4133 126.143 51.2501C126.36 51.0868 126.506 50.845 126.548 50.5761C128.4 41.8241 117.764 37.3841 110.466 37.6681Z" fill="#16A34A"/>
<path d="M117.26 51.744C113.014 43.168 102.586 39.344 93.5059 39.974C86.3199 40.472 70.9319 44.754 69.8839 53.362C69.7099 54.784 72.1539 55.132 72.3899 53.702C73.5799 46.466 88.3179 42.702 94.4859 42.472C98.5715 42.2084 102.655 43.0206 106.329 44.8275C110.003 46.6344 113.139 49.3729 115.424 52.77C115.564 53.0055 115.791 53.1771 116.055 53.2481C116.32 53.3192 116.602 53.2841 116.841 53.1504C117.08 53.0167 117.258 52.7949 117.336 52.5323C117.414 52.2696 117.387 51.9867 117.26 51.744Z" fill="#16A34A"/>
<path d="M101.438 55.5619C94.282 50.9719 83.49 50.1799 76.15 54.8179C68.128 59.8839 68.976 70.9739 74.55 77.5719C74.7502 77.8204 75.041 77.9792 75.3583 78.0133C75.6756 78.0475 75.9935 77.9542 76.242 77.7539C76.4905 77.5537 76.6493 77.2629 76.6834 76.9456C76.7175 76.6283 76.6242 76.3104 76.424 76.0619C72.024 69.5859 70.182 60.6759 78.424 56.3619C85.358 52.7339 93.702 54.1379 100.41 57.4819C101.522 58.0339 102.472 56.2259 101.438 55.5619Z" fill="#16A34A"/>
<path d="M130.758 81.6861C130.002 81.3056 129.162 81.1243 128.317 81.1593C127.472 81.1943 126.65 81.4445 125.928 81.8861C124.64 82.8661 125.44 83.9581 126.498 83.6981C127.743 83.4494 129.015 83.3674 130.282 83.4541C131.314 83.3621 131.896 82.5001 130.758 81.6861Z" fill="#999999"/>
<path d="M113.886 82.6539C112.857 82.4555 111.798 82.4803 110.78 82.7267C109.762 82.973 108.808 83.4352 107.984 84.0819C107.076 84.9019 107.61 86.1039 108.614 85.7919C110.255 85.1767 112 84.8827 113.752 84.9259C116.186 85.0899 116.102 83.2139 113.886 82.6539Z" fill="#999999"/>
<path d="M131.146 73.91C130.566 73.1916 129.823 72.6228 128.978 72.2514C128.133 71.88 127.212 71.7168 126.29 71.7756C125.369 71.8344 124.476 72.1134 123.685 72.5893C122.894 73.0651 122.229 73.7238 121.746 74.51C121.616 74.7458 121.575 75.0202 121.629 75.2837C121.684 75.5472 121.831 75.7826 122.043 75.9475C122.256 76.1125 122.521 76.1961 122.789 76.1833C123.058 76.1706 123.314 76.0623 123.51 75.878C123.862 75.3715 124.319 74.9468 124.85 74.6329C125.381 74.3189 125.973 74.1231 126.587 74.0588C127.2 73.9944 127.82 74.0631 128.405 74.26C128.989 74.4569 129.524 74.7776 129.974 75.2C130.954 75.892 131.82 75 131.146 73.91Z" fill="#999999"/>
<path d="M114.664 74.8C113.678 74.1541 112.571 73.7143 111.411 73.5071C110.25 73.2998 109.06 73.3293 107.911 73.5939C106.763 73.8584 105.679 74.3525 104.726 75.0464C103.773 75.7404 102.97 76.6198 102.366 77.632C102.204 77.8706 102.143 78.164 102.197 78.4476C102.251 78.7312 102.415 78.9816 102.654 79.1439C102.893 79.3063 103.186 79.3671 103.47 79.3131C103.753 79.2591 104.004 79.0946 104.166 78.856C105.115 77.4033 106.599 76.3845 108.296 76.0215C109.993 75.6585 111.764 75.9807 113.224 76.9179C114.6 77.8259 116.06 75.68 114.664 74.8Z" fill="#999999"/>
<path d="M128.316 106.924C127.193 106.68 126.024 106.754 124.94 107.136C124.702 107.201 124.492 107.345 124.347 107.545C124.202 107.744 124.13 107.988 124.142 108.235C124.154 108.482 124.251 108.717 124.415 108.901C124.58 109.085 124.802 109.208 125.046 109.248C126.839 109.532 128.603 109.971 130.32 110.558C136.102 112 130.282 107.372 128.316 106.924Z" fill="#999999"/>
<path d="M121.2 107.4C119.256 107.065 117.257 107.333 115.47 108.17C113.727 109.196 112.11 110.423 110.652 111.826C108.356 113.566 109.936 114.1 111.9 113.226C113.564 112.492 114.9 111.826 116.552 111.208C118.263 110.732 119.934 110.126 121.552 109.396C122.368 108.884 122.068 107.8 121.2 107.4Z" fill="#999999"/>
<path d="M122.41 80.6599C121.86 79.4799 119.906 80.0199 120.424 81.2779C123.175 87.7696 124.625 94.7378 124.694 101.788C124.728 104.988 119.532 101.674 117.198 100.972C116.966 100.927 116.725 100.958 116.512 101.062C116.299 101.165 116.125 101.335 116.017 101.546C115.909 101.757 115.873 101.997 115.914 102.231C115.954 102.464 116.069 102.678 116.242 102.84C117.556 103.741 119.004 104.43 120.532 104.882C124.09 106.156 127.072 106.796 127.094 101.682C127.021 94.424 125.425 87.2622 122.41 80.6599Z" fill="#999999"/>
<path d="M81.7338 286.224C103.888 296.824 136.284 308.296 160.696 309.614C160.896 279.5 162.258 174.366 162.258 163.86C151.006 159.682 139.401 156.524 127.584 154.424C130.364 181.824 125.66 207.536 125.572 234.508C125.508 254.4 126.096 274.27 126.048 294.122C126.048 295.428 124.086 295.722 123.982 294.36C122.566 275.872 122.382 257.29 122.536 238.76C113.46 216.8 88.6118 168.466 74.9158 153.738C57.6898 158.796 33.3158 170.116 24.6598 182.028C12.0198 199.4 5.68984 281.9 13.2758 301.498C20.8618 321.096 100.93 356.338 124.276 362.344C124.276 342.594 134.288 319.63 139.252 311.518C118.226 304.6 97.0738 298.102 77.4918 288C68.7098 283.47 61.6618 277.612 61.9298 267.554C62.3298 252.624 63.0818 232.436 66.0638 217.924C66.1115 217.645 66.2664 217.396 66.4955 217.23C66.7246 217.064 67.0096 216.994 67.2895 217.036C67.5693 217.077 67.8217 217.227 67.9927 217.452C68.1636 217.678 68.2394 217.961 68.2038 218.242C65.9498 233.766 66.0998 249.55 64.8878 265.198C63.9378 277.48 71.4718 281.316 81.7338 286.224ZM127.702 245.122C132.286 235.14 136.702 225.436 140.42 215.098C143.378 206.898 145.192 204.972 138.334 198.382C135.674 195.828 133.114 192.718 138.01 190.924C140.342 190.068 146.442 188.962 145.954 186.124C145.23 181.938 137.452 168.442 135.176 164.148C134.546 162.96 136.176 161.748 136.946 162.93C141.097 169.45 144.683 176.314 147.664 183.446C148.664 185.74 149.238 188.342 146.986 190.098C145.105 191.277 143.044 192.142 140.886 192.66C137.322 193.586 138.006 194.384 141.03 197.404C148.06 204.418 145.528 208.5 142.49 216.85C138.947 226.884 134.701 236.655 129.782 246.09C129.641 246.344 129.408 246.536 129.132 246.626C128.855 246.716 128.555 246.697 128.291 246.575C128.027 246.452 127.82 246.234 127.711 245.964C127.601 245.695 127.598 245.394 127.702 245.122ZM67.8218 185.262C66.5118 181.206 69.1378 169.56 70.4218 165.6C70.8218 164.364 72.7818 165.046 72.4878 166.284C71.4638 170.618 69.4618 179.056 69.9078 183.448C70.2558 186.866 73.3818 187.07 82.9078 190.15C90.3078 192.55 88.4278 195.918 87.9598 202.35C87.2258 212.478 86.4938 212.502 94.3598 219.15C101.902 225.522 109.67 232.964 117.484 238.8C118.74 239.738 117.186 241.562 115.964 240.67C107.622 234.574 97.0299 225.218 89.4118 218.246C83.8119 213.124 85.0858 208.308 85.5758 201.518C85.8998 197.032 87.5618 194.368 82.4818 192.69C79.3398 191.652 76.1598 190.736 73.0358 189.646C71.8819 189.38 70.8075 188.844 69.9011 188.082C68.9947 187.32 68.2821 186.353 67.8218 185.262Z" fill="#16A34A"/>
</svg>
