<svg viewBox="0 0 400 400" xmlns="http://www.w3.org/2000/svg" id="Logged-In-1--Streamline-Brooklyn.svg" height="400" width="400"><desc>Logged In 1 Streamline Illustration: https://streamlinehq.com</desc><path d="M108.536 165.914c-0.496 -1.15 -2.466 -0.446 -2.054 0.714a254.65 254.65 0 0 1 12.518 52.136c0.2 1.43 2.342 0.946 2.172 -0.452 -1.572 -12.876 -7.236 -39.93 -12.636 -52.398Z" fill="#16a34a" stroke-width="1"></path><path d="M150.94 318.18c-3.958 -1.104 -6.52 -1.844 -10.542 -2.706a1.144 1.144 0 0 0 -0.632 2.2c3.468 1.2 8.84 1.884 9.176 2.66 0.134 0.312 -8.1 28.83 -9.506 31.024 -1.188 1.854 -3.106 0.31 -4.688 -0.364 -1.768 -0.748 -3.068 -1.044 -4.842 -1.78 -1.668 -0.694 -2.456 2.034 -0.784 2.718 2 0.818 3.534 1.156 5.536 1.954 3.342 1.332 5.762 2.538 7.238 -1.818 3.568 -10.536 6.654 -21.6 9.934 -32.272a1.324 1.324 0 0 0 -0.89 -1.616Z" fill="#16a34a" stroke-width="1"></path><path d="M232.484 322.906c-2.826 3.4 -11.872 3.23 -16.282 3.726 -14.972 1.684 -19.852 4.856 -33 11.48 -13.316 6.706 -23.362 7.924 -32.64 7.482 -2.302 -0.11 -4.23 2.436 -0.118 2.688A61.136 61.136 0 0 0 181.8 342.2c14.634 -6.972 18.298 -11.126 35.184 -13 4.942 -0.548 14.074 -0.822 17.294 -5 0.894 -1.152 -0.22 -3.184 -1.794 -1.294Z" fill="#999999" stroke-width="1"></path><path d="M275 162.384A27.254 27.254 0 0 0 248.338 188.2c9.06 0.2 36.24 -0.316 53.58 -1.8 -0.152 -9.37 -9.646 -24.016 -26.918 -24.016Z" fill="#999999" stroke-width="1"></path><path d="M272.886 133.352a11.142 11.142 0 0 0 -10.746 12.748c0.526 7.27 8.322 10.536 13.064 10.536s10.746 -3.8 10.538 -12.116 -5.826 -11.808 -12.856 -11.168Z" fill="#999999" stroke-width="1"></path><path d="M321.586 97.444a1.216 1.216 0 0 0 -1.226 2c1.926 2.588 3.306 3.81 3.702 7.334 0.286 2.558 2.4 3.106 2.954 -0.042a9.666 9.666 0 0 0 -5.43 -9.292Z" fill="#999999" stroke-width="1"></path><path d="M310.4 95.314a1.154 1.154 0 0 0 0 2.28c3.858 0.51 5.954 7.92 6.484 11.242 0.694 4.342 3 3.4 3.17 -0.216 0.206 -4.666 -4.398 -14.002 -9.654 -13.306Z" fill="#999999" stroke-width="1"></path><path d="M297.866 94.814c-0.962 0.242 -1.216 2.036 0.012 2.2 7.242 0.984 8.468 6.254 9.48 12.422 0.834 5.08 3.438 4.476 3.472 -0.628 0.046 -6.922 -4.982 -15.998 -12.964 -13.994Z" fill="#999999" stroke-width="1"></path><path d="M286.078 97.85c-0.874 0.722 0.114 2.244 1.134 1.888 7.62 -2.656 10.516 5.19 10.892 9.532 0.142 1.638 2.248 2.762 2.65 0.842 1.832 -8.77 -7.808 -17.938 -14.676 -12.262Z" fill="#999999" stroke-width="1"></path><path d="M387.934 209.586c-0.322 -25.294 1.022 -51.718 0 -76.676 -0.696 -17.036 -1.134 -27.028 -20.214 -29.386 -11.4 -1.4 -26.044 -0.292 -37.098 -0.222a1.146 1.146 0 0 0 -0.022 2.298c11.566 0.576 24.926 0.218 35.478 0.854 16.828 1.012 19.222 9.82 19.25 28.2 0.038 25.2 -0.654 50.35 -0.424 75.576 0.236 26.028 2.3 54.952 1.544 80.646 -0.744 25.384 -12.65 24.366 -30.382 24.8 -53.44 1.336 -110.098 0.358 -163.4 0.754 -1.222 0 -1.22 2.154 0 2.166 51.072 0.522 109.442 1.902 160.854 0.466 23.8 -0.666 34.342 0.29 36.076 -27.4 1.444 -22.862 -1.488 -68.188 -1.662 -82.076Z" fill="#999999" stroke-width="1"></path><path d="M289.4 103.168c-29.85 -0.336 -61.636 -1.242 -91.39 -0.2 -14.496 0.508 -31.638 5.838 -31.638 23.168 -0.03 46.5 -0.278 93 -0.2 139.498 0.016 10.8 -0.834 24.51 0.376 34.828a14.644 14.644 0 0 0 5.646 10.854c1.018 0.8 3.02 -0.53 1.666 -1.878a15.154 15.154 0 0 1 -4.484 -10.762c-0.786 -11.492 -0.03 -24.928 -0.024 -36.67 0.022 -45.254 -0.126 -90.514 -0.126 -135.762 0 -16.968 18.112 -20.126 31.504 -20.29 29.456 -0.362 58.968 0.374 88.436 0.222 1.908 -0.01 2.184 -2.976 0.234 -3.008Z" fill="#999999" stroke-width="1"></path><path d="M300.776 263.302a3.354 3.354 0 0 0 -2.256 5.37c1.688 2.388 5.884 2.4 6.294 -1.216a3.75 3.75 0 0 0 -4.038 -4.154Z" fill="#999999" stroke-width="1"></path><path d="M286.682 263.552a3.862 3.862 0 0 0 -4.528 3.77c0.166 2.558 4.614 3.872 6.412 1.424a3.246 3.246 0 0 0 -1.884 -5.194Z" fill="#999999" stroke-width="1"></path><path d="M274.252 265.464a3.358 3.358 0 0 0 -6.136 1.652 3.632 3.632 0 0 0 5.252 3.22 3.442 3.442 0 0 0 0.884 -4.872Z" fill="#999999" stroke-width="1"></path><path d="M257.68 264.93c-4.68 -1.724 -7.19 2.774 -4.306 5.06a4.974 4.974 0 0 0 5.314 0.154c2.388 -1.344 1.402 -4.326 -1.008 -5.214Z" fill="#999999" stroke-width="1"></path><path d="M239.714 264.584a3.106 3.106 0 0 0 -1.632 5.43c2 1.634 5.866 1.52 6.048 -1.762a3.64 3.64 0 0 0 -4.416 -3.668Z" fill="#999999" stroke-width="1"></path><path d="M226.282 265.072a3.456 3.456 0 1 0 2.668 4.8 3.4 3.4 0 0 0 -2.668 -4.8Z" fill="#999999" stroke-width="1"></path><path d="M344.136 254.68c-0.302 -1.498 -2.282 -0.988 -2.446 0.304 -0.6 4.684 0.42 17.468 -0.172 25.2 -16.66 0.042 -33.2 1.02 -49.914 1.376 -26.384 0.564 -52.46 0.498 -78.8 1.302 0.32 -7.6 -0.132 -16.978 0.136 -25.78 33.646 1.046 82.244 -1.66 124.772 -1.412a1.412 1.412 0 0 0 0 -2.822c-40.478 0.646 -89.902 0.6 -125.83 2.034a1.848 1.848 0 0 0 -1.736 1.64c0.12 10.654 -0.35 19.142 0.116 25.588 0.156 2.14 -0.432 3.102 2.144 3.158 16.816 0.36 33.2 -0.054 50.022 -0.294 26 -0.37 52.72 -0.218 78.622 -1.704 3.504 -0.2 3.148 -0.492 3.314 -3.648 0.318 -5.786 -0.164 -24.674 -0.228 -24.942Z" fill="#999999" stroke-width="1"></path><path d="M343.668 206.3c-0.45 -3.48 -0.962 -3.6 -4.184 -3.676 -39.2 -1 -86.894 -0.226 -126.178 0.65 -2.968 0.066 -3.38 0.074 -3.512 3.304 -0.318 7.728 -0.158 17.348 0.124 24.982 0.056 1.544 2.286 1.384 2.356 -0.104 0.312 -6.42 0.086 -18.762 0.38 -25.646 42.548 -0.046 85.8 -0.132 128.324 -0.48 -0.4 7.782 0.952 16.502 0.02 24.526 -40.644 0.26 -82 1.286 -123.046 1.73 -1.464 0.016 -1.642 2.292 -0.13 2.312 41 0.526 82.088 -0.16 124.516 -1.126a1.516 1.516 0 0 0 1.452 -1.23c0.874 -3.542 0.452 -20.812 -0.122 -25.242Z" fill="#999999" stroke-width="1"></path><path d="M190.8 303.44c-12.654 3.118 -21.074 19.15 -34.092 19.438 -3.862 0.086 -4.684 2.146 0 2.492 13.586 1 22.288 -16.08 34.65 -19.228 5.542 -1.412 -3.012 2.27 -8.04 13.666 -0.682 1.546 1.778 2.456 2.458 0.922a34.638 34.638 0 0 1 7.674 -11.022c3.726 -3.644 3.054 -7.676 -2.65 -6.268Z" fill="#999999" stroke-width="1"></path><path d="M85.752 99.706c-2.086 1.708 -3.832 -0.702 -4.862 -2.426 -1.734 -2.904 -4 -9.51 -2.89 -12.924 1.346 -4.166 6.38 -1.562 8.668 0.16 1.024 0.772 2.116 -0.506 2.546 -1.326 3.286 -6.276 5.506 -15.574 4.072 -22.6 -0.236 -1.156 -2.2 -1.242 -2.182 0.066 0.128 8.07 -0.188 13.764 -4.028 21.116 -3.98 -3.532 -10.974 -3.55 -12.032 2.292 -1.302 7.2 4.136 21.684 11.028 18.86 1.546 13.258 3.8 26.462 4.338 40.63a1.136 1.136 0 0 0 2.24 -0.088c0.872 -12.544 -2.722 -30.148 -4.622 -42.666 -0.198 -1.292 -1.4 -1.812 -2.276 -1.094Z" fill="#999999" stroke-width="1"></path><path d="M121.242 148.936c-0.466 -5.6 -4.188 -2.658 -6.65 -0.882a53.718 53.718 0 0 1 -9.612 5.504A62.222 62.222 0 0 0 88.476 146a1.362 1.362 0 0 0 -1.84 1.094c-0.188 3.286 0.67 17.884 3.812 20.2 2.566 1.892 12.968 -6.092 15 -7.696 4.302 0.912 11.954 8.08 14.306 7.4 2.07 -0.616 1.69 -15.598 1.488 -18.062Z" fill="#999999" stroke-width="1"></path><path d="M128.812 54.11c-0.638 -1.318 -2.468 -0.258 -1.962 1.042 6.978 17.94 12.246 39.752 8.564 58.854 -2.446 12.69 -11.068 16.386 -22.8 13.012 -2.844 -0.816 -5.636 -1.93 -8.322 -2.934 -1.286 -0.48 -1.8 1.46 -0.614 2a70.2 70.2 0 0 0 7.066 2.8c0.564 4.342 0.174 13.346 0.316 15.678 0.078 1.294 2 1.232 2.228 -0.014a99.76 99.76 0 0 0 -0.22 -14.982c9.8 2.554 19.34 0.182 23.292 -10.116 6.198 -16.178 0.258 -49.25 -7.548 -65.34Z" fill="#999999" stroke-width="1"></path><path d="M110.466 37.668c-1.272 0.05 -1.2 2.052 0.012 2.2 5.882 0.74 14.832 2.412 14 10.44a1.044 1.044 0 0 0 2.07 0.268c1.852 -8.752 -8.784 -13.192 -16.082 -12.908Z" fill="#999999" stroke-width="1"></path><path d="M117.26 51.744c-4.246 -8.576 -14.674 -12.4 -23.754 -11.77 -7.186 0.498 -22.574 4.78 -23.622 13.388 -0.174 1.422 2.27 1.77 2.506 0.34 1.19 -7.236 15.928 -11 22.096 -11.23a23.418 23.418 0 0 1 20.938 10.298 1.052 1.052 0 0 0 1.836 -1.026Z" fill="#999999" stroke-width="1"></path><path d="M101.438 55.562c-7.156 -4.59 -17.948 -5.382 -25.288 -0.744 -8.022 5.066 -7.174 16.156 -1.6 22.754a1.2 1.2 0 0 0 1.874 -1.51c-4.4 -6.476 -6.242 -15.386 2 -19.7 6.934 -3.628 15.278 -2.224 21.986 1.12 1.112 0.552 2.062 -1.256 1.028 -1.92Z" fill="#999999" stroke-width="1"></path><path d="M130.758 81.686a4.97 4.97 0 0 0 -4.83 0.2c-1.288 0.98 -0.488 2.072 0.57 1.812a14.324 14.324 0 0 1 3.784 -0.244c1.032 -0.092 1.614 -0.954 0.476 -1.768Z" fill="#999999" stroke-width="1"></path><path d="M113.886 82.654a7.316 7.316 0 0 0 -5.902 1.428c-0.908 0.82 -0.374 2.022 0.63 1.71a13.68 13.68 0 0 1 5.138 -0.866c2.434 0.164 2.35 -1.712 0.134 -2.272Z" fill="#999999" stroke-width="1"></path><path d="M131.146 73.91a5.766 5.766 0 0 0 -9.4 0.6 1.13 1.13 0 0 0 1.764 1.368 4.292 4.292 0 0 1 6.464 -0.678c0.98 0.692 1.846 -0.2 1.172 -1.29Z" fill="#999999" stroke-width="1"></path><path d="M114.664 74.8a8.744 8.744 0 0 0 -12.298 2.832 1.086 1.086 0 0 0 1.8 1.224 6.576 6.576 0 0 1 9.058 -1.938c1.376 0.908 2.836 -1.238 1.44 -2.118Z" fill="#999999" stroke-width="1"></path><path d="M128.316 106.924a6.2 6.2 0 0 0 -3.376 0.212 1.082 1.082 0 0 0 0.106 2.112 31.586 31.586 0 0 1 5.274 1.31c5.782 1.442 -0.038 -3.186 -2.004 -3.634Z" fill="#999999" stroke-width="1"></path><path d="M121.2 107.4a9.644 9.644 0 0 0 -5.73 0.77 25.914 25.914 0 0 0 -4.818 3.656c-2.296 1.74 -0.716 2.274 1.248 1.4 1.664 -0.734 3 -1.4 4.652 -2.018a34.92 34.92 0 0 0 5 -1.812c0.816 -0.512 0.516 -1.596 -0.352 -1.996Z" fill="#999999" stroke-width="1"></path><path d="M122.41 80.66c-0.55 -1.18 -2.504 -0.64 -1.986 0.618a53.916 53.916 0 0 1 4.27 20.51c0.034 3.2 -5.162 -0.114 -7.496 -0.816a1.092 1.092 0 0 0 -0.956 1.868 15.2 15.2 0 0 0 4.29 2.042c3.558 1.274 6.54 1.914 6.562 -3.2a51.854 51.854 0 0 0 -4.684 -21.022Z" fill="#999999" stroke-width="1"></path><path d="M81.734 286.224c22.154 10.6 54.55 22.072 78.962 23.39 0.2 -30.114 1.562 -135.248 1.562 -145.754a200.302 200.302 0 0 0 -34.674 -9.436c2.78 27.4 -1.924 53.112 -2.012 80.084 -0.064 19.892 0.524 39.762 0.476 59.614 0 1.306 -1.962 1.6 -2.066 0.238 -1.416 -18.488 -1.6 -37.07 -1.446 -55.6 -9.076 -21.96 -33.924 -70.294 -47.62 -85.022 -17.226 5.058 -41.6 16.378 -50.256 28.29 -12.64 17.372 -18.97 99.872 -11.384 119.47s87.654 54.84 111 60.846c0 -19.75 10.012 -42.714 14.976 -50.826 -21.026 -6.918 -42.178 -13.416 -61.76 -23.518 -8.782 -4.53 -15.83 -10.388 -15.562 -20.446 0.4 -14.93 1.152 -35.118 4.134 -49.63a1.082 1.082 0 0 1 2.14 0.318c-2.254 15.524 -2.104 31.308 -3.316 46.956 -0.95 12.282 6.584 16.118 16.846 21.026Zm45.968 -41.102c4.584 -9.982 9 -19.686 12.718 -30.024 2.958 -8.2 4.772 -10.126 -2.086 -16.716 -2.66 -2.554 -5.22 -5.664 -0.324 -7.458 2.332 -0.856 8.432 -1.962 7.944 -4.8 -0.724 -4.186 -8.502 -17.682 -10.778 -21.976 -0.63 -1.188 1 -2.4 1.77 -1.218a135.49 135.49 0 0 1 10.718 20.516c1 2.294 1.574 4.896 -0.678 6.652a20.51 20.51 0 0 1 -6.1 2.562c-3.564 0.926 -2.88 1.724 0.144 4.744 7.03 7.014 4.498 11.096 1.46 19.446a226.044 226.044 0 0 1 -12.708 29.24 1.15 1.15 0 0 1 -2.08 -0.968Zm-59.88 -59.86c-1.31 -4.056 1.316 -15.702 2.6 -19.662 0.4 -1.236 2.36 -0.554 2.066 0.684 -1.024 4.334 -3.026 12.772 -2.58 17.164 0.348 3.418 3.474 3.622 13 6.702 7.4 2.4 5.52 5.768 5.052 12.2 -0.734 10.128 -1.466 10.152 6.4 16.8 7.542 6.372 15.31 13.814 23.124 19.65 1.256 0.938 -0.298 2.762 -1.52 1.87 -8.342 -6.096 -18.934 -15.452 -26.552 -22.424 -5.6 -5.122 -4.326 -9.938 -3.836 -16.728 0.324 -4.486 1.986 -7.15 -3.094 -8.828 -3.142 -1.038 -6.322 -1.954 -9.446 -3.044a7.484 7.484 0 0 1 -5.214 -4.384Z" fill="#16a34a" stroke-width="1"></path></svg>