<svg viewBox="0 0 400 400" xmlns="http://www.w3.org/2000/svg" id="Page-Not-Found-5--Streamline-Brooklyn.svg" height="400" width="400"><desc>Page Not Found 5 Streamline Illustration: https://streamlinehq.com</desc><path d="M87.712 76.034c-1.71 -1.108 -1.616 1.612 -1.308 2.516 0.6 1.8 2.504 7.28 4.128 8.254a1.37 1.37 0 0 0 1.71 -0.2c0.61 -0.916 -3.894 -10.252 -4.53 -10.57Z" fill="#16a34a" stroke-width="1"></path><path d="M98.382 105.828c-1.4 -2.918 -2.454 -5.966 -3.824 -8.858 -0.386 -0.812 -1.504 -0.2 -1.31 0.6 0.628 2.612 1.364 5.148 2.114 7.752 0.38 1.314 1.338 7.8 3.826 6.34 1.948 -1.138 -0.55 -5.062 -0.806 -5.834Z" fill="#16a34a" stroke-width="1"></path><path d="M101.6 119.62c-0.416 -0.902 -1.612 -0.2 -1.51 0.6 0.256 1.414 2.8 12.4 3.322 13.288a1.432 1.432 0 0 0 2.616 -0.704c0.004 -2.364 -3.076 -10.256 -4.428 -13.184Z" fill="#16a34a" stroke-width="1"></path><path d="M113.784 154.648c-0.384 -1.938 -5.048 -12.582 -5.134 -12.784a0.776 0.776 0 0 0 -1.41 0.6c0.378 1.382 3.526 11.75 4.328 13.086 0.604 1.514 2.496 0.512 2.216 -0.902Z" fill="#16a34a" stroke-width="1"></path><path d="M130.896 169.244c-0.914 0.282 -11.274 3.824 -11.174 4.328a80.462 80.462 0 0 0 -4.428 -10.268c-0.4 -0.8 -1.816 -0.2 -1.51 0.6 5.468 14.446 -0.652 13.498 17.716 7.952a1.298 1.298 0 0 0 0.904 -1.61 1.164 1.164 0 0 0 -1.508 -1.002Z" fill="#16a34a" stroke-width="1"></path><path d="M151.128 163.104c-2.114 -0.112 -4.434 1.7 -6.342 2.416 -2.118 0.8 -4.244 1.566 -6.342 2.416 -0.71 0.286 -0.702 1.518 0.2 1.4 4.176 -0.51 10.284 -1.976 12.884 -3.926 0.908 -0.494 1.312 -2.21 -0.4 -2.306Z" fill="#16a34a" stroke-width="1"></path><path d="M172.366 155.352c-1.282 -0.342 0.06 -0.668 -14.696 5.84 -0.906 0.4 -0.2 1.726 0.6 1.508a122.326 122.326 0 0 0 14.092 -4.932c0.838 -0.414 1.238 -2.086 0.004 -2.416Z" fill="#16a34a" stroke-width="1"></path><path d="M193.102 149.212c-4.328 1.712 -8.948 2.85 -13.286 4.328 -0.6 0.2 -0.504 1.2 0.2 1.108 6.836 -0.472 15.416 -3.236 16.2 -4.026a1.104 1.104 0 0 0 -0.302 -1.812c-1.036 -0.522 -1.714 0.036 -2.812 0.402Z" fill="#16a34a" stroke-width="1"></path><path d="M198.84 135.12a1.216 1.216 0 0 0 -2.214 0.906c0.582 2.038 4.81 11.166 5.838 11.978 0.4 0.312 1.308 0.8 1.308 -0.1a66.908 66.908 0 0 0 -4.932 -12.784Z" fill="#16a34a" stroke-width="1"></path><path d="M191.8 119.216c0.988 2.636 1.334 5.462 2.416 6.544a0.48 0.48 0 0 0 0.8 -0.2c0.554 -1.544 -0.586 -4.864 -2.114 -10.67 -0.302 -0.906 -0.6 -2.724 -2.012 -2.316 -1.962 0.568 0.184 4.128 0.91 6.642Z" fill="#16a34a" stroke-width="1"></path><path d="M185.552 93.75a1.23 1.23 0 0 0 -1.51 -0.8c-4.63 1.19 11.144 28.012 1.51 0.8Z" fill="#16a34a" stroke-width="1"></path><path d="M181.526 85.4a133.616 133.616 0 0 0 -4.228 -14 1.246 1.246 0 0 0 -1.51 -0.504 1.228 1.228 0 0 0 -0.704 1.4 85.2 85.2 0 0 0 5.034 13.588 0.76 0.76 0 0 0 1.408 -0.484Z" fill="#16a34a" stroke-width="1"></path><path d="M168.742 49.662a1.022 1.022 0 0 0 -1.71 1c0.044 0.2 5.53 12.78 5.938 12.984 2.35 1.182 -1.932 -11.412 -4.228 -13.984Z" fill="#16a34a" stroke-width="1"></path><path d="M92.242 73.92c2.344 -0.05 14.338 -4.126 15.6 -5.636 0.6 -0.712 0.108 -2.094 -1 -1.712 -3.016 1.032 -12.888 4.866 -15 6.644 -0.304 0.2 -0.002 0.712 0.4 0.704Z" fill="#16a34a" stroke-width="1"></path><path d="M114.8 66.37c2.548 0.232 14.118 -3.72 14.696 -4.63a0.958 0.958 0 0 0 -0.302 -1.308c-1.4 -0.696 -2.268 0.126 -3.926 0.4 -5.83 1.842 -9.34 2.898 -10.87 4.43a0.64 0.64 0 0 0 0.402 1.108Z" fill="#16a34a" stroke-width="1"></path><path d="M135.224 59.728a89 89 0 0 0 16.104 -5.638 1.158 1.158 0 0 0 -0.906 -2.114c-3.6 1.156 -14.074 5.956 -15.702 6.644 -0.704 0.202 -0.202 1.308 0.504 1.108Z" fill="#16a34a" stroke-width="1"></path><path d="M159.28 51.07a58.022 58.022 0 0 0 8.96 -2.516 1.2 1.2 0 0 0 0.8 -1.51 1.164 1.164 0 0 0 -1.51 -0.8c-5.8 2.322 -7.834 2.458 -8.756 3.726a0.858 0.858 0 0 0 0.506 1.1Z" fill="#16a34a" stroke-width="1"></path><path d="M144.484 98.582c1.698 3.026 -0.87 6.466 -2.516 8.858 -2.17 3.152 -4 7.034 -2.718 10.87 1.136 3.414 5.938 9.262 9.664 5.536a4.09 4.09 0 0 0 0 -5.736c-1.1 -1.016 -2.332 -2.12 -1.812 -3.726 0.978 -3.028 3.532 -5.43 4.73 -8.354a13.2 13.2 0 0 0 0.504 -9.864c-2.456 -6.366 -9.962 -9.238 -16.4 -8.254a15.132 15.132 0 0 0 -11.274 8.756 11.4 11.4 0 0 0 6.342 14.2 1.566 1.566 0 0 0 1.71 -2.214c-0.988 -2.324 -2.376 -5.026 -1.912 -7.65 1.02 -5.804 10.772 -7.604 13.682 -2.422Z" fill="#16a34a" stroke-width="1"></path><path d="M161.2 134.818a6.4 6.4 0 0 0 -0.4 -6.944c-4 -5.358 -11.946 -0.816 -10.066 5.334a5.908 5.908 0 0 0 10.466 1.61Z" fill="#16a34a" stroke-width="1"></path><path d="M217.16 281.982c29.86 -7.756 41.754 -8.65 47.2 -10.47a1.498 1.498 0 0 0 -0.4 -2.918c-3.73 0.046 -28.1 4.742 -46.908 12.482 -0.702 0.292 -0.496 1.106 0.108 0.906Z" fill="#16a34a" stroke-width="1"></path><path d="M235.782 267.788c28.358 -9.334 37.752 -9.664 49.422 -12.582a1.132 1.132 0 0 0 -0.302 -2.214c-14.6 1.216 -37.04 8.05 -49.422 13.388 -0.91 0.392 -0.606 1.708 0.302 1.408Z" fill="#16a34a" stroke-width="1"></path><path d="M252.49 252.892c0.2 -0.034 48.72 -11.646 48.92 -11.778a1.176 1.176 0 0 0 -0.302 -2.114 15.266 15.266 0 0 0 -6.14 0.6c-10.962 1.958 -34.766 7.8 -43.082 12.08 -0.502 0.406 0.002 1.32 0.604 1.212Z" fill="#16a34a" stroke-width="1"></path><path d="M87.612 248.462c32.518 8.898 48.722 28.124 52.846 30.298a0.954 0.954 0 0 0 1.308 -1.308c-3.386 -6.4 -27.124 -24.812 -53.752 -30.6 -1.106 -0.404 -1.51 1.308 -0.402 1.61Z" fill="#16a34a" stroke-width="1"></path><path d="M110.462 238c26.51 8.282 40.366 24.506 43.282 25.668a1.076 1.076 0 0 0 1.31 -1.31c-1.21 -3.036 -17.73 -18.724 -44.19 -25.968a0.832 0.832 0 0 0 -0.402 1.61Z" fill="#16a34a" stroke-width="1"></path><path d="M137.036 229.034c16.464 6.13 30.724 21.6 33.922 22.348a1.14 1.14 0 0 0 1.4 -1.4c-0.52 -1.302 -15.894 -16.578 -34.726 -22.748a0.954 0.954 0 1 0 -0.596 1.8Z" fill="#16a34a" stroke-width="1"></path><path d="M154.148 220.68c17.578 8.016 24.088 20 31 26.776 0.712 0.696 2.098 0 1.712 -1 -2.508 -6.57 -13.92 -19.6 -32.11 -27.278 -0.804 -0.51 -1.504 1.09 -0.602 1.502Z" fill="#16a34a" stroke-width="1"></path><path d="M179.514 280.874a116.042 116.042 0 0 0 0.1 -19.226c-0.104 -0.704 -2.516 5.234 -2.516 6.544 0.1 1.4 1.2 9.864 1.308 12.682a0.554 0.554 0 0 0 1.108 0Z" fill="#16a34a" stroke-width="1"></path><path d="M198.438 268.494a56.472 56.472 0 0 0 0.1 -13.288 1.272 1.272 0 1 0 -2.516 0.302 84.634 84.634 0 0 1 0.906 12.884 0.756 0.756 0 0 0 1.51 0.102Z" fill="#16a34a" stroke-width="1"></path><path d="M212.932 244.336c0 11.864 -0.814 12.896 0.4 14a1.08 1.08 0 0 0 1.51 0c1.54 -1.298 -0.468 -14 -0.502 -14.2 -0.2 -0.706 -1.508 -0.506 -1.408 0.2Z" fill="#16a34a" stroke-width="1"></path><path d="M228.534 250.174a98.458 98.458 0 0 0 -1.712 -12.784c-0.108 -0.704 -2.734 -2.112 -2.616 -1.4a137.264 137.264 0 0 0 2.718 14.4 0.824 0.824 0 0 0 1.61 -0.216Z" fill="#16a34a" stroke-width="1"></path><path d="M301 108.044a7.546 7.546 0 0 0 3.724 -0.4 44.6 44.6 0 0 1 12.986 -1.106c2.82 0.282 3.766 2.8 4.53 5.132 1.4 4.258 0.954 5.866 1.812 8.254 0.214 0.6 1.2 0.902 1.508 0.2 1.268 -2.838 0.272 -6.834 -0.704 -9.662 -2.12 -6.144 -4.714 -7.04 -10.368 -6.746a41 41 0 0 0 -9.964 1.612 7.038 7.038 0 0 0 -3.926 2.012 0.574 0.574 0 0 0 0.402 0.704Z" fill="#999999" stroke-width="1"></path><path d="M317.314 114.082c0.4 0.8 0.302 1.712 0.706 2.518 0.2 0.502 0.906 0.4 1.2 0.2 1.4 -1.2 0.486 -3.4 -0.4 -4.63 -2.61 -3.586 -7.226 -3.628 -11.676 -3.522 -2.116 0.05 -4.328 -0.2 -6.442 0a0.63 0.63 0 0 0 -0.4 1.106c3.742 3.056 13.748 -1.384 17.012 4.328Z" fill="#999999" stroke-width="1"></path><path d="M322.75 126.766a12.572 12.572 0 0 0 -17.112 2.818 0.65 0.65 0 0 0 1 0.8c10.044 -8.558 17.356 1.36 18.52 1.812 1.924 0.748 1.854 -2.596 -2.408 -5.43Z" fill="#999999" stroke-width="1"></path><path d="M321.946 119.92a17.782 17.782 0 0 0 -17.716 3.424c-0.6 0.51 0.2 1.6 0.906 1.106a17.902 17.902 0 0 1 10.468 -3.02c5.988 0.084 8.528 2.712 10.368 3.122a0.904 0.904 0 0 0 1 -1.31 9.148 9.148 0 0 0 -5.026 -3.322Z" fill="#999999" stroke-width="1"></path><path d="M262.556 141.864c4.884 -0.364 6.304 -4.128 5.034 -5.536 -1.91 -2.116 -7.332 0.014 -8.858 1.712 -1.77 1.96 0.81 4.05 3.824 3.824Z" fill="#999999" stroke-width="1"></path><path d="M366.336 191.8c2.214 -2.216 4.126 -4.128 4.126 -5.536 0 -2.86 -15.518 -24.354 -35.13 -31.708 -2.746 -6.674 -2.06 -14.15 -1.51 -21.44 0.102 -0.6 -1 -0.704 -1.106 -0.102 -3.8 21.844 0.438 24.956 11.172 37.344 30.048 34.68 39.748 43.822 42.478 57.478a27.816 27.816 0 0 1 -5.938 23.754c-0.6 0.706 0.2 1.822 1 1.31 6.6 -4.244 8.748 -12.582 8.556 -20.132 -0.46 -18.502 -18.34 -33.616 -23.648 -40.968Z" fill="#999999" stroke-width="1"></path><path d="M254.302 127.672a65.026 65.026 0 0 0 -3.522 -12.582c-0.2 -0.506 -1 -0.504 -1 0.1a90.8 90.8 0 0 0 1.712 12.18 5.414 5.414 0 0 0 0.906 2.818c1.912 1.912 5.73 -1.822 7.248 -3.02 0.9 -0.71 -0.102 -2.012 -1 -1.812a18.018 18.018 0 0 0 -4.344 2.316Z" fill="#999999" stroke-width="1"></path><path d="M266.986 109.654c-1.61 -3.12 -5.906 -6.2 -9.26 -3.524a4 4 0 0 0 -1.41 2.82c-0.082 0.706 1.108 0.906 1.2 0.2 0.4 -1.812 2.108 -2 3.624 -1.51a8.506 8.506 0 0 1 3.824 3.122c0.982 1.238 2.77 0.14 2.022 -1.108Z" fill="#999999" stroke-width="1"></path><path d="M248.566 114.082c0.704 -0.6 -0.4 -2.108 -1 -2.516a6.732 6.732 0 0 0 -4.932 -1.6 3.86 3.86 0 0 0 -1.308 6.04 0.922 0.922 0 0 0 1.51 -0.4c0.214 -0.8 -0.904 -4.13 1.106 -3.22 1.108 0.5 2.518 1.912 3.826 1.912a1.298 1.298 0 0 0 0.798 -0.216Z" fill="#999999" stroke-width="1"></path><path d="M263.564 114.184c-2.302 -2.73 -4.254 0.816 -3.222 3.12 0.6 1.316 2.516 2.416 3.624 1a3.242 3.242 0 0 0 -0.402 -4.12Z" fill="#999999" stroke-width="1"></path><path d="M246.954 119.82c-2.358 -2.68 -4.252 0.816 -3.22 3.12 0.588 1.316 2.516 2.416 3.624 1a3.266 3.266 0 0 0 -0.404 -4.12Z" fill="#999999" stroke-width="1"></path><path d="M274.234 108.546a0.706 0.706 0 0 0 1.308 -0.2c0.688 -4.03 -1.2 -8.558 -3.02 -12.08 -1.6 -3.122 -4.026 -7.356 -7.952 -7.65 -7.83 -0.588 -10.39 12.356 -19.428 13.6a0.524 0.524 0 0 0 0 1 10.35 10.35 0 0 0 8.96 -3.524c2.72 -2.614 4.64 -6.522 8.152 -8.254 4.038 -1.99 6.544 3.02 8.054 6.04 1.314 3.122 2.834 8.822 3.926 11.068Z" fill="#999999" stroke-width="1"></path><path d="M265.274 94.756a16.2 16.2 0 0 0 -3.824 2.92 12.306 12.306 0 0 1 -5.738 2.516 0.554 0.554 0 0 0 0 1.108c3.812 0.082 6.316 -0.444 10.268 -4.228 0.4 -0.4 0.904 -0.906 0.8 -1.51a1.106 1.106 0 0 0 -1.506 -0.806Z" fill="#999999" stroke-width="1"></path><path d="M230.446 105.426c2.138 -7.328 7.416 -7.298 10.77 -8.758 2.964 -1.48 -0.21 -4.222 -6.14 -1.106 -3.6 1.896 -6.6 5.656 -5.838 9.864a0.63 0.63 0 0 0 1.208 0Z" fill="#999999" stroke-width="1"></path><path d="M246.854 98.582c6.02 -3.872 8.282 -12.096 13.286 -14.8a10.94 10.94 0 0 1 11.476 1.108c3.236 2.428 8.616 11.096 10.066 22.044 0.12 0.904 0 2.512 0.704 3.322 0.6 0.702 1.316 0.2 1.6 -0.504a14.056 14.056 0 0 0 -0.302 -8.656c-1.24 -5.038 -4.696 -13.532 -9.058 -17.514 -6.476 -5.912 -15.832 -5.744 -21.34 3.22 -2.222 3.618 -3.624 8.254 -6.844 11.174a0.362 0.362 0 0 0 0.412 0.606Z" fill="#999999" stroke-width="1"></path><path d="M234.07 92.442a50.35 50.35 0 0 0 5.838 -2.014 31.34 31.34 0 0 1 6.846 -0.6c1.4 -0.114 2.318 -2.024 0.704 -2.618 -2.51 -0.922 -11.274 -0.2 -14 4.33a0.582 0.582 0 0 0 0.612 0.902Z" fill="#999999" stroke-width="1"></path><path d="M273.73 77.04a27.036 27.036 0 0 1 11.978 14.496 56.622 56.622 0 0 1 2.818 10.568c1.436 8.028 0.856 9.568 2.316 10.972a1.108 1.108 0 0 0 1.71 -0.2c1.554 -2.22 -1.264 -16.154 -4.428 -22.95a27.096 27.096 0 0 0 -13.69 -14c-0.804 -0.396 -1.506 0.706 -0.704 1.114Z" fill="#999999" stroke-width="1"></path><path d="M359.29 253c-1.128 0.4 -26.902 21.658 -33.42 26.574 -0.302 0.2 0 0.81 0.302 0.6C332 276.116 358.4 257.1 360.2 254.098c0.498 -0.498 -0.1 -1.394 -0.91 -1.098Z" fill="#999999" stroke-width="1"></path><path d="M351.338 248.562c0.908 -0.8 -0.386 -1.892 -1.2 -1.2 -19.218 16.032 -30.724 25.252 -47.108 37.95 -0.6 0.4 0 1.42 0.6 1 10.944 -7.634 37.426 -28.648 47.708 -37.75Z" fill="#999999" stroke-width="1"></path><path d="M70.2 282.284a264.774 264.774 0 0 1 32.512 17.614 0.436 0.436 0 0 0 0.504 -0.704c-10.378 -10.378 -40.344 -24.746 -54.658 -26.372 -0.502 -0.102 -0.8 0.8 -0.302 1 6.01 2.578 11.562 3.888 21.944 8.462Z" fill="#999999" stroke-width="1"></path><path d="M137.236 322.446a0.544 0.544 0 0 0 0.4 -1c-11.512 -7.046 -51.96 -24.446 -91.696 -34.23 -0.4 -0.1 -0.6 0.502 -0.2 0.704 56.518 17.516 78.276 30.02 91.496 34.526Z" fill="#999999" stroke-width="1"></path><path d="M75.13 304.63c-0.6 -0.11 -0.906 0.8 -0.302 1 21.372 5.078 25.79 8.17 35.13 10.57 0.504 0.1 0.906 -0.6 0.4 -0.906 -8.004 -4.224 -26.464 -9.072 -35.228 -10.664Z" fill="#999999" stroke-width="1"></path><path d="M172.468 328.988c30.228 -3.32 66.898 -6.16 70.46 -7.348 0.906 -0.302 0.6 -1.4 -0.2 -1.61 -9.308 -1.268 -61.152 6.536 -70.36 7.952 -0.504 0.202 -0.404 1.006 0.1 1.006Z" fill="#999999" stroke-width="1"></path><path d="M261.752 302.416a0.876 0.876 0 0 0 -0.2 -1.712c-10.088 -1.02 -46.2 4.974 -84.956 19.83 -0.4 0.2 -0.306 0.894 0.2 0.704 38.804 -14.428 78.204 -16.798 84.956 -18.822Z" fill="#999999" stroke-width="1"></path><path d="M384.856 268.6a85.558 85.558 0 0 0 -12.984 -0.906c0 -14.72 -5.092 -26.014 -13.8 -33.922 -8.91 -8.1 -13 -7.886 -22.95 -4.832 -2.71 0.832 -5.436 1.712 -8.054 2.718 3.424 -3.322 6.946 -6.644 10.368 -9.966 2.378 0 2.026 -2.73 0.4 -2.716a180.03 180.03 0 0 0 -37.748 5.636 177.184 177.184 0 0 0 -55.16 23.654 0.474 0.474 0 0 0 0.502 0.8 206.85 206.85 0 0 1 88.178 -27.078c-28.57 27.878 -46.648 43.09 -65.73 59.39 -25.762 0 -67.77 9.652 -100.056 32.714 -1.446 1.158 -0.876 2.2 0.706 1.4 34.818 -20.216 47.422 -25.448 98.846 -31.506a1.506 1.506 0 0 0 1.308 -1.51c29.034 -21.888 53.512 -46.438 56.37 -48.818 5.962 -1.024 11.54 -3.768 19.83 -4.028 -19.372 13.088 -48.052 35.068 -67.14 54.156 -0.4 0.2 -0.6 0.9 -0.1 1.106a48.294 48.294 0 0 1 25.97 23.656c-11.778 1.308 -23.354 3.924 -35.13 5.636a0.4 0.4 0 0 0 0.1 0.8c12.088 -0.252 23.958 -2.92 36.036 -4.026a70.542 70.542 0 0 1 2.92 10.97c-7.212 0.924 -131.294 10.642 -138.104 14.294 -2.026 1.086 -3.224 6.554 -5.94 5.738 -2.318 -0.696 -3.814 -3.936 -5.334 -5.536 -2.6 -2.736 -8.156 -3.312 -11.778 -4.328 -29.112 -8.174 -113.542 -31.4 -118.072 -32.312 5.584 -13.4 9.314 -23.816 21.038 -36.136 1.476 -1.554 19.644 6.468 20.03 6.642 39.188 17.71 74.084 47.358 81.548 52.66 1 0.71 2.218 -0.91 1.308 -1.712 -20.346 -17.944 -72.054 -52.684 -101.388 -59.6 0.2 -0.064 16 -5.142 16.828 -6.224 0.2 0.096 69.148 35.214 94.626 60.692 1.108 1.108 2.618 -0.302 2.114 -1.51 9.864 -7.85 71.784 -57.86 77.508 -62.4 1.2 -0.952 -1.302 -17.892 -2.818 -24.46a1.178 1.178 0 0 0 -2.014 -0.502 30.2 30.2 0 0 0 -6.946 11.374 17.224 17.224 0 0 1 -5.536 -5.034 1.314 1.314 0 0 0 -2.214 0c-5.098 10.926 -4.378 11.252 -6.844 9.462a5.632 5.632 0 0 0 -8.356 2.718 12.266 12.266 0 0 0 -0.2 7.55c-5.222 0.696 -10.552 -5.734 -15.302 4.53 -4.6 9.914 -5.152 -1.768 -10.87 -2.114 -1.986 0 -1.162 3.566 -8.456 17.112a20 20 0 0 0 -8.254 -3.826c-2.064 -0.378 -1.51 2.478 -1.51 6.242 0 13.71 -0.872 30.278 -0.6 36.74 -20.2 -21.41 -93.6 -61.286 -106.2 -62.308 32.584 -15.09 91.076 -39.356 94.922 -42.176 22.042 6.368 42.942 14.724 54.254 34.928a0.886 0.886 0 0 0 1.61 -0.704c-2.462 -8.354 -12.918 -16.926 -20.062 -21.624 0.442 -2.362 0.848 -6.942 0.938 -7.568 6.278 1.44 25.702 6.302 28.99 11.778a271.078 271.078 0 0 1 1.106 -28.588c-0.288 0.096 -3.6 -4.308 -9.26 -10.77 -0.302 -0.4 0.1 -1.2 0.6 -0.8a61.064 61.064 0 0 1 8.858 8.656c0.2 -2.416 0.532 -4.928 0.8 -7.348 0.114 -1 1.706 -1 1.612 0 -0.93 9.872 -1.352 37.962 -0.706 47 -0.1 -2.216 2.92 -3.226 4.632 -2.92a10.2 10.2 0 0 1 5.334 4.328c-0.8 -1 4.026 -7.246 4.932 -7.952 8.134 -7.386 8.018 7.52 10.066 20.636a174.186 174.186 0 0 1 54.254 -24.964c11.036 -3.122 27.156 -6.05 37.246 -5.536 -1.108 -0.1 -13.9 -35.832 -16.912 -43.484 -3.4 -8.648 -6.296 -15.12 -1.2 -22.85 2 -3.032 4.368 -5.93 5.134 -9.562a8.084 8.084 0 0 0 -4.93 -9.56 7.28 7.28 0 0 0 -9.462 5.134c-0.096 0.4 0.506 0.706 0.704 0.302a6.05 6.05 0 0 1 9.362 -2.314c5.292 4.64 -2.172 12.768 -3.726 15.702 -4.908 -1.754 -18.824 2.074 -19.024 2.114 -0.76 0.152 0.416 -0.176 -2.616 3.724 -0.2 0 -3.054 0.6 -3.222 0.6 -0.366 -3.486 -5.184 -22.812 -5.536 -23.252 8.174 -3.27 9.952 -12.312 5.738 -16.4 -3.574 -3.474 -11.37 -2.308 -13.59 -1a1.282 1.282 0 0 0 1 2.316c2.2 -0.618 9.744 -2.712 11.676 2.414 2.4 6.352 -6.548 10.964 -7.65 11.778 -0.962 0.71 -0.09 2.158 1.4 1.4 0 1.248 4.332 22.142 4.83 23.754a1 1 0 0 0 1.2 0.706h2.114c-12.384 12.384 -25.618 11.678 -33.72 4.026 3.02 0.2 6.038 0.452 8.958 0.502a1.156 1.156 0 0 0 1 -1.71c-0.4 -0.908 -1.61 -4.63 -1.912 -5.436a19.34 19.34 0 0 0 14.898 -13.69c0.296 -1.2 -1.538 -2.128 -2.114 -0.906 -3.6 7.668 -12.68 13.176 -21.138 10.872 -10.766 -2.934 -15.072 -15.29 -16.306 -25.164 -0.466 -3.724 -0.918 -10.886 -2.618 -20.234a17.08 17.08 0 0 1 2.314 -1.2c1 -0.502 1 -1.502 -0.1 -1.812 -2.334 -0.652 -6.508 1.064 -8.454 5.336 -2.426 5.322 -0.538 11.498 1.508 12.582a0.924 0.924 0 0 0 1.31 -0.504c0.638 -2.4 -2.91 -8.576 2.012 -13.286 -0.386 12.16 -0.186 27.268 5.94 37.244 4.716 7.682 12.178 12.422 21.238 11.172 0.2 0.906 0.706 3.926 0.906 4.53 -3.12 -0.2 -9.562 -0.6 -9.764 -0.502a10.952 10.952 0 0 1 -1.106 -1.812c-0.142 -0.282 -24.768 -4.646 -43.988 4.83 -15.2 7.5 -23.53 21.066 -29.4 36.942A44.876 44.876 0 0 0 177.8 209.6a1.092 1.092 0 0 0 0.8 1.108c2.114 0.4 4.328 0.8 6.442 1.308 -0.154 0.612 -0.54 4.66 -0.626 6.738 -12.844 -7.854 -34.4 -13.348 -34.6 -13.282S78.072 236.424 52.58 249.36c-1.8 2.104 4.626 1.57 13.354 5.268 -0.578 0.306 -18.076 6.6 -18.286 7.012a85.072 85.072 0 0 0 -19.326 33.118 114.93 114.93 0 0 0 -17.816 8.756 1.042 1.042 0 0 0 0.302 1.912c5.548 1.766 94.144 25.24 142.33 35.432 0.102 3.926 0.252 7.852 0.302 11.878a1.116 1.116 0 0 0 1.108 1.108 212.864 212.864 0 0 0 27.782 -2.718 0.97 0.97 0 0 0 0.6 -1.51c-2.014 -3.12 -4.128 -5.738 -6.04 -8.254 57.536 -10.886 131.086 -8.306 137.298 -12.784 1.886 -1.358 70.848 -57.818 71.166 -58.08a1.182 1.182 0 0 0 -0.498 -1.898ZM165.12 271.814c6.316 2.022 7.6 5.578 8.756 3.524a115.828 115.828 0 0 0 7.75 -16.81c1.616 0.898 2.708 4.26 5.034 5.334 2.818 1.51 5.214 -0.512 6.442 -2.918 1.188 -2.326 2.114 -6.256 5.234 -6.442 3.624 -0.218 6.846 2.516 10.57 1a1.428 1.428 0 0 0 0.906 -1.51c-0.6 -2.516 -1.506 -5.834 0.4 -8.052a3.558 3.558 0 0 1 2.718 -1.31c1.106 0.106 1.912 1.2 3.02 1.612 2.214 0.8 3.84 -0.8 4.73 -2.618 1.128 -2.304 2.216 -4.63 3.222 -6.946a20.75 20.75 0 0 0 6.442 4.934 1.214 1.214 0 0 0 1.812 -0.706 26.6 26.6 0 0 1 5.334 -9.964c1.4 6.642 1.912 13.286 2.718 20.03 -57.024 46.082 -57.824 48 -75.8 63.214 0.014 -0.218 0.934 -40.142 0.712 -42.372Zm203.632 -1.308s-54.262 46.672 -58.786 50.732a42.134 42.134 0 0 0 -3.32 -11.776c3.366 -3.368 33.388 -28.022 36.036 -31.4 0.4 -0.508 -0.102 -1.108 -0.6 -0.8 -6.2 3.102 -34.73 29.444 -36.44 30.298 -5.616 -11.8 -14.912 -18.8 -26.674 -23.352 23.95 -23.028 66.922 -52.382 69.858 -54.658 17.142 11.42 22.614 30.194 19.926 40.956Z" fill="#999999" stroke-width="1"></path></svg>