<svg width="400" height="400" viewBox="0 0 400 400" fill="none" xmlns="http://www.w3.org/2000/svg">
<path d="M87.712 76.034C86.002 74.926 86.096 77.646 86.404 78.55C87.004 80.35 88.908 85.83 90.532 86.804C90.7969 86.9712 91.1112 87.0426 91.4223 87.0062C91.7335 86.9698 92.0228 86.8278 92.242 86.604C92.852 85.688 88.348 76.352 87.712 76.034Z" fill="#16A34A"/>
<path d="M98.382 105.828C96.982 102.91 95.928 99.862 94.558 96.97C94.172 96.158 93.054 96.77 93.248 97.57C93.876 100.182 94.612 102.718 95.362 105.322C95.742 106.636 96.7 113.122 99.188 111.662C101.136 110.524 98.638 106.6 98.382 105.828Z" fill="#16A34A"/>
<path d="M101.6 119.62C101.184 118.718 99.9881 119.42 100.09 120.22C100.346 121.634 102.89 132.62 103.412 133.508C103.579 133.755 103.819 133.944 104.099 134.049C104.378 134.153 104.683 134.168 104.972 134.09C105.26 134.012 105.516 133.847 105.706 133.616C105.895 133.386 106.008 133.102 106.028 132.804C106.032 130.44 102.952 122.548 101.6 119.62Z" fill="#16A34A"/>
<path d="M113.784 154.648C113.4 152.71 108.736 142.066 108.65 141.864C108.552 141.708 108.401 141.592 108.225 141.537C108.049 141.482 107.859 141.491 107.689 141.563C107.52 141.635 107.381 141.766 107.299 141.931C107.217 142.096 107.196 142.285 107.24 142.464C107.618 143.846 110.766 154.214 111.568 155.55C112.172 157.064 114.064 156.062 113.784 154.648Z" fill="#16A34A"/>
<path d="M130.896 169.244C129.982 169.526 119.622 173.068 119.722 173.572C118.486 170.051 117.006 166.62 115.294 163.304C114.894 162.504 113.478 163.104 113.784 163.904C119.252 178.35 113.132 177.402 131.5 171.856C131.666 171.811 131.821 171.733 131.956 171.627C132.091 171.521 132.204 171.39 132.288 171.24C132.372 171.09 132.426 170.925 132.446 170.755C132.466 170.584 132.452 170.411 132.404 170.246C132.388 170.073 132.333 169.906 132.244 169.757C132.155 169.608 132.034 169.481 131.889 169.385C131.745 169.289 131.581 169.226 131.409 169.202C131.237 169.178 131.062 169.192 130.896 169.244Z" fill="#16A34A"/>
<path d="M151.128 163.104C149.014 162.992 146.694 164.804 144.786 165.52C142.668 166.32 140.542 167.086 138.444 167.936C137.734 168.222 137.742 169.454 138.644 169.336C142.82 168.826 148.928 167.36 151.528 165.41C152.436 164.916 152.84 163.2 151.128 163.104Z" fill="#16A34A"/>
<path d="M172.366 155.352C171.084 155.01 172.426 154.684 157.67 161.192C156.764 161.592 157.47 162.918 158.27 162.7C163.063 161.344 167.769 159.697 172.362 157.768C173.2 157.354 173.6 155.682 172.366 155.352Z" fill="#16A34A"/>
<path d="M193.102 149.212C188.774 150.924 184.154 152.062 179.816 153.54C179.216 153.74 179.312 154.74 180.016 154.648C186.852 154.176 195.432 151.412 196.216 150.622C196.349 150.498 196.449 150.343 196.507 150.171C196.565 149.998 196.58 149.815 196.55 149.635C196.52 149.456 196.446 149.287 196.336 149.143C196.225 148.999 196.08 148.885 195.914 148.81C194.878 148.288 194.2 148.846 193.102 149.212Z" fill="#16A34A"/>
<path d="M198.84 135.12C198.687 134.88 198.454 134.702 198.183 134.616C197.912 134.531 197.619 134.543 197.356 134.65C197.092 134.758 196.875 134.955 196.742 135.206C196.608 135.458 196.568 135.748 196.626 136.026C197.208 138.064 201.436 147.192 202.464 148.004C202.864 148.316 203.772 148.804 203.772 147.904C202.57 143.485 200.917 139.201 198.84 135.12Z" fill="#16A34A"/>
<path d="M191.8 119.216C192.788 121.852 193.134 124.678 194.216 125.76C194.274 125.819 194.347 125.862 194.427 125.884C194.508 125.906 194.592 125.907 194.673 125.887C194.753 125.867 194.827 125.826 194.888 125.769C194.948 125.712 194.992 125.64 195.016 125.56C195.57 124.016 194.43 120.696 192.902 114.89C192.6 113.984 192.302 112.166 190.89 112.574C188.928 113.142 191.074 116.702 191.8 119.216Z" fill="#16A34A"/>
<path d="M185.552 93.75C185.453 93.447 185.24 93.1942 184.958 93.045C184.677 92.8957 184.348 92.8617 184.042 92.95C179.412 94.14 195.186 120.962 185.552 93.75Z" fill="#16A34A"/>
<path d="M181.526 85.4C180.373 80.6596 178.962 75.9859 177.298 71.4C177.145 71.153 176.91 70.9674 176.634 70.8754C176.358 70.7833 176.059 70.7906 175.788 70.896C175.526 71.0108 175.312 71.2135 175.184 71.4691C175.055 71.7247 175.02 72.0171 175.084 72.296C176.373 76.96 178.057 81.5058 180.118 85.884C180.207 86.0346 180.345 86.1499 180.51 86.2104C180.674 86.2709 180.854 86.2728 181.019 86.216C181.185 86.1591 181.326 86.0468 181.418 85.8981C181.51 85.7495 181.548 85.5735 181.526 85.4Z" fill="#16A34A"/>
<path d="M168.742 49.662C168.583 49.5002 168.374 49.3961 168.148 49.3663C167.923 49.3364 167.694 49.3825 167.498 49.4972C167.302 49.6119 167.15 49.7887 167.065 49.9996C166.981 50.2106 166.969 50.4436 167.032 50.662C167.076 50.862 172.562 63.442 172.97 63.646C175.32 64.828 171.038 52.234 168.742 49.662Z" fill="#16A34A"/>
<path d="M92.2422 73.92C94.5862 73.87 106.58 69.794 107.842 68.284C108.442 67.572 107.95 66.19 106.842 66.572C103.826 67.604 93.9542 71.438 91.8422 73.216C91.5382 73.416 91.8402 73.928 92.2422 73.92Z" fill="#16A34A"/>
<path d="M114.8 66.3699C117.348 66.6019 128.918 62.6499 129.496 61.7399C129.627 61.5258 129.669 61.2688 129.612 61.0242C129.556 60.7796 129.405 60.5669 129.194 60.4319C127.794 59.7359 126.926 60.5579 125.268 60.8319C119.438 62.6739 115.928 63.7299 114.398 65.2619C114.306 65.3475 114.241 65.4583 114.211 65.5805C114.182 65.7027 114.189 65.8309 114.232 65.9491C114.275 66.0673 114.351 66.1702 114.452 66.2451C114.553 66.3199 114.674 66.3633 114.8 66.3699Z" fill="#16A34A"/>
<path d="M135.224 59.728C140.76 58.3687 146.153 56.4807 151.328 54.09C151.574 53.9485 151.759 53.7217 151.849 53.4526C151.938 53.1836 151.926 52.8911 151.814 52.6304C151.703 52.3698 151.499 52.1592 151.243 52.0386C150.986 51.918 150.694 51.8957 150.422 51.976C146.822 53.132 136.348 57.932 134.72 58.62C134.016 58.822 134.518 59.928 135.224 59.728Z" fill="#16A34A"/>
<path d="M159.28 51.07C162.329 50.4726 165.325 49.6312 168.24 48.554C168.392 48.5083 168.534 48.4328 168.657 48.332C168.78 48.2311 168.881 48.1068 168.956 47.9663C169.03 47.8258 169.076 47.6719 169.09 47.5136C169.105 47.3552 169.088 47.1956 169.04 47.044C168.999 46.8889 168.926 46.7439 168.826 46.6183C168.726 46.4927 168.602 46.389 168.46 46.3139C168.318 46.2388 168.162 46.1938 168.002 46.1817C167.842 46.1697 167.681 46.1909 167.53 46.244C161.73 48.566 159.696 48.702 158.774 49.97C158.696 50.183 158.705 50.4183 158.8 50.6244C158.895 50.8306 159.067 50.9908 159.28 51.07Z" fill="#16A34A"/>
<path d="M144.484 98.582C146.182 101.608 143.614 105.048 141.968 107.44C139.798 110.592 137.968 114.474 139.25 118.31C140.386 121.724 145.188 127.572 148.914 123.846C149.667 123.081 150.088 122.051 150.088 120.978C150.088 119.905 149.667 118.875 148.914 118.11C147.814 117.094 146.582 115.99 147.102 114.384C148.08 111.356 150.634 108.954 151.832 106.03C153.27 102.931 153.451 99.3953 152.336 96.166C149.88 89.8 142.374 86.928 135.936 87.912C133.482 88.3312 131.168 89.3496 129.202 90.877C127.235 92.4044 125.676 94.3936 124.662 96.668C123.725 99.398 123.859 102.382 125.036 105.017C126.213 107.653 128.346 109.744 131.004 110.868C131.289 110.923 131.584 110.898 131.855 110.796C132.126 110.693 132.364 110.517 132.541 110.288C132.719 110.058 132.829 109.784 132.859 109.495C132.89 109.207 132.84 108.916 132.714 108.654C131.726 106.33 130.338 103.628 130.802 101.004C131.822 95.2 141.574 93.4 144.484 98.582Z" fill="#16A34A"/>
<path d="M161.2 134.818C161.81 133.745 162.097 132.519 162.026 131.287C161.955 130.055 161.529 128.87 160.8 127.874C156.8 122.516 148.854 127.058 150.734 133.208C151.067 134.257 151.686 135.193 152.523 135.909C153.359 136.626 154.379 137.094 155.467 137.261C156.556 137.429 157.669 137.289 158.682 136.857C159.695 136.425 160.567 135.719 161.2 134.818Z" fill="#16A34A"/>
<path d="M217.16 281.982C247.02 274.226 258.914 273.332 264.36 271.512C264.692 271.402 264.975 271.179 265.16 270.882C265.345 270.585 265.42 270.233 265.372 269.887C265.325 269.54 265.158 269.221 264.9 268.985C264.642 268.749 264.309 268.611 263.96 268.594C260.23 268.64 235.86 273.336 217.052 281.076C216.35 281.368 216.556 282.182 217.16 281.982Z" fill="#16A34A"/>
<path d="M235.782 267.788C264.14 258.454 273.534 258.124 285.204 255.206C285.461 255.127 285.681 254.96 285.826 254.733C285.971 254.507 286.03 254.237 285.994 253.971C285.958 253.704 285.828 253.46 285.628 253.28C285.428 253.101 285.171 252.999 284.902 252.992C270.302 254.208 247.862 261.042 235.48 266.38C234.57 266.772 234.874 268.088 235.782 267.788Z" fill="#16A34A"/>
<path d="M252.49 252.892C252.69 252.858 301.21 241.246 301.41 241.114C301.598 240.992 301.748 240.819 301.841 240.614C301.934 240.41 301.967 240.183 301.935 239.96C301.903 239.738 301.808 239.529 301.662 239.359C301.515 239.189 301.323 239.064 301.108 239C299.042 238.78 296.952 238.984 294.968 239.6C284.006 241.558 260.202 247.4 251.886 251.68C251.384 252.086 251.888 253 252.49 252.892Z" fill="#16A34A"/>
<path d="M87.6122 248.462C120.13 257.36 136.334 276.586 140.458 278.76C140.641 278.869 140.854 278.913 141.065 278.887C141.275 278.861 141.471 278.765 141.621 278.615C141.772 278.465 141.867 278.269 141.894 278.058C141.92 277.848 141.875 277.634 141.766 277.452C138.38 271.052 114.642 252.64 88.0142 246.852C86.9082 246.448 86.5042 248.16 87.6122 248.462Z" fill="#16A34A"/>
<path d="M110.462 238C136.972 246.282 150.828 262.506 153.744 263.668C153.925 263.715 154.115 263.713 154.296 263.664C154.476 263.614 154.64 263.519 154.773 263.387C154.905 263.254 155 263.09 155.05 262.91C155.099 262.729 155.1 262.539 155.054 262.358C153.844 259.322 137.324 243.634 110.864 236.39C110.657 236.354 110.444 236.398 110.268 236.513C110.092 236.628 109.966 236.805 109.915 237.008C109.865 237.212 109.893 237.428 109.994 237.611C110.095 237.795 110.262 237.934 110.462 238Z" fill="#16A34A"/>
<path d="M137.036 229.034C153.5 235.164 167.76 250.634 170.958 251.382C171.152 251.435 171.356 251.436 171.55 251.384C171.745 251.332 171.922 251.23 172.064 251.088C172.206 250.946 172.308 250.769 172.36 250.575C172.411 250.38 172.411 250.176 172.358 249.982C171.838 248.68 156.464 233.404 137.632 227.234C137.51 227.178 137.377 227.148 137.243 227.147C137.109 227.145 136.976 227.172 136.853 227.225C136.73 227.279 136.619 227.358 136.529 227.457C136.438 227.556 136.369 227.673 136.327 227.801C136.285 227.928 136.27 228.063 136.284 228.197C136.297 228.33 136.339 228.459 136.406 228.576C136.473 228.692 136.563 228.793 136.672 228.872C136.78 228.951 136.904 229.006 137.036 229.034Z" fill="#16A34A"/>
<path d="M154.148 220.68C171.726 228.696 178.236 240.68 185.148 247.456C185.86 248.152 187.246 247.456 186.86 246.456C184.352 239.886 172.94 226.856 154.75 219.178C153.946 218.668 153.246 220.268 154.148 220.68Z" fill="#16A34A"/>
<path d="M179.514 280.874C180.079 274.479 180.113 268.048 179.614 261.648C179.51 260.944 177.098 266.882 177.098 268.192C177.198 269.592 178.298 278.056 178.406 280.874C178.406 281.021 178.465 281.162 178.568 281.266C178.672 281.37 178.813 281.428 178.96 281.428C179.107 281.428 179.248 281.37 179.352 281.266C179.456 281.162 179.514 281.021 179.514 280.874Z" fill="#16A34A"/>
<path d="M198.438 268.494C198.994 264.084 199.028 259.624 198.538 255.206C198.533 255.029 198.49 254.856 198.414 254.697C198.338 254.538 198.23 254.396 198.096 254.281C197.962 254.166 197.806 254.08 197.637 254.028C197.468 253.977 197.29 253.961 197.115 253.982C196.94 254.003 196.771 254.061 196.619 254.151C196.467 254.241 196.335 254.361 196.233 254.505C196.13 254.648 196.058 254.811 196.022 254.984C195.985 255.157 195.986 255.335 196.022 255.508C196.652 259.773 196.955 264.08 196.928 268.392C196.914 268.592 196.981 268.79 197.113 268.941C197.245 269.092 197.432 269.184 197.632 269.198C197.832 269.211 198.03 269.145 198.181 269.013C198.332 268.881 198.424 268.694 198.438 268.494Z" fill="#16A34A"/>
<path d="M212.932 244.336C212.932 256.2 212.118 257.232 213.332 258.336C213.534 258.533 213.805 258.644 214.087 258.644C214.369 258.644 214.64 258.533 214.842 258.336C216.382 257.038 214.374 244.336 214.34 244.136C214.14 243.43 212.832 243.63 212.932 244.336Z" fill="#16A34A"/>
<path d="M228.534 250.174C228.243 245.88 227.671 241.609 226.822 237.39C226.714 236.686 224.088 235.278 224.206 235.99C224.855 240.835 225.762 245.642 226.924 250.39C226.982 250.576 227.104 250.735 227.268 250.839C227.432 250.944 227.627 250.987 227.82 250.961C228.013 250.935 228.19 250.842 228.321 250.698C228.452 250.554 228.527 250.368 228.534 250.174Z" fill="#16A34A"/>
<path d="M301 108.044C302.255 108.226 303.536 108.088 304.724 107.644C308.975 106.641 313.351 106.269 317.71 106.538C320.53 106.82 321.476 109.338 322.24 111.67C323.64 115.928 323.194 117.536 324.052 119.924C324.266 120.524 325.252 120.826 325.56 120.124C326.828 117.286 325.832 113.29 324.856 110.462C322.736 104.318 320.142 103.422 314.488 103.716C311.113 103.841 307.766 104.382 304.524 105.328C303.034 105.561 301.657 106.266 300.598 107.34C300.558 107.487 300.578 107.643 300.654 107.775C300.729 107.907 300.854 108.004 301 108.044Z" fill="#999999"/>
<path d="M317.314 114.082C317.714 114.882 317.616 115.794 318.02 116.6C318.22 117.102 318.926 117 319.22 116.8C320.62 115.6 319.706 113.4 318.82 112.17C316.21 108.584 311.594 108.542 307.144 108.648C305.028 108.698 302.816 108.448 300.702 108.648C300.575 108.651 300.451 108.692 300.347 108.766C300.244 108.84 300.165 108.944 300.122 109.064C300.079 109.183 300.073 109.314 300.105 109.437C300.137 109.56 300.206 109.671 300.302 109.754C304.044 112.81 314.05 108.37 317.314 114.082Z" fill="#999999"/>
<path d="M322.75 126.766C320.081 124.949 316.816 124.227 313.63 124.752C310.444 125.277 307.583 127.007 305.638 129.584C305.564 129.718 305.54 129.874 305.57 130.024C305.6 130.174 305.682 130.309 305.802 130.404C305.921 130.5 306.07 130.55 306.223 130.546C306.376 130.543 306.523 130.485 306.638 130.384C316.682 121.826 323.994 131.744 325.158 132.196C327.082 132.944 327.012 129.6 322.75 126.766Z" fill="#999999"/>
<path d="M321.946 119.92C318.956 118.858 315.736 118.616 312.621 119.218C309.506 119.82 306.609 121.245 304.23 123.344C303.63 123.854 304.43 124.944 305.136 124.45C308.227 122.38 311.886 121.325 315.604 121.43C321.592 121.514 324.132 124.142 325.972 124.552C326.141 124.591 326.319 124.581 326.482 124.522C326.646 124.463 326.789 124.358 326.895 124.22C327.001 124.082 327.064 123.916 327.078 123.742C327.091 123.569 327.055 123.395 326.972 123.242C325.72 121.599 323.948 120.428 321.946 119.92Z" fill="#999999"/>
<path d="M262.556 141.864C267.44 141.5 268.86 137.736 267.59 136.328C265.68 134.212 260.258 136.342 258.732 138.04C256.962 140 259.542 142.09 262.556 141.864Z" fill="#999999"/>
<path d="M366.336 191.8C368.55 189.584 370.462 187.672 370.462 186.264C370.462 183.404 354.944 161.91 335.332 154.556C332.586 147.882 333.272 140.406 333.822 133.116C333.924 132.516 332.822 132.412 332.716 133.014C328.916 154.858 333.154 157.97 343.888 170.358C373.936 205.038 383.636 214.18 386.366 227.836C387.254 231.986 387.181 236.284 386.151 240.401C385.122 244.519 383.164 248.346 380.428 251.59C379.828 252.296 380.628 253.412 381.428 252.9C388.028 248.656 390.176 240.318 389.984 232.768C389.524 214.266 371.644 199.152 366.336 191.8Z" fill="#999999"/>
<path d="M254.302 127.672C253.553 123.37 252.373 119.155 250.78 115.09C250.58 114.584 249.78 114.586 249.78 115.19C250.074 119.284 250.646 123.353 251.492 127.37C251.526 128.375 251.84 129.351 252.398 130.188C254.31 132.1 258.128 128.366 259.646 127.168C260.546 126.458 259.544 125.156 258.646 125.356C257.099 125.926 255.637 126.705 254.302 127.672Z" fill="#999999"/>
<path d="M266.986 109.654C265.376 106.534 261.08 103.454 257.726 106.13C257.312 106.48 256.974 106.91 256.731 107.395C256.489 107.88 256.348 108.409 256.316 108.95C256.234 109.656 257.424 109.856 257.516 109.15C257.916 107.338 259.624 107.15 261.14 107.64C262.695 108.28 264.026 109.366 264.964 110.762C265.946 112 267.734 110.902 266.986 109.654Z" fill="#999999"/>
<path d="M248.566 114.082C249.27 113.482 248.166 111.974 247.566 111.566C246.89 110.987 246.107 110.547 245.26 110.272C244.414 109.997 243.521 109.893 242.634 109.966C242.089 110.216 241.609 110.589 241.233 111.056C240.857 111.524 240.595 112.072 240.468 112.659C240.341 113.245 240.353 113.853 240.502 114.434C240.651 115.015 240.933 115.553 241.326 116.006C241.44 116.113 241.579 116.188 241.731 116.227C241.882 116.265 242.041 116.264 242.192 116.224C242.342 116.184 242.481 116.106 242.593 115.998C242.706 115.89 242.79 115.755 242.836 115.606C243.05 114.806 241.932 111.476 243.942 112.386C245.05 112.886 246.46 114.298 247.768 114.298C248.05 114.315 248.331 114.239 248.566 114.082Z" fill="#999999"/>
<path d="M263.564 114.184C261.262 111.454 259.31 115 260.342 117.304C260.942 118.62 262.858 119.72 263.966 118.304C264.39 117.678 264.582 116.924 264.508 116.171C264.435 115.419 264.101 114.716 263.564 114.184Z" fill="#999999"/>
<path d="M246.954 119.82C244.596 117.14 242.702 120.636 243.734 122.94C244.322 124.256 246.25 125.356 247.358 123.94C247.777 123.312 247.966 122.559 247.892 121.808C247.819 121.057 247.487 120.354 246.954 119.82Z" fill="#999999"/>
<path d="M274.234 108.546C274.304 108.672 274.411 108.773 274.54 108.837C274.67 108.9 274.815 108.922 274.958 108.9C275.1 108.879 275.232 108.814 275.337 108.715C275.441 108.616 275.513 108.487 275.542 108.346C276.23 104.316 274.342 99.7881 272.522 96.2661C270.922 93.1441 268.496 88.9101 264.57 88.6161C256.74 88.0281 254.18 100.972 245.142 102.216C245.036 102.249 244.943 102.316 244.877 102.406C244.811 102.496 244.775 102.605 244.775 102.716C244.775 102.828 244.811 102.936 244.877 103.026C244.943 103.116 245.036 103.183 245.142 103.216C246.809 103.399 248.496 103.173 250.057 102.559C251.618 101.946 253.006 100.962 254.102 99.6921C256.822 97.0781 258.742 93.1701 262.254 91.4381C266.292 89.4481 268.798 94.4581 270.308 97.4781C271.622 100.6 273.142 106.3 274.234 108.546Z" fill="#16A34A"/>
<path d="M265.274 94.756C263.861 95.5336 262.572 96.5178 261.45 97.676C259.787 98.9957 257.81 99.8625 255.712 100.192C255.565 100.192 255.424 100.25 255.32 100.354C255.217 100.458 255.158 100.599 255.158 100.746C255.158 100.893 255.217 101.034 255.32 101.138C255.424 101.242 255.565 101.3 255.712 101.3C259.524 101.382 262.028 100.856 265.98 97.072C266.38 96.672 266.884 96.166 266.78 95.562C266.748 95.4019 266.681 95.2508 266.584 95.1197C266.487 94.9885 266.361 94.8805 266.217 94.8035C266.074 94.7264 265.914 94.6822 265.751 94.674C265.588 94.6658 265.425 94.6938 265.274 94.756Z" fill="#999999"/>
<path d="M230.446 105.426C232.584 98.0981 237.862 98.128 241.216 96.668C244.18 95.188 241.006 92.446 235.076 95.562C231.476 97.458 228.476 101.218 229.238 105.426C229.277 105.556 229.356 105.671 229.465 105.752C229.574 105.833 229.706 105.877 229.842 105.877C229.978 105.877 230.11 105.833 230.219 105.752C230.328 105.671 230.407 105.556 230.446 105.426Z" fill="#16A34A"/>
<path d="M246.854 98.582C252.874 94.71 255.136 86.486 260.14 83.782C261.967 82.88 264.008 82.5058 266.036 82.7016C268.063 82.8973 269.996 83.6552 271.616 84.89C274.852 87.318 280.232 95.986 281.682 106.934C281.802 107.838 281.682 109.446 282.386 110.256C282.986 110.958 283.702 110.456 283.986 109.752C284.799 106.907 284.693 103.878 283.684 101.096C282.444 96.058 278.988 87.564 274.626 83.582C268.15 77.67 258.794 77.838 253.286 86.802C251.064 90.42 249.662 95.056 246.442 97.976C246.362 98.0306 246.306 98.115 246.288 98.2104C246.27 98.3059 246.29 98.4046 246.345 98.485C246.4 98.5654 246.484 98.6207 246.58 98.6389C246.675 98.6571 246.774 98.6366 246.854 98.582Z" fill="#16A34A"/>
<path d="M234.07 92.442C236.056 91.8907 238.005 91.2181 239.908 90.428C242.161 89.9776 244.457 89.7764 246.754 89.828C248.154 89.714 249.072 87.804 247.458 87.21C244.948 86.288 236.184 87.01 233.458 91.54C233.39 91.6367 233.352 91.752 233.351 91.8705C233.35 91.989 233.385 92.105 233.451 92.2031C233.518 92.3012 233.613 92.3766 233.723 92.4193C233.834 92.462 233.955 92.4699 234.07 92.442Z" fill="#16A34A"/>
<path d="M273.73 77.04C279.329 80.2831 283.579 85.4265 285.708 91.536C286.986 94.9595 287.93 98.4987 288.526 102.104C289.962 110.132 289.382 111.672 290.842 113.076C290.96 113.191 291.102 113.279 291.259 113.332C291.415 113.385 291.581 113.403 291.745 113.384C291.909 113.365 292.066 113.309 292.206 113.221C292.345 113.133 292.464 113.015 292.552 112.876C294.106 110.656 291.288 96.722 288.124 89.926C285.465 83.716 280.583 78.7231 274.434 75.926C273.63 75.53 272.928 76.632 273.73 77.04Z" fill="#16A34A"/>
<path d="M359.29 253C358.162 253.4 332.388 274.658 325.87 279.574C325.568 279.774 325.87 280.384 326.172 280.174C332 276.116 358.4 257.1 360.2 254.098C360.698 253.6 360.1 252.704 359.29 253Z" fill="#999999"/>
<path d="M351.338 248.562C352.246 247.762 350.952 246.67 350.138 247.362C330.92 263.394 319.414 272.614 303.03 285.312C302.43 285.712 303.03 286.732 303.63 286.312C314.574 278.678 341.056 257.664 351.338 248.562Z" fill="#999999"/>
<path d="M70.2 282.284C81.4345 287.39 92.2984 293.276 102.712 299.898C102.805 299.949 102.915 299.965 103.019 299.941C103.123 299.917 103.214 299.856 103.276 299.77C103.338 299.683 103.367 299.576 103.355 299.47C103.344 299.364 103.295 299.266 103.216 299.194C92.838 288.816 62.872 274.448 48.558 272.822C48.056 272.72 47.758 273.622 48.256 273.822C54.266 276.4 59.818 277.71 70.2 282.284Z" fill="#999999"/>
<path d="M137.236 322.446C137.363 322.477 137.497 322.461 137.614 322.401C137.73 322.341 137.821 322.241 137.87 322.119C137.918 321.998 137.921 321.863 137.878 321.739C137.836 321.615 137.749 321.511 137.636 321.446C126.124 314.4 85.676 297 45.94 287.216C45.54 287.116 45.34 287.718 45.74 287.92C102.258 305.436 124.016 317.94 137.236 322.446Z" fill="#999999"/>
<path d="M75.1301 304.63C74.5301 304.52 74.2242 305.43 74.8282 305.63C96.2002 310.708 100.618 313.8 109.958 316.2C110.462 316.3 110.864 315.6 110.358 315.294C102.354 311.07 83.8941 306.222 75.1301 304.63Z" fill="#999999"/>
<path d="M172.468 328.988C202.696 325.668 239.366 322.828 242.928 321.64C243.834 321.338 243.528 320.24 242.728 320.03C233.42 318.762 181.576 326.566 172.368 327.982C171.864 328.184 171.964 328.988 172.468 328.988Z" fill="#999999"/>
<path d="M261.752 302.416C261.948 302.356 262.117 302.229 262.229 302.058C262.341 301.886 262.39 301.68 262.366 301.477C262.342 301.273 262.248 301.084 262.099 300.943C261.95 300.802 261.757 300.717 261.552 300.704C251.464 299.684 215.352 305.678 176.596 320.534C176.196 320.734 176.29 321.428 176.796 321.238C215.6 306.81 255 304.44 261.752 302.416Z" fill="#999999"/>
<path fill-rule="evenodd" clip-rule="evenodd" d="M153.245 344.602C153.245 344.601 153.245 344.6 153.245 344.599L153.245 344.602ZM318.625 171.581C318.623 171.576 318.621 171.57 318.618 171.564L318.625 171.581ZM229.43 233.872C229.413 233.851 229.398 233.827 229.386 233.801C229.401 233.824 229.415 233.848 229.43 233.872ZM344.907 232.356C344.909 232.355 344.911 232.353 344.913 232.352L344.907 232.356Z" fill="#999999"/>
<path d="M238.266 105.838C239.005 105.38 239.779 104.979 240.58 104.638C241.58 104.136 241.58 103.136 240.48 102.826C238.146 102.174 233.972 103.89 232.026 108.162C229.6 113.484 231.488 119.66 233.534 120.744C233.651 120.807 233.781 120.845 233.914 120.853C234.047 120.862 234.18 120.841 234.305 120.793C234.429 120.746 234.542 120.671 234.635 120.576C234.728 120.48 234.799 120.366 234.844 120.24C235.482 117.84 231.934 111.664 236.856 106.954L238.266 105.838Z" fill="#16A34A"/>
<path fill-rule="evenodd" clip-rule="evenodd" d="M384.856 268.6C380.557 267.969 376.217 267.666 371.872 267.694C371.872 252.974 366.78 241.68 358.072 233.772C349.162 225.672 345.072 225.886 335.122 228.94C332.412 229.772 329.686 230.652 327.068 231.658C328.762 230.014 330.481 228.37 332.2 226.726L332.206 226.72C333.958 225.044 335.709 223.368 337.436 221.692C339.814 221.692 339.462 218.962 337.836 218.976C325.089 219.512 312.435 221.401 300.088 224.612C280.49 229.303 261.836 237.302 244.928 248.266C244.833 248.338 244.769 248.442 244.747 248.559C244.726 248.675 244.749 248.796 244.812 248.896C244.875 248.997 244.973 249.07 245.088 249.101C245.202 249.133 245.324 249.12 245.43 249.066C272.41 233.518 302.552 224.262 333.608 221.988C306.713 248.232 289.116 263.251 271.226 278.52L271.112 278.617C270.036 279.535 268.958 280.455 267.878 281.378C242.116 281.378 200.108 291.03 167.822 314.092C166.376 315.25 166.946 316.292 168.528 315.492C203.346 295.276 215.95 290.044 267.374 283.986C267.739 283.938 268.073 283.757 268.314 283.479C268.555 283.201 268.686 282.844 268.682 282.476C292.068 264.846 312.498 245.489 321.055 237.381C323.122 235.423 324.496 234.121 325.052 233.658C327.199 233.289 329.296 232.698 331.487 232.079C335.382 230.98 339.577 229.796 344.882 229.63C325.51 242.718 296.83 264.698 277.742 283.786C277.342 283.986 277.142 284.686 277.642 284.892C288.961 289.238 298.232 297.682 303.612 308.548C296.68 309.318 289.818 310.541 282.944 311.766C278.139 312.622 273.327 313.48 268.482 314.184C268.429 314.191 268.379 314.207 268.333 314.234C268.287 314.26 268.246 314.295 268.214 314.337C268.181 314.378 268.157 314.426 268.143 314.477C268.129 314.528 268.125 314.582 268.132 314.634C268.138 314.687 268.155 314.737 268.181 314.783C268.208 314.829 268.243 314.87 268.284 314.902C268.326 314.935 268.374 314.959 268.425 314.973C268.476 314.987 268.529 314.991 268.582 314.984C275.906 314.831 283.15 313.792 290.409 312.75C295.13 312.072 299.858 311.394 304.618 310.958C305.884 314.53 306.861 318.199 307.538 321.928C305.812 322.149 297.399 322.873 285.503 323.898L285.502 323.898C247.669 327.155 174.615 333.444 169.434 336.222C168.633 336.651 167.961 337.766 167.274 338.906C166.223 340.649 165.136 342.453 163.494 341.96C161.899 341.481 160.693 339.798 159.601 338.273C159.106 337.582 158.634 336.923 158.16 336.424C156.174 334.334 152.464 333.505 149.208 332.777C148.201 332.552 147.237 332.336 146.382 332.096C117.27 323.922 32.8398 300.696 28.3098 299.784C28.7531 298.72 29.1847 297.675 29.6095 296.647C34.5364 284.718 38.5545 274.99 49.3478 263.648C50.8238 262.094 68.9918 270.116 69.3778 270.29C102.09 285.074 131.812 308.176 145.083 318.491L145.084 318.492C147.71 320.533 149.693 322.074 150.926 322.95C151.926 323.66 153.144 322.04 152.234 321.238C131.888 303.294 80.1798 268.554 50.8458 261.638C51.0458 261.574 66.8458 256.496 67.6738 255.414C67.8738 255.51 136.822 290.628 162.3 316.106C163.408 317.214 164.918 315.804 164.414 314.596C169.734 310.362 190.2 293.862 208.823 278.847L208.83 278.842C224.73 266.022 239.286 254.287 241.922 252.196C243.122 251.244 240.62 234.304 239.104 227.736C239.051 227.53 238.944 227.341 238.793 227.191C238.642 227.041 238.454 226.934 238.247 226.883C238.04 226.831 237.824 226.837 237.62 226.899C237.416 226.96 237.233 227.076 237.09 227.234C233.956 230.461 231.583 234.347 230.144 238.608C227.952 237.356 226.062 235.637 224.608 233.574C224.489 233.388 224.325 233.235 224.132 233.129C223.938 233.023 223.721 232.968 223.501 232.968C223.28 232.968 223.063 233.023 222.87 233.129C222.676 233.235 222.513 233.388 222.394 233.574C218.783 241.312 218.091 243.733 217.118 243.852C216.736 243.898 216.31 243.589 215.647 243.106L215.55 243.036C214.844 242.574 214.044 242.275 213.208 242.164C212.372 242.052 211.522 242.129 210.72 242.39C209.918 242.651 209.184 243.089 208.574 243.671C207.964 244.253 207.492 244.965 207.194 245.754C206.335 248.187 206.265 250.829 206.994 253.304C205.426 253.513 203.848 253.079 202.279 252.648C198.623 251.644 195.015 250.652 191.692 257.834C188.949 263.745 187.645 261.979 185.828 259.515C184.597 257.847 183.13 255.86 180.822 255.72C179.865 255.72 179.561 256.547 178.687 258.917C177.747 261.469 176.147 265.809 172.366 272.832C169.945 270.94 167.121 269.63 164.112 269.006C162.433 268.699 162.486 270.53 162.564 273.248C162.582 273.873 162.602 274.545 162.602 275.248C162.602 281.807 162.402 289.02 162.224 295.468L162.224 295.469C162.029 302.498 161.86 308.618 162.002 311.988C141.802 290.578 68.4018 250.702 55.8018 249.68C71.4255 242.445 93.0059 233.099 111.662 225.02C131.915 216.25 148.722 208.972 150.724 207.504C172.766 213.872 193.666 222.228 204.978 242.432C205.089 242.616 205.263 242.754 205.468 242.819C205.673 242.885 205.895 242.873 206.092 242.787C206.289 242.701 206.448 242.546 206.539 242.351C206.631 242.156 206.648 241.935 206.588 241.728C204.126 233.374 193.67 224.802 186.526 220.104C186.852 218.362 187.158 215.415 187.333 213.736C187.395 213.138 187.44 212.7 187.464 212.536C193.742 213.976 213.166 218.838 216.454 224.314C216.319 214.772 216.688 205.229 217.56 195.726C217.409 195.776 216.434 194.598 214.729 192.541C213.171 190.659 211.003 188.042 208.3 184.956C207.998 184.556 208.4 183.756 208.9 184.156C212.138 186.734 215.106 189.634 217.758 192.812C217.897 191.135 218.099 189.412 218.299 187.706L218.3 187.705L218.3 187.699C218.388 186.949 218.476 186.202 218.558 185.464C218.672 184.464 220.264 184.464 220.17 185.464C219.24 195.336 218.818 223.426 219.464 232.464C219.364 230.248 222.384 229.238 224.096 229.544C226.294 230.317 228.161 231.82 229.386 233.801C228.835 232.607 233.475 226.611 234.362 225.92C241.047 219.85 242.159 228.838 243.481 239.514C243.767 241.827 244.063 244.22 244.428 246.556C260.94 235.173 279.295 226.728 298.682 221.592C309.718 218.47 325.838 215.542 335.928 216.056C335.141 215.985 328.467 197.957 323.582 184.766L323.582 184.765C321.586 179.375 319.89 174.792 319.016 172.572L318.831 172.102L318.625 171.581L318.618 171.564L318.609 171.541C315.396 163.402 312.924 157.142 317.816 149.722C318.174 149.178 318.545 148.639 318.916 148.099C320.613 145.627 322.321 143.141 322.95 140.16C323.444 138.239 323.215 136.204 322.306 134.441C321.396 132.678 319.871 131.311 318.02 130.6C317.063 130.267 316.047 130.137 315.037 130.219C314.027 130.301 313.045 130.593 312.155 131.077C311.264 131.56 310.484 132.224 309.865 133.026C309.245 133.828 308.8 134.75 308.558 135.734C308.462 136.134 309.064 136.44 309.262 136.036C309.631 135.178 310.194 134.417 310.906 133.813C311.618 133.208 312.461 132.777 313.368 132.553C314.275 132.329 315.221 132.318 316.133 132.521C317.045 132.723 317.897 133.135 318.624 133.722C322.93 137.498 318.789 143.584 316.26 147.301C315.681 148.151 315.187 148.878 314.898 149.424C310.283 147.775 297.704 151.061 296.052 151.492L296.049 151.493C295.946 151.52 295.886 151.536 295.874 151.538C295.701 151.573 295.628 151.582 295.583 151.623C295.431 151.76 295.599 152.251 293.258 155.262C293.153 155.262 292.326 155.425 291.536 155.582C290.811 155.725 290.116 155.862 290.036 155.862C289.67 152.376 284.852 133.05 284.5 132.61C292.674 129.34 294.452 120.298 290.238 116.21C286.664 112.736 278.868 113.902 276.648 115.21C276.398 115.376 276.214 115.625 276.129 115.913C276.044 116.201 276.062 116.51 276.181 116.785C276.3 117.061 276.512 117.286 276.78 117.421C277.048 117.557 277.355 117.594 277.648 117.526C279.848 116.908 287.392 114.814 289.324 119.94C291.456 125.582 284.634 129.852 282.31 131.306C282.018 131.489 281.797 131.627 281.674 131.718C280.712 132.428 281.584 133.876 283.074 133.118C283.074 134.366 287.406 155.26 287.904 156.872C287.973 157.123 288.137 157.336 288.361 157.468C288.585 157.6 288.851 157.639 289.104 157.578H291.218C278.834 169.962 265.6 169.256 257.498 161.604C258.135 161.646 258.771 161.691 259.407 161.735C261.786 161.901 264.151 162.067 266.456 162.106C266.655 162.104 266.85 162.05 267.023 161.949C267.195 161.849 267.338 161.706 267.439 161.534C267.54 161.362 267.594 161.166 267.597 160.967C267.6 160.768 267.551 160.571 267.456 160.396C267.199 159.814 266.609 158.073 266.14 156.687C265.877 155.913 265.652 155.249 265.544 154.96C269.049 154.276 272.296 152.635 274.926 150.219C277.555 147.802 279.465 144.705 280.442 141.27C280.738 140.07 278.904 139.142 278.328 140.364C274.728 148.032 265.648 153.54 257.19 151.236C246.424 148.302 242.118 135.946 240.884 126.072C240.763 125.109 240.644 123.917 240.503 122.517C240.101 118.5 239.526 112.77 238.266 105.838L236.856 106.954C236.47 119.114 236.67 134.222 242.796 144.198C247.512 151.88 254.974 156.62 264.034 155.37C264.109 155.711 264.228 156.353 264.357 157.052C264.572 158.209 264.815 159.524 264.94 159.9C261.82 159.7 255.378 159.3 255.176 159.398C254.749 158.831 254.379 158.224 254.07 157.586C253.928 157.304 229.302 152.94 210.082 162.416C194.882 169.916 186.552 183.482 180.682 199.358C179.318 202.646 178.351 206.084 177.8 209.6C177.787 209.848 177.86 210.093 178.005 210.295C178.15 210.496 178.36 210.642 178.6 210.708C178.873 210.76 179.147 210.811 179.423 210.863C181.284 211.213 183.201 211.574 185.042 212.016C184.888 212.628 184.502 216.676 184.416 218.754C171.572 210.9 150.016 205.406 149.816 205.472C149.616 205.538 78.0718 236.424 52.5798 249.36C51.5843 250.524 53.1048 250.88 56.1392 251.592C58.5915 252.168 62.0327 252.975 65.9338 254.628C65.7347 254.733 63.5284 255.549 60.7126 256.59C55.3531 258.572 47.7854 261.37 47.6478 261.64C38.7694 271.065 32.1595 282.392 28.3218 294.758C22.1417 297.157 16.1808 300.087 10.5058 303.514C10.3266 303.621 10.1835 303.778 10.0949 303.967C10.0063 304.156 9.97634 304.366 10.0089 304.572C10.0414 304.778 10.1349 304.97 10.2773 305.122C10.4197 305.274 10.6045 305.38 10.8078 305.426C16.3558 307.192 104.952 330.666 153.138 340.858C153.168 342.027 153.203 343.196 153.238 344.368L153.245 344.599L153.245 344.602L153.245 344.605C153.325 347.29 153.406 349.99 153.44 352.736C153.442 353.029 153.559 353.31 153.767 353.517C153.974 353.725 154.255 353.842 154.548 353.844C163.858 353.547 173.139 352.639 182.33 351.126C182.488 351.094 182.636 351.023 182.759 350.92C182.883 350.816 182.979 350.683 183.039 350.534C183.098 350.384 183.12 350.221 183.101 350.061C183.081 349.901 183.023 349.748 182.93 349.616C181.323 347.128 179.654 344.959 178.073 342.906C177.672 342.385 177.277 341.871 176.89 341.362C210.505 335.002 249.587 333.238 277.512 331.978C297.383 331.082 311.605 330.44 314.188 328.578C316.074 327.22 385.036 270.76 385.354 270.498C385.482 270.353 385.572 270.178 385.617 269.989C385.662 269.801 385.66 269.604 385.61 269.416C385.561 269.229 385.467 269.056 385.335 268.914C385.204 268.772 385.039 268.664 384.856 268.6ZM181.626 258.528C179.495 264.329 176.903 269.95 173.876 275.338C173.274 276.407 172.638 275.957 171.278 274.995C170.022 274.108 168.15 272.784 165.12 271.814C165.342 274.044 164.422 313.968 164.408 314.186C169.036 310.269 172.526 307.233 176.129 304.098C186.523 295.057 197.865 285.19 240.208 250.972C240.013 249.342 239.835 247.718 239.658 246.099C239.102 241.017 238.551 235.979 237.49 230.942C235.019 233.843 233.2 237.241 232.156 240.906C232.105 241.088 232.013 241.256 231.887 241.396C231.76 241.536 231.603 241.644 231.427 241.713C231.251 241.781 231.061 241.808 230.873 241.791C230.685 241.773 230.504 241.712 230.344 241.612C227.893 240.407 225.703 238.731 223.902 236.678C222.896 238.994 221.808 241.32 220.68 243.624C219.79 245.442 218.164 247.042 215.95 246.242C215.476 246.066 215.057 245.765 214.647 245.47C214.098 245.075 213.563 244.691 212.93 244.63C212.408 244.636 211.895 244.756 211.425 244.983C210.955 245.209 210.541 245.536 210.212 245.94C208.387 248.064 209.14 251.196 209.734 253.667C209.76 253.777 209.786 253.885 209.812 253.992C209.851 254.309 209.783 254.63 209.619 254.903C209.455 255.177 209.204 255.388 208.906 255.502C206.713 256.395 204.694 255.814 202.664 255.23C201.247 254.822 199.826 254.412 198.336 254.502C195.84 254.651 194.748 257.196 193.803 259.399C193.567 259.949 193.339 260.479 193.102 260.944C191.874 263.35 189.478 265.372 186.66 263.862C185.362 263.263 184.448 261.951 183.614 260.753C182.952 259.803 182.34 258.925 181.626 258.528ZM309.966 321.238C314.49 317.178 368.752 270.506 368.752 270.506C371.44 259.744 365.968 240.97 348.826 229.55C348.407 229.875 347.171 230.752 345.291 232.084L344.913 232.352L344.907 232.356L344.902 232.359C333.233 240.627 299.268 264.69 278.968 284.208C290.73 288.76 300.026 295.76 305.642 307.56C306.231 307.266 310.005 303.945 314.953 299.591C324.363 291.311 338.018 279.295 342.082 277.262C342.58 276.954 343.082 277.554 342.682 278.062C341.101 280.079 329.766 289.676 320.17 297.802C313.69 303.289 308.003 308.105 306.646 309.462C308.32 313.205 309.438 317.172 309.966 321.238Z" fill="#999999"/>
</svg>
