<svg width="349" height="362" viewBox="0 0 349 362" fill="none" xmlns="http://www.w3.org/2000/svg">
<path d="M216.238 51.8309C213.742 62.2919 211.912 71.1714 211.607 72.9435C211.405 73.7145 211.366 74.5194 211.493 75.3063C212.503 77.4595 225.556 81.7087 227.213 80.8703C228.871 80.0319 233.177 70.333 238.189 60.3293C241.259 60.4274 244.331 60.2038 247.354 59.6624C250.538 59.0783 253.636 58.0989 256.577 56.747C263.017 53.7745 270.067 41.0459 271.02 34.6435C271.735 27.6924 270.263 20.6916 266.809 14.617C250.822 -13.1077 203.928 1.81217 207.739 32.6046C208.828 39.6505 211.759 46.2834 216.238 51.8309ZM227.861 74.5251C227.861 74.8299 227.518 74.7918 225.956 74.5251C222.76 74.1234 219.665 73.1351 216.828 71.6097C215.495 70.8856 215.133 70.7332 215.266 70.4092C215.399 70.0853 215.685 70.1996 217.743 70.7713C217.934 70.7713 223.841 72.6768 225.536 73.2674C227.728 74.2583 227.861 74.2583 227.861 74.5251ZM227.518 43.523C229.553 43.6285 231.581 43.2085 233.406 42.3035C235.103 43.1255 236.938 43.6231 238.818 43.7707C235.616 49.7348 229.119 61.8918 227.023 68.3704L218.943 66.141C220.849 61.4535 225.06 50.478 227.48 43.523H227.518ZM226.851 41.9415C225.429 41.7266 224.116 41.051 223.115 40.0185C222.113 38.9859 221.478 37.6533 221.306 36.225C220.773 32.4141 223.212 28.1458 226.889 29.1557C229.195 29.7845 229.481 31.6138 229.081 33.9194C228.738 35.5962 227.499 39.8073 226.813 41.8652L226.851 41.9415ZM232.034 37.3683C232.238 36.1215 232.705 34.9325 233.406 33.8813C233.739 33.3082 234.227 32.8402 234.813 32.5303C235.399 32.2204 236.06 32.0811 236.722 32.1283C238.132 32.5475 238.741 35.2151 237.579 36.8919C236.462 38.3744 235.071 39.6292 233.482 40.5886C232.936 40.2677 232.5 39.7871 232.234 39.2114C231.969 38.6358 231.885 37.9926 231.996 37.3683H232.034ZM214.523 13.1497C223.059 2.87924 239.122 -1.19847 250.727 3.03168C257.031 5.19561 262.333 9.5771 265.647 15.3601C268.932 21.1405 270.337 27.7999 269.667 34.4148C268.791 40.3409 262.045 52.6502 256.119 55.375C250.701 57.8465 244.79 59.0458 238.837 58.8811C238.189 58.8811 237.503 58.8811 237.255 59.3384C236.131 61.625 234.073 66.0457 232.053 70.1996C230.658 69.5262 229.212 68.9654 227.728 68.5228C229.938 62.1966 236.912 49.773 240.228 43.7517C243.1 43.9978 245.988 43.499 248.612 42.3035C249.321 41.9304 249.908 41.3628 250.306 40.6673C250.704 39.9719 250.895 39.1775 250.857 38.3773C250.819 37.5771 250.553 36.8044 250.091 36.1498C249.63 35.4952 248.991 34.9859 248.25 34.6816C245.296 33.2334 242.648 36.7014 241.104 39.6168C240.685 40.379 240.209 41.2745 239.675 42.2844C238.134 42.1832 236.614 41.8689 235.159 41.3508C236.608 40.3324 237.893 39.0986 238.97 37.6922C239.573 36.7812 239.879 35.7053 239.845 34.6132C239.811 33.521 239.439 32.4663 238.78 31.5947C238.262 30.9936 237.543 30.6019 236.757 30.4931C235.971 30.3844 235.173 30.566 234.511 31.004C233.177 31.824 232.107 33.0117 231.431 34.4246C230.755 35.8374 230.502 37.4153 230.7 38.9689C230.907 39.8459 231.38 40.6376 232.053 41.2364C230.803 41.7541 229.462 42.0134 228.109 41.9986C228.871 39.7502 230.11 35.6915 230.434 34.0337C230.637 33.0886 230.682 32.1163 230.567 31.1565C230.419 30.3325 230.037 29.5686 229.466 28.9567C228.895 28.3449 228.159 27.9111 227.347 27.7076C222.716 26.3928 219.306 31.5185 219.972 36.3013C220.161 38.0152 220.896 39.6228 222.07 40.8859C223.244 42.1489 224.794 43.0002 226.489 43.3134C224.05 50.1731 220.239 61.2439 218.334 65.9695L214.142 64.8834C216.828 51.3926 217.152 51.7165 216.771 51.545C212.442 46.0249 209.671 39.4449 208.749 32.4903C208.3 29.0419 208.582 25.5375 209.577 22.2053C210.572 18.8731 212.257 15.7876 214.523 13.1497ZM240.971 42.3988C242.305 39.9788 244.972 34.6816 247.564 35.9773C248.082 36.1862 248.534 36.5326 248.869 36.9792C249.205 37.4258 249.413 37.9557 249.469 38.5116C249.431 41.8652 244.21 42.4559 240.895 42.3988H240.971ZM313.913 50.8019C316.209 49.4515 318.921 48.9904 321.534 49.5062C324.405 49.5576 327.148 50.7054 329.199 52.7144C331.251 54.7233 332.456 57.4411 332.567 60.3102C330.841 59.3085 328.822 58.9317 326.851 59.2432C322.068 59.6624 315.818 62.2538 316.656 66.8651C317.342 70.676 322.373 70.1615 326.184 69.1326C329.995 68.1036 333.025 66.2363 333.806 62.5587C338.436 65.9314 339.522 71.8383 339.713 77.6119C339.713 77.6928 339.745 77.7703 339.802 77.8275C339.859 77.8847 339.937 77.9168 340.018 77.9168C340.099 77.9168 340.176 77.8847 340.233 77.8275C340.29 77.7703 340.323 77.6928 340.323 77.6119C340.456 71.1524 339.294 64.8262 334.015 61.1486C334.07 59.4943 333.788 57.8461 333.186 56.3039C332.585 54.7616 331.677 53.3575 330.518 52.1764C329.358 50.9953 327.971 50.0619 326.44 49.4326C324.909 48.8033 323.266 48.4912 321.611 48.5153C318.966 48.1291 316.269 48.6819 313.989 50.0778C313.284 50.4208 313.608 50.9353 313.913 50.8019ZM331.291 64.4642C329.137 67.2843 323.04 68.7515 320.22 68.2751C319.172 68.1036 318.314 67.6654 318.086 66.5792C317.4 62.7683 323.973 60.6913 327.899 60.5579C329.497 60.4354 331.091 60.844 332.434 61.7203C332.29 62.7165 331.896 63.6603 331.291 64.4642ZM305.185 28.5269C307.224 26.0117 305.852 21.6291 300.155 21.6101C297.945 21.6101 296.878 23.8585 297.03 26.0117C297.373 31.1374 303.147 30.985 305.185 28.5269ZM298.364 25.9164C298.364 24.6588 298.955 23.0201 300.269 23.0392C303.337 23.0392 304.747 24.4683 304.747 26.0498C304.671 29.6511 298.116 31.5185 298.364 25.9164ZM297.583 241.94C280.833 235.252 273.059 267.626 259.378 295.446C259.291 296.615 259.33 297.79 259.492 298.952C259.492 301.867 259.816 321.17 261.512 323.361C261.969 324.237 263.894 323.361 264.789 322.808C272.396 318.1 279.564 312.717 286.207 306.726C286.264 306.661 286.306 306.586 286.333 306.504C286.359 306.422 286.368 306.335 286.359 306.25C289.904 301.2 303.185 274.905 306.405 261.719C308.653 252.382 306.424 245.427 297.583 241.94ZM303.566 266.139C294.599 264.991 285.93 262.159 278.013 257.794C282.472 249.352 287.979 239.73 297.068 243.35C307.186 247.371 306.977 255.697 303.566 266.082V266.139ZM271.859 315.682C271.274 315.191 270.634 314.769 269.953 314.424C267.378 313.115 264.403 312.829 261.626 313.624C261.436 311.356 260.35 296.608 260.35 296.475C274.622 301.696 270.22 299.428 284.359 306.459C282.872 307.869 277.289 311.776 271.859 315.644V315.682ZM281.691 260.537C283.549 261.553 285.457 262.475 287.407 263.3C283.04 270.161 279.18 277.332 275.86 284.756C272.659 291.444 272.773 291.406 269.515 298.704C267.609 298.094 265.704 297.523 263.798 296.951C265.856 292.854 280.49 262.9 281.691 260.499V260.537ZM270.258 298.895C276.451 287.786 282.758 273.971 288.17 263.548C290.075 264.348 291.98 264.996 293.886 265.568C292.876 267.473 289.923 272.542 289.141 274.009C288.36 275.476 280.529 290.911 279.976 292.092C279.099 293.998 276.699 299.314 275.955 301.01C274.012 300.152 272.144 299.504 270.182 298.856L270.258 298.895ZM276.641 301.257C277.804 299.142 282.586 290.263 283.177 289.119C284.073 287.347 294.057 266.94 294.61 265.758C296.363 266.254 298.211 266.673 299.393 266.902C295.906 276.429 285.864 294.779 282.243 303.83C278.947 302.286 278.204 301.905 276.565 301.219L276.641 301.257ZM277.804 258.346L281.215 260.252C274.341 271.957 268.354 284.161 263.303 296.76L260.445 295.884C271.516 272.294 272.03 269.207 277.728 258.308L277.804 258.346ZM285.654 305.488L282.777 304.116C285.883 298.018 295.601 282.374 300.041 267.035C301.108 267.226 302.156 267.397 303.166 267.53C298.269 280.596 292.39 293.272 285.578 305.449L285.654 305.488ZM225.956 317.854C226.715 317.225 227.258 316.374 227.508 315.42C227.757 314.466 227.701 313.458 227.347 312.538C227.185 311.21 226.576 309.977 225.62 309.042C224.664 308.106 223.419 307.524 222.088 307.391C220.757 307.258 219.42 307.582 218.298 308.309C217.176 309.037 216.335 310.125 215.914 311.394C213.475 309.813 210.826 308.136 208.292 306.536C210.197 304.001 215.799 305.126 216.371 307.202C216.384 307.283 216.428 307.356 216.494 307.404C216.56 307.452 216.643 307.472 216.724 307.46C216.804 307.447 216.877 307.403 216.925 307.337C216.973 307.271 216.993 307.188 216.981 307.107C216.695 303.792 209.797 301.848 207.015 305.754C204.557 304.249 201.508 302.42 198.955 301.029C201.146 299.123 206.043 300.19 206.577 302.172C206.602 302.24 206.65 302.296 206.713 302.332C206.776 302.367 206.85 302.379 206.921 302.366C206.992 302.352 207.056 302.313 207.101 302.257C207.146 302.201 207.17 302.13 207.168 302.058C206.92 298.971 200.537 296.894 197.64 300.286C196.427 299.606 195.15 299.044 193.829 298.609C193.588 298.509 193.323 298.481 193.066 298.528C192.809 298.575 192.571 298.696 192.381 298.876C187.56 304.878 171.307 320.465 163.799 322.275C163.61 322.303 163.432 322.381 163.283 322.5C163.134 322.619 163.019 322.775 162.949 322.953C162.88 323.131 162.858 323.324 162.887 323.512C162.916 323.701 162.994 323.879 163.113 324.028C164.762 325.701 166.649 327.12 168.715 328.239C166.81 330.144 165.323 331.859 164.218 333.098C163.646 333.708 163.342 345.369 163.837 347.941C163.911 348.193 164.073 348.41 164.294 348.551C166.695 350.19 197.621 363.566 200.784 361.775C202.899 360.575 228.147 334.298 228.547 333.498C229.157 332.24 228.947 323.856 228.909 320.503C228.757 319.493 226.87 318.407 225.956 317.854ZM164.98 343.025V338.776C172.888 342.587 190.99 350.361 197.85 352.534C199.603 353.105 199.755 353.029 200.67 352.534C205.91 349.18 224.412 328.334 227.804 325.152V329.173C217.514 339.481 200.041 357.545 199.717 356.516C197.831 356.402 166.619 343.788 164.98 343.025ZM225.479 311.433C226.164 312.587 226.532 313.901 226.546 315.244C226.54 315.671 226.435 316.09 226.24 316.47C226.045 316.85 225.765 317.18 225.422 317.435C223.822 316.368 220.792 314.386 217.21 312.061C219.172 308.193 223.536 308.136 225.403 311.433H225.479ZM164.504 323.628C172.621 321.227 188.037 306.364 193.22 299.924C194.467 300.271 195.669 300.763 196.802 301.391C194.896 304.935 196.935 308.822 197.659 308.27C198.059 307.965 197.335 307.85 197.221 305.983C197.172 304.619 197.481 303.266 198.117 302.058C200.746 303.43 203.833 305.221 206.444 306.726C204.843 310.289 206.767 313.814 207.434 313.3C208.101 312.786 207.13 312.9 207.015 311.032C206.969 309.808 207.203 308.589 207.701 307.469C210.388 309.051 213.132 310.689 215.647 312.233C215.259 313.182 215.106 314.211 215.198 315.232C215.291 316.254 215.628 317.238 216.181 318.102C216.206 318.134 216.237 318.162 216.272 318.182C216.308 318.203 216.347 318.216 216.388 318.221C216.429 318.226 216.47 318.224 216.51 318.213C216.549 318.202 216.586 318.184 216.619 318.159C216.651 318.134 216.679 318.103 216.699 318.067C216.72 318.032 216.733 317.992 216.738 317.952C216.743 317.911 216.741 317.87 216.73 317.83C216.719 317.79 216.701 317.753 216.676 317.721C216.334 316.964 216.164 316.14 216.181 315.309C216.197 314.478 216.399 313.662 216.771 312.919C221.211 315.625 224.793 317.892 225.898 318.635C225.689 318.826 205.815 336.509 199.05 341.768C194.611 340.605 171.307 329.039 164.504 323.628ZM165.228 334.241C173.86 338.052 193.467 346.893 197.983 347.751C198.764 347.903 199.069 347.961 200.556 346.779C206.901 341.692 227.537 320.102 227.728 320.331C227.737 320.388 227.737 320.446 227.728 320.503V324.314C223.479 327.724 199.851 352.534 199.469 351.352C197.564 351.352 166.6 338.719 165.018 338.014C164.98 337.214 165.152 335.08 165.228 334.241ZM199.927 360.499C198.021 361.585 169.001 349.79 165.114 347.389C164.968 346.175 164.898 344.953 164.904 343.73C173.25 347.846 197.526 358.098 199.755 358.002C203.014 357.831 226.051 331.897 227.69 330.087C227.709 331.061 227.613 332.033 227.404 332.984C227.08 333.612 201.184 359.794 199.927 360.499ZM42.0578 253.087C42.1912 255.126 42.2865 256.898 42.2865 258.556C42.2865 258.808 42.3869 259.051 42.5655 259.229C42.7442 259.408 42.9865 259.508 43.2392 259.508C43.4919 259.508 43.7342 259.408 43.9129 259.229C44.0916 259.051 44.192 258.808 44.192 258.556C44.192 256.784 44.0967 255.031 43.9633 252.954C43.9456 252.701 43.8283 252.466 43.6371 252.299C43.4459 252.133 43.1965 252.05 42.9439 252.068C42.6912 252.085 42.4559 252.203 42.2897 252.394C42.1235 252.585 42.0401 252.834 42.0578 253.087ZM332.396 214.882C332.271 214.889 332.15 214.921 332.038 214.976C331.926 215.031 331.826 215.108 331.744 215.202C331.663 215.297 331.601 215.406 331.562 215.524C331.523 215.643 331.509 215.768 331.519 215.892C331.634 217.645 331.748 219.532 331.748 221.361C331.748 221.614 331.848 221.856 332.027 222.035C332.206 222.213 332.448 222.314 332.701 222.314C332.953 222.314 333.196 222.213 333.374 222.035C333.553 221.856 333.653 221.614 333.653 221.361C333.653 219.455 333.539 217.55 333.406 215.759C333.398 215.634 333.366 215.513 333.311 215.401C333.256 215.289 333.18 215.189 333.086 215.108C332.991 215.026 332.882 214.964 332.763 214.925C332.645 214.886 332.52 214.872 332.396 214.882ZM37.1226 248.342C37.3753 248.342 37.6176 248.242 37.7963 248.063C37.975 247.885 38.0754 247.642 38.0754 247.39C38.0754 247.137 37.975 246.895 37.7963 246.716C37.6176 246.537 37.3753 246.437 37.1226 246.437C34.817 246.437 32.8925 246.608 30.987 246.57C30.7325 246.57 30.4882 246.67 30.3065 246.848C30.1248 247.026 30.0202 247.269 30.0152 247.523C30.0152 247.776 30.1156 248.018 30.2942 248.197C30.4729 248.375 30.7152 248.476 30.9679 248.476C32.9306 248.514 35.0838 248.438 37.1226 248.342ZM326.489 209.242C324.202 209.242 322.278 209.375 320.353 209.395C320.1 209.395 319.858 209.495 319.679 209.674C319.501 209.852 319.4 210.095 319.4 210.347C319.4 210.6 319.501 210.842 319.679 211.021C319.858 211.2 320.1 211.3 320.353 211.3C322.411 211.3 324.545 211.3 326.603 211.148C326.856 211.132 327.092 211.017 327.26 210.828C327.428 210.639 327.514 210.39 327.499 210.138C327.483 209.885 327.369 209.649 327.179 209.481C326.99 209.313 326.741 209.227 326.489 209.242ZM41.5433 236.567C41.6577 238.32 41.772 240.206 41.772 242.035C41.7769 242.286 41.8788 242.526 42.0564 242.704C42.2341 242.881 42.4736 242.983 42.7247 242.988C42.9774 242.988 43.2198 242.888 43.3984 242.709C43.5771 242.53 43.6775 242.288 43.6775 242.035C43.6775 240.13 43.5631 238.224 43.4488 236.433C43.4311 236.18 43.3138 235.945 43.1226 235.779C42.9314 235.613 42.6821 235.529 42.4294 235.547C42.1767 235.565 41.9414 235.682 41.7752 235.873C41.6091 236.065 41.5257 236.314 41.5433 236.567ZM333.139 204.84C333.139 202.935 333.025 201.029 332.891 199.238C332.873 198.986 332.756 198.75 332.565 198.584C332.374 198.418 332.124 198.335 331.872 198.352C331.619 198.37 331.384 198.487 331.218 198.678C331.051 198.87 330.968 199.119 330.986 199.372C331.1 201.125 331.214 203.011 331.214 204.84C331.214 205.093 331.315 205.335 331.493 205.514C331.672 205.693 331.914 205.793 332.167 205.793C332.422 205.793 332.666 205.693 332.848 205.515C333.029 205.337 333.134 205.095 333.139 204.84ZM55.6058 248.095C55.7309 248.09 55.8539 248.06 55.9676 248.008C56.0813 247.955 56.1836 247.881 56.2685 247.789C56.3535 247.697 56.4195 247.589 56.4627 247.471C56.5059 247.354 56.5255 247.229 56.5204 247.104C56.5012 246.854 56.3883 246.622 56.2046 246.452C56.0208 246.282 55.7797 246.188 55.5296 246.189C53.2239 246.284 51.2994 246.361 49.3749 246.323C49.1222 246.323 48.8799 246.423 48.7012 246.602C48.5225 246.78 48.4221 247.023 48.4221 247.275C48.4221 247.528 48.5225 247.77 48.7012 247.949C48.8799 248.128 49.1222 248.228 49.3749 248.228C51.4137 248.266 53.5479 248.19 55.6058 248.095ZM344.972 208.994C343.066 209.09 340.951 209.147 338.836 209.147C338.71 209.142 338.585 209.162 338.467 209.207C338.35 209.251 338.242 209.319 338.151 209.406C338.06 209.494 337.988 209.598 337.939 209.714C337.89 209.83 337.864 209.955 337.864 210.08C337.864 210.335 337.964 210.579 338.142 210.761C338.32 210.943 338.563 211.047 338.817 211.052C340.989 211.052 342.742 211.052 345.048 210.9C345.173 210.895 345.296 210.865 345.41 210.813C345.524 210.76 345.626 210.686 345.711 210.594C345.796 210.502 345.862 210.394 345.905 210.277C345.948 210.159 345.968 210.034 345.963 209.909C345.939 209.661 345.825 209.431 345.642 209.262C345.459 209.093 345.221 208.998 344.972 208.994ZM11.8179 191.635C12.0656 191.826 65.8001 183.861 68.1057 182.451C68.2334 182.358 68.3353 182.234 68.402 182.091C68.4687 181.947 68.4978 181.789 68.4868 181.632C68.4868 179.174 65.2666 156.098 63.7231 150.344C63.5326 149.639 63.342 148.934 62.9038 148.686C59.9884 146.933 8.61665 156.613 5.54883 158.595C5.46569 158.644 5.39385 158.71 5.33803 158.789C5.28221 158.867 5.24366 158.957 5.2249 159.052C4.57704 161.357 10.1601 190.492 11.8179 191.635ZM6.38724 159.509C10.0458 157.851 56.6728 149.315 62.0082 149.982C63.3039 153.316 66.7719 177.745 67.0005 181.327C64.3519 182.108 12.5419 191.007 12.3514 191.045C12.1608 191.083 12.1418 191.312 11.7416 190.111C10.0648 185.081 6.29197 163.816 6.38724 159.509Z" fill="#999999"/>
<path d="M72.2956 184.146C72.3993 183.953 72.4456 183.735 72.429 183.517C72.429 180.487 68.0845 146.856 66.5411 144.169C66.4201 143.971 66.2488 143.808 66.0446 143.698C65.8405 143.588 65.6107 143.533 65.3787 143.54C58.9954 142.759 5.14651 153.277 1.60231 155.735C1.10689 156.078 1.18311 156.936 1.24027 157.85C1.54515 162.862 6.95671 195.826 8.86219 195.636C9.07179 195.636 8.99557 195.483 8.50015 196.493C5.5276 202.61 -0.112617 222.198 0.00171192 226.143C0.00171192 227.8 0.382807 229.953 2.02152 229.839C13.7783 228.391 71.4191 219.245 87.9967 215.834C88.6446 215.701 89.0638 215.11 89.0448 214.138C88.8492 212.519 88.3583 210.95 87.5966 209.508C85.2719 205.144 75.6302 187.862 72.2956 184.146ZM8.97652 195.045C7.49025 193.14 2.02152 160.308 2.44073 156.669C6.63278 154.497 59.7575 144.226 65.3215 145.065C66.8459 149.257 70.7903 179.535 71.038 183.174C64.2926 185.499 17.5893 193.044 8.97652 195.045ZM9.81493 195.617C11.4155 195.217 65.9313 186.089 70.9237 184.775C73.6485 187.309 85.9579 209.203 86.7582 211.07C75.8207 212.976 10.9392 223.818 1.39271 225.266C1.52609 219.492 7.45214 199.313 9.81493 195.617Z" fill="#999999"/>
<path d="M16.9791 215.376C18.6368 215.128 53.812 210.898 66.5215 207.449C66.5999 207.429 66.667 207.378 66.7081 207.308C66.7492 207.239 66.7609 207.156 66.7407 207.077C66.7205 206.999 66.6699 206.932 66.6003 206.891C66.5306 206.85 66.4474 206.838 66.3691 206.858C63.8729 207.373 33.4234 211.431 16.941 214.785C16.8954 214.777 16.8486 214.779 16.8041 214.792C16.7596 214.804 16.7185 214.827 16.684 214.858C16.6495 214.888 16.6224 214.927 16.6049 214.969C16.5873 215.012 16.5798 215.058 16.5827 215.105C16.5857 215.151 16.5992 215.196 16.6221 215.236C16.645 215.276 16.6767 215.311 16.7149 215.337C16.7531 215.363 16.7967 215.38 16.8425 215.387C16.8883 215.393 16.935 215.39 16.9791 215.376ZM42.684 82.7928C41.9722 84.4004 41.3737 86.0559 40.8928 87.747C40.8645 88.0184 40.9393 88.2905 41.1024 88.5092C43.027 91.4055 62.7487 113.642 67.8935 116.767C68.5985 117.206 69.4369 117.511 69.9514 116.882C73.6888 112.231 78.5662 108.627 84.1091 106.421C88.6206 104.824 93.3506 103.931 98.1334 103.772C101.944 103.429 102.611 103.048 104.079 100.552C105.809 97.2667 108.106 94.3125 110.862 91.8247C114.377 88.7516 118.278 86.1508 122.466 84.0885C122.655 83.9816 122.802 83.8148 122.885 83.6146C122.968 83.4143 122.982 83.1921 122.924 82.9833C122.28 81.3442 121.428 79.7945 120.389 78.3721C121.075 78.1434 121.838 77.9338 121.838 77.2478C121.838 75.3424 105.222 51.2953 100.611 46.7603C100.134 46.2839 99.4482 45.6551 98.8194 45.6932C89.292 46.2267 80.0123 55.2206 74.6389 63.0711C68.4842 62.8425 64.5017 62.2899 57.4896 65.2434C52.5393 67.3446 48.0762 70.4454 44.3799 74.3515C43.8082 74.9422 39.921 79.058 39.8639 79.382C39.8067 79.7059 39.921 79.7059 42.684 82.7928ZM118.903 82.2592C110.957 83.6121 105.889 90.2241 102.154 97.4078C100.496 100.609 100.649 100.761 98.8956 100.723C95.8302 100.55 92.7552 100.664 89.7112 101.066C87.4786 101.4 85.2834 101.949 83.1564 102.705C78.3165 104.42 72.7715 109.908 69.818 113.985C69.7553 114.069 69.6755 114.139 69.584 114.19C69.4924 114.241 69.3911 114.272 69.2868 114.281C69.1824 114.29 69.0773 114.276 68.9784 114.242C68.8795 114.208 68.789 114.153 68.7128 114.081C62.52 107.697 51.5635 96.4931 46.0567 90.0526C45.7899 89.7668 46.2472 89.3476 46.514 89.6525C50.0773 93.4634 59.2807 102.591 69.1511 112.518C72.4857 108.269 77.6305 103.124 82.7181 101.333C85.4924 100.343 88.3792 99.7033 91.3118 99.4276C94.0581 99.219 96.8163 99.219 99.5625 99.4276C100.687 98.1318 106.251 83.4216 118.865 81.7829C118.902 81.81 118.932 81.845 118.954 81.8855C118.975 81.9259 118.987 81.9707 118.989 82.0165C118.991 82.0622 118.983 82.1078 118.964 82.1499C118.946 82.1919 118.919 82.2293 118.884 82.2592H118.903ZM98.8004 47.2366C102.611 49.9043 118.122 72.8652 120.142 76.8858C116.637 77.9963 113.253 79.4582 110.043 81.2493C107.002 82.7735 104.34 84.9567 102.25 87.64C100.16 90.3232 98.6953 93.4388 97.962 96.7599C91.1213 85.6319 81.5748 73.3797 75.2296 64.3668C75.6107 64.1191 86.3195 47.9798 98.8004 47.2366ZM57.9088 66.2914C64.8638 63.4903 68.7128 64.1382 74.4674 64.3859C80.1838 74.1419 90.4544 87.8994 97.2188 96.9123C90.9754 95.435 84.4055 96.3386 78.7928 99.4466C75.4201 101.352 71.3043 105.925 68.77 108.764C65.1115 105.83 43.9988 83.3454 40.607 79.5344C45.828 73.6274 50.6489 69.1877 57.9088 66.2151V66.2914ZM23.0385 114.748C22.5675 114.417 22.0108 114.23 21.4358 114.21C20.8608 114.19 20.2923 114.337 19.7992 114.633C19.4401 114.793 19.1161 115.023 18.8456 115.308C18.5752 115.593 18.3635 115.929 18.2229 116.296C18.0822 116.664 18.0152 117.055 18.0258 117.448C18.0363 117.841 18.1242 118.228 18.2843 118.587C18.4445 118.946 18.6738 119.27 18.9591 119.541C19.2445 119.811 19.5804 120.023 19.9475 120.163C20.3147 120.304 20.7059 120.371 21.099 120.36C21.492 120.35 21.8791 120.262 22.2382 120.102C22.8118 119.977 23.3338 119.68 23.7349 119.251C24.136 118.822 24.3972 118.281 24.484 117.701C24.5708 117.12 24.4791 116.526 24.2209 115.999C23.9627 115.472 23.5504 115.035 23.0385 114.748ZM21.7809 118.559C20.447 118.978 19.6467 118.559 19.3228 117.911C18.7131 116.558 19.4752 114.481 21.4569 115.091C22.8479 115.605 23.9722 117.949 21.7809 118.654V118.559ZM119.932 27.5531C120.485 28.6773 123.057 28.2581 124.181 27.8961C124.772 27.7055 125.153 27.4959 125.21 26.9243C125.382 25.4952 125.572 13.1096 124.924 11.9091C124.858 11.7833 124.755 11.68 124.63 11.6122C124.504 11.5444 124.361 11.5151 124.219 11.528C122.186 11.5224 120.164 11.8178 118.217 12.4046C117.436 12.8809 119.246 26.2955 119.932 27.5531ZM118.617 12.8619C120.377 12.6101 122.158 12.5271 123.934 12.6142C124.048 14.0242 123.743 26.2383 123.724 26.4289C122.919 26.7173 122.059 26.8215 121.209 26.7337C121.075 26.2955 120.847 25.1141 120.561 23.6278C119.721 20.0764 119.073 16.4826 118.617 12.8619ZM21.1902 98.6654C21.373 98.759 21.5755 98.8078 21.7809 98.8078C21.9863 98.8078 22.1888 98.759 22.3716 98.6654C23.1077 98.2113 23.6916 97.5478 24.0484 96.7599C24.0969 96.6338 24.1118 96.4973 24.0918 96.3637C24.0717 96.2301 24.0174 96.104 23.9341 95.9977C23.0194 94.9116 13.0347 83.3454 11.8152 84.0694C10.3179 85.0388 8.89733 86.1217 7.566 87.3087C7.51234 87.3567 7.46936 87.4154 7.43982 87.4811C7.41028 87.5467 7.39484 87.6179 7.39451 87.6898C7.3564 88.6807 18.4463 97.5602 21.1902 98.6654ZM12.0439 84.5649C13.4349 85.5748 18.1224 91.3674 22.4668 96.4931C22.2799 96.7874 22.0485 97.051 21.7809 97.2744C17.2132 94.3509 12.852 91.1167 8.72834 87.5946C9.76209 86.5092 10.8699 85.4968 12.0439 84.5649ZM41.979 42.5301C42.3982 35.1369 46.7046 31.707 51.2015 30.8305C49.9248 35.518 50.1344 41.6155 54.7647 42.3967C56.9751 42.7588 58.0612 41.6155 59.6618 40.2816C66.5025 34.5652 60.9766 28.8488 53.2594 29.249C56.1367 21.3603 62.7868 14.9388 71.6092 14.7292C71.69 14.7292 71.7676 14.6971 71.8247 14.6399C71.8819 14.5828 71.914 14.5052 71.914 14.4244C71.914 14.3435 71.8819 14.266 71.8247 14.2088C71.7676 14.1516 71.69 14.1195 71.6092 14.1195C62.0818 13.9289 54.5932 20.7886 51.6397 29.3633C46.5521 30.2398 41.5026 34.0507 41.3692 42.4158C41.3617 42.4558 41.3622 42.4969 41.3705 42.5368C41.3789 42.5767 41.3951 42.6145 41.4181 42.6481C41.4411 42.6817 41.4705 42.7105 41.5046 42.7327C41.5387 42.755 41.5769 42.7703 41.6169 42.7778C41.657 42.7853 41.6981 42.7849 41.7379 42.7765C41.7778 42.7681 41.8156 42.7519 41.8492 42.7289C41.8829 42.7059 41.9116 42.6765 41.9339 42.6424C41.9561 42.6083 41.9715 42.5701 41.979 42.5301ZM52.8211 30.6018C55.6603 30.4113 59.8905 31.2878 61.0528 33.8602C61.7197 35.3274 61.0528 37.1376 58.69 39.1193C58.0485 39.7619 57.3168 40.3076 56.5178 40.739C53.6596 41.9585 50.4965 38.4333 52.8211 30.6018ZM58.2708 300.093C56.4299 299.6 54.5089 299.48 52.6209 299.74C50.7329 300.001 48.9161 300.636 47.2773 301.609C45.6385 302.582 44.2109 303.873 43.0785 305.406C41.946 306.939 41.1316 308.683 40.6832 310.535C39.8367 314.383 40.5537 318.41 42.6763 321.73C44.799 325.05 48.1534 327.39 52.0018 328.237C55.8501 329.083 59.8771 328.366 63.1969 326.244C66.5166 324.121 68.8572 320.767 69.7037 316.918C70.0653 315.062 70.0559 313.153 69.6761 311.3C69.2963 309.448 68.5536 307.689 67.4908 306.125C66.428 304.561 65.0662 303.223 63.4837 302.187C61.9013 301.152 60.1296 300.44 58.2708 300.093ZM64.1587 315.623C63.3942 318.672 61.5639 321.347 58.9987 323.164C56.4335 324.982 53.3028 325.821 50.1725 325.531C47.299 324.408 44.9136 322.308 43.4358 319.6C41.958 316.892 41.4826 313.75 42.0933 310.726C42.8063 307.602 44.6196 304.84 47.2017 302.944C49.7838 301.047 52.9622 300.144 56.1557 300.398C59.0576 301.597 61.4435 303.781 62.8935 306.566C64.3434 309.351 64.7645 312.558 64.0825 315.623H64.1587Z" fill="#999999"/>
<path d="M83.654 305.526C81.9952 304.953 80.2174 304.816 78.4902 305.125C77.7743 303.484 76.8932 301.92 75.8606 300.457C77.0992 299.333 80.4909 296.208 79.6716 294.741C76.7556 291.253 73.2935 288.26 69.4201 285.88C67.8027 284.974 66.0216 284.398 64.18 284.184C62.9605 284.356 60.0642 289.1 59.4163 290.167C58.9971 290.167 57.5108 289.691 57.3965 289.634C57.3965 288.262 56.9964 283.308 55.7578 282.736C54.3728 282.226 52.9345 281.875 51.4705 281.688C50.1176 281.479 37.9416 283.708 37.046 285.347C36.4553 286.452 37.8272 290.625 38.2274 291.787C37.1997 292.353 36.2128 292.989 35.2739 293.693C33.3684 295.046 33.8829 294.988 33.5399 294.836C33.1254 294.638 32.6812 294.509 32.2251 294.455C30.703 293.562 28.9183 293.226 27.1756 293.502C25.4226 294.074 21.2877 303.487 20.6208 305.907C20.4025 306.517 20.3435 307.173 20.4493 307.812C20.9066 309.07 23.9554 310.08 25.232 310.48C24.8795 312.932 24.8795 315.421 25.232 317.873C23.5552 318.33 20.0682 319.359 20.2587 321.074C20.4493 322.789 24.9081 334.108 26.7564 335.003C27.7689 335.57 28.8886 335.918 30.0436 336.026C31.1987 336.135 32.3636 336 33.4637 335.632C34.0833 335.323 34.6817 334.973 35.2548 334.584C36.017 335.156 36.8173 335.67 37.6367 336.166C37.046 337.633 35.7312 340.91 36.1504 342.397C36.36 343.178 36.9888 343.425 37.8654 343.749C40.2853 344.626 53.3188 347.751 55.3005 347.408C56.0436 347.294 56.4438 346.512 56.6724 345.769C57.0958 344.078 57.3448 342.348 57.4156 340.605C58.3942 340.509 59.3672 340.363 60.331 340.167C60.9195 341.203 61.6725 342.136 62.5604 342.93C63.5322 343.616 64.3515 343.273 65.4567 342.568C65.9902 343.254 66.7905 344.207 67.648 344.302C69.8012 344.55 78.6998 336.166 79.6144 334.451C80.3766 333.022 77.5946 330.468 76.356 329.344C77.6959 327.328 78.7477 325.134 79.481 322.827C80.8554 323.034 82.2462 323.111 83.635 323.056C84.2638 323.056 84.9878 322.827 85.2546 322.237C86.417 319.588 86.074 309.546 85.2546 306.993C85.1403 306.25 84.2828 305.754 83.654 305.526ZM84.1113 307.279C84.7592 309.756 84.9688 319.112 84.0161 321.532C82.3686 321.694 80.7063 321.617 79.0809 321.303C78.9073 321.273 78.729 321.31 78.5809 321.405C78.4328 321.5 78.3256 321.647 78.2806 321.817C77.5217 324.394 76.3436 326.827 74.7935 329.02C74.6831 329.165 74.6334 329.348 74.6547 329.529C74.676 329.71 74.7668 329.876 74.9079 329.992C76.2448 331.051 77.3807 332.342 78.2615 333.803C77.3088 335.365 69.8583 342.187 67.8004 342.759C67.4956 342.759 66.6571 341.615 66.4475 341.31C65.7437 340.253 65.1073 339.152 64.5421 338.014C64.4596 337.848 64.3181 337.719 64.1454 337.652C63.9726 337.585 63.7811 337.585 63.6084 337.652C58.0825 339.729 55.9865 338.509 55.9865 339.881C55.9889 341.935 55.6542 343.976 54.9956 345.922C50.5176 345.435 46.1078 344.451 41.8478 342.987C42.0535 340.953 42.6214 338.972 43.5246 337.137C44.0963 335.861 41.8097 336.223 37.5414 331.878C37.404 331.751 37.2237 331.68 37.0365 331.68C36.8492 331.68 36.6689 331.751 36.5315 331.878C34.626 333.441 32.1489 334.965 31.6535 334.717C30.6817 334.241 26.2038 324.085 25.9371 322.027C27.2923 321.083 28.8309 320.433 30.453 320.122C30.626 320.073 30.7754 319.963 30.8735 319.812C30.9716 319.661 31.0118 319.48 30.9866 319.302C30.5196 316.604 30.5196 313.845 30.9866 311.147C31.0157 310.981 30.9808 310.81 30.8888 310.668C30.7969 310.527 30.6548 310.425 30.4911 310.385C29.0547 310.008 27.6717 309.451 26.3753 308.727C25.9561 308.422 25.9942 308.441 26.0323 308.117C27.2657 303.669 29.2436 299.462 31.8821 295.674C32.9111 295.388 35.6931 297.427 36.6458 298.151C36.7454 298.248 36.8787 298.302 37.0174 298.302C37.1561 298.302 37.2894 298.248 37.389 298.151C38.2645 297.243 39.2072 296.403 40.2091 295.636C43.1054 293.445 43.8867 293.731 43.639 292.969C42.763 291.057 42.271 288.991 42.1908 286.89C42.4861 286.644 42.8212 286.451 43.1816 286.318C44.9606 285.615 46.7883 285.042 48.6504 284.603C50.9074 283.974 53.2272 283.597 55.5673 283.479C55.9674 283.651 56.3294 285.385 56.4247 285.918C57.1297 289.729 56.6534 290.51 57.206 290.568C62.6366 291.101 63.7418 292.606 64.1229 291.94C65.1795 290.092 66.411 288.35 67.8004 286.738C68.2006 286.337 68.1815 286.147 69.382 286.833C72.9683 289.176 76.1803 292.048 78.9094 295.35C79.1952 295.846 76.7181 298.475 74.9079 300.019C74.2791 300.571 75.1746 300.819 76.8133 303.944C78.4521 307.069 78.071 307.946 78.9475 307.755C80.6372 307.351 82.3761 307.19 84.1113 307.279ZM348.573 148.057C344.578 146.426 340.39 145.318 336.111 144.761C332.986 144.265 329.308 143.77 326.202 143.37C329.194 139.14 338.055 128.431 339.541 125.82C339.96 125.115 339.16 124.125 338.569 123.534C335.254 119.99 328.851 118.656 323.935 117.894C321.115 117.436 309.339 115.988 307.338 116.941C304.937 118.084 287.178 144.761 286.645 148.819C286.645 149.505 286.873 149.772 287.54 150.02C290.341 151.049 302.975 152.649 305.795 153.316C301.984 159.986 285.044 182.527 283.386 185.709C282.986 186.51 283.234 186.986 283.71 187.139C285.425 187.819 287.19 188.367 288.988 188.777C289.674 188.987 291.18 188.053 293.371 186.719C303.203 180.812 345.391 152.954 348.63 149.353C348.719 149.268 348.79 149.166 348.836 149.052C348.882 148.938 348.903 148.815 348.898 148.692C348.892 148.569 348.86 148.449 348.804 148.339C348.748 148.23 348.669 148.134 348.573 148.057ZM307.624 170.923C291.427 181.613 285.959 184.738 285.768 184.871C288.379 180.889 304.594 158.671 307.376 153.354C307.425 153.252 307.45 153.14 307.449 153.026C307.449 152.913 307.423 152.801 307.374 152.698C307.324 152.596 307.253 152.506 307.164 152.435C307.076 152.364 306.972 152.313 306.862 152.287C304.956 151.601 291.085 150.115 287.807 148.953C288.226 145.409 305.528 118.618 307.624 117.551C309.72 116.484 330.052 118.904 333.862 121.628C331.862 125.535 320.81 139.216 319.019 142.398C318.657 143.046 318.542 143.675 319.247 143.846C319.952 144.018 337.864 146.114 341.77 147.39C337.007 151.373 312.959 167.341 307.624 170.847V170.923Z" fill="#999999"/>
<path fill-rule="evenodd" clip-rule="evenodd" d="M124.363 258.328L124.553 259.071C125.449 262.463 127.297 269.437 128.25 273L128.44 273.762L128.841 275.229C128.885 275.402 128.991 275.553 129.138 275.655C129.285 275.756 129.463 275.801 129.641 275.782L142.732 274.258C146.055 266.679 151.942 255.498 152.906 253.667C152.987 253.514 153.033 253.426 153.04 253.412C152.977 251.35 152.998 249.507 153.019 247.631C153.029 246.681 153.04 245.722 153.04 244.723C145.552 247.505 131.699 252.783 124.458 256.156C124.294 256.261 124.168 256.415 124.096 256.596C124.024 256.777 124.011 256.976 124.058 257.165C124.058 257.165 124.191 257.642 124.363 258.328Z" fill="#16A34A"/>
<path fill-rule="evenodd" clip-rule="evenodd" d="M128.448 273.781C125.142 274.432 121.887 275.324 118.711 276.449C118.702 276.534 118.711 276.572 118.723 276.62C118.735 276.668 118.749 276.725 118.749 276.849C118.27 281.706 117.109 286.472 115.3 291.006C113.738 294.017 111.451 294.36 110.365 291.216C108.269 285.214 106.954 264.787 107.107 262.158C107.067 261.478 107.262 260.805 107.659 260.252C109.888 258.14 118.256 258.263 122.706 258.329C123.354 258.338 123.92 258.347 124.37 258.347L124.561 259.09C123.053 259.136 121.935 259.164 121.044 259.187C118.985 259.24 118.142 259.262 116.52 259.395C116.713 264.743 117.318 270.069 118.33 275.324C121.577 274.31 124.896 273.539 128.258 273.019L128.448 273.781Z" fill="#999999"/>
<path fill-rule="evenodd" clip-rule="evenodd" d="M294.086 92.6082C294.563 91.9413 293.953 91.0838 293.439 90.4169C294.896 88.9179 296.512 87.5825 298.259 86.4345C301.208 84.9653 303.903 83.0356 306.243 80.7181C307.215 79.7082 309.044 77.6312 308.358 76.4117C307.672 75.1922 306.453 75.116 304.795 75.821C305.513 75.0669 306.1 74.1973 306.529 73.2486C307.063 71.7623 305.805 70.5619 303.08 71.6671C304.071 70.0855 304.3 68.4278 302.623 67.6275C301.27 66.9796 299.288 68.523 298.145 69.5329C295.9 71.4945 293.793 73.6082 291.838 75.8591C290.637 73.3439 288.732 70.4476 286.35 71.3622C283.968 72.2768 285.817 76.3736 287.036 78.603L282.711 81.5946C282.057 81.2417 281.318 81.0768 280.577 81.1182C277.829 81.5869 269.561 87.1639 262.404 91.9919C256.758 95.8011 251.802 99.144 250.794 99.144C250.324 99.144 248.176 98.2796 244.868 96.9476C235.847 93.316 218.194 86.2089 202.357 83.6715C202.315 83.5417 202.237 83.4263 202.133 83.3387C202.028 83.251 201.901 83.1947 201.766 83.1761C197.99 82.5319 194.163 82.2448 190.333 82.3187C190.217 82.3265 190.104 82.3595 190.002 82.4154C189.9 82.4714 189.811 82.5489 189.742 82.6426H188.142C187.855 81.4824 186.987 79.1811 186.364 77.527C186.158 76.9805 185.978 76.5047 185.855 76.164C186.28 75.7959 186.757 75.487 187.24 75.1745C188.232 74.5326 189.248 73.8754 189.876 72.6579C191.591 69.3043 191.514 63.4735 191.038 59.7388L189.952 60.52C190.257 63.8737 190.2 69.3233 188.599 72.2959C188.108 73.2211 187.185 73.8039 186.246 74.3974C185.618 74.794 184.983 75.1953 184.464 75.7067C184.15 76.005 184.263 76.4069 184.387 76.8484C184.414 76.9426 184.441 77.0386 184.464 77.1358C184.683 77.7461 184.88 78.2929 185.057 78.7837C186.586 83.0281 186.606 83.0836 186.503 83.7668L188.161 83.2905L189.647 83.4238C189.761 83.6334 191.076 86.4345 193.077 91.3316L194.43 94.5137C199.973 108.508 204.6 122.849 208.283 137.444L209.293 141.96C211.331 150.897 212.951 159.681 214.19 168.408L217.353 183.976C216.418 173.368 214.892 162.82 212.78 152.383C213.341 147.63 212.787 122.519 212.468 108.045L212.468 108.042C212.418 105.807 212.375 103.825 212.341 102.212C212.334 102.072 212.287 101.936 212.206 101.822C212.125 101.707 212.014 101.618 211.884 101.564L203.328 97.9626C203.29 93.4344 203.003 88.9117 202.471 84.4147C217.663 87.0438 234.638 93.9813 243.923 97.7758C247.692 99.3165 250.194 100.339 250.794 100.344C252.232 100.344 258.084 96.4337 264.311 92.2725C271.124 87.7199 278.386 82.8676 280.805 82.5092C282.863 82.1853 291.705 89.9025 292.734 92.0366C283.702 104.651 267.829 121.228 260.474 126.964C258.104 128.548 255.369 129.499 252.528 129.727C245.689 130.678 238.145 129.751 234.368 129.287C233.377 129.166 232.646 129.076 232.254 129.06C231.205 123.98 229.116 119.173 226.118 114.94C226.072 114.879 226.005 114.837 225.929 114.822C225.854 114.808 225.776 114.823 225.711 114.864C225.646 114.905 225.599 114.969 225.579 115.043C225.559 115.117 225.568 115.196 225.604 115.264C226.565 117.221 229.488 124.817 230.834 128.314L230.838 128.324C231.037 128.842 231.202 129.269 231.32 129.574C231.243 129.82 231.827 132.644 232.673 136.742C234.985 147.929 239.258 168.612 237.417 172.238C236.408 174.247 233.216 176.491 229.576 178.5L229.891 180.069C233.93 177.878 237.627 175.306 238.828 172.943C240.92 168.836 236.811 148.849 234.404 137.141C233.851 134.454 233.389 132.202 233.111 130.68L233.5 130.722C241.683 131.625 255.202 133.115 261.56 128.145C268.953 122.2 284.921 105.47 294.086 92.6082ZM203.881 161.853C204.376 164.807 204.777 167.646 205.101 170.275L204.968 187.423L204.967 187.425C204.958 187.44 204.95 187.455 204.942 187.469C204.924 187.503 204.909 187.53 204.897 187.529C204.853 187.524 204.853 187.114 204.853 185.157C204.401 175.207 203.227 165.304 201.338 155.524L203.881 161.853ZM147.193 192.855C148.804 193.802 152.162 194.33 156.49 194.528L156.397 195.923C153.176 195.752 145.535 195.294 145.097 192.112C144.306 186.271 147.289 160.333 148.834 146.893C149.149 144.156 149.404 141.937 149.556 140.512C147.06 143.16 114.247 176.278 111.103 176.278C109.319 175.872 107.638 175.1 106.168 174.01L105.33 173.648C102.509 171.706 99.834 169.56 97.3267 167.227L96.6026 166.674C95.7395 165.899 94.9891 165.008 94.3732 164.025C94.3248 163.87 94.3248 163.704 94.3732 163.549C94.8114 160.843 137.78 101.678 152.909 92.7035C153.996 92.0556 155.901 91.0457 157.921 89.9787C157.966 89.7852 158.081 89.6154 158.245 89.5023C160.328 88.3267 162.486 87.2892 164.704 86.3964L166.4 85.4817C166.334 85.0545 166.249 84.5016 166.15 83.8616L166.149 83.8584C165.794 81.5586 165.266 78.135 164.819 75.3637L166.166 75.2303C166.851 79.3589 167.64 84.5941 167.848 85.9772L169.582 88.1494C174.118 92.4459 178.216 97.182 181.816 102.288L182.89 103.871L182.883 103.889H182.902L183.087 104.18C184.06 105.711 185.069 107.299 185.893 108.786L188.86 117.5C187.464 114.529 185.979 111.597 184.407 108.709C179.619 100.415 173.628 92.8766 166.629 86.3392L159.007 90.1502C163.694 94.6471 171.755 101.221 176.766 105.032C176.858 105.114 176.921 105.222 176.949 105.341C176.976 105.461 176.965 105.586 176.919 105.699L173.374 113.054L200.546 151.487L201.316 155.47C201.206 155.471 201.095 155.311 193.686 144.66L193.685 144.659L193.684 144.657L193.681 144.653C189.385 138.479 182.639 128.781 172.021 113.549C171.966 113.454 171.937 113.345 171.937 113.235C171.937 113.125 171.966 113.016 172.021 112.921L175.661 105.699C170.992 101.774 164.838 96.5525 160.417 92.3605C159.625 91.8337 158.88 91.2409 158.188 90.5884C156.187 91.6555 154.358 92.6654 153.291 93.3132C139.381 101.754 99.175 156.937 95.8595 163.644C97.5744 166.293 108.112 174.696 110.913 174.906C112.771 174.194 123.099 164.411 126.125 161.544C126.419 161.266 126.644 161.053 126.785 160.919C142.281 146.081 147.186 140.714 148.961 138.773C149.743 137.917 149.917 137.727 150.121 137.685C150.179 137.673 150.24 137.673 150.318 137.673C150.42 137.67 150.521 137.688 150.616 137.725C150.71 137.762 150.797 137.818 150.869 137.889C150.942 137.96 151 138.045 151.039 138.139C151.079 138.232 151.099 138.333 151.099 138.435C151.126 138.921 150.687 142.734 150.064 148.141C148.466 162.02 145.658 186.403 146.412 191.998C146.469 192.341 146.774 192.588 147.193 192.855ZM187.816 47.5644C187.927 47.7438 188.151 48.1071 188.523 48.9729L187.799 49.354C187.627 48.9348 187.437 48.5346 187.227 48.1345L187.731 47.3809C187.729 47.4217 187.755 47.4645 187.816 47.5644ZM182.816 60.1804C182.328 59.3041 181.891 58.5203 181.187 56.9377L182.14 56.6138C183.302 57.9667 186.255 62.4827 185.722 63.6831C185.505 64.1056 185.138 64.4318 184.693 64.5978C183.949 64.9136 183.168 65.1313 182.368 65.2456C182.29 65.2581 182.211 65.2417 182.144 65.1996C182.077 65.1576 182.028 65.0926 182.006 65.017C181.962 64.7939 182.041 64.7536 182.386 64.5789C182.63 64.4552 183.008 64.264 183.569 63.8927C183.828 63.7197 184.135 63.4681 184.346 63.2949L184.407 63.2449C183.699 61.7678 183.238 60.9394 182.816 60.1804ZM287.894 79.1365C287.992 79.0736 288.063 78.9754 288.091 78.862C288.12 78.7486 288.103 78.6286 288.046 78.5268C287.379 77.2882 285.378 72.9247 286.769 72.4293C287.57 72.1244 288.275 72.6198 288.865 73.2867C289.767 74.431 290.47 75.7195 290.942 77.0977C290.978 77.2097 291.043 77.3101 291.131 77.388C291.219 77.4659 291.326 77.5184 291.442 77.5399C291.557 77.5615 291.676 77.5512 291.786 77.5102C291.896 77.4692 291.993 77.3991 292.067 77.3073C293.972 75.1922 298.431 70.3713 300.946 69.0756C302.852 68.0848 303.309 69.914 298.64 74.1823C297.568 74.9999 296.538 75.8712 295.554 76.7928C295.499 76.8676 295.47 76.9576 295.47 77.05C295.47 77.1424 295.499 77.2325 295.554 77.3073C295.554 77.8027 295.954 78.3553 296.64 77.8408C298.296 76.3868 300.047 75.0437 301.88 73.8203C302.816 73.1555 303.903 72.7362 305.043 72.6007C304.596 73.9699 301.256 77.1755 299.596 78.768C299.131 79.2145 298.798 79.5342 298.698 79.651C298.553 79.781 298.464 79.9628 298.452 80.1571C298.44 80.3515 298.504 80.5429 298.632 80.6903C298.759 80.8376 298.939 80.9291 299.133 80.945C299.327 80.9608 299.52 80.8999 299.669 80.7752C300.221 80.4177 300.879 79.9358 301.575 79.4272C303.547 77.9844 305.814 76.3263 306.758 76.6785C308.035 77.1548 304.243 80.699 303.29 81.5374C300.917 83.5959 299.839 84.1874 298.863 84.7234C297.588 85.4228 296.487 86.0275 292.905 89.6738C290.151 86.6573 286.989 84.0405 283.511 81.8995L287.894 79.1365ZM212.227 149.83C207.883 129.003 200.242 103.031 191.553 83.7859C194.744 83.7877 197.929 84.0425 201.08 84.5481C201.978 92.5782 201.962 96.0032 201.955 97.5587C201.949 98.8083 201.949 98.8512 202.433 99.1059C203.337 99.5818 208.019 101.484 210.123 102.339C210.545 102.511 210.864 102.64 211.027 102.707C210.981 103.408 211.27 113.35 211.579 123.947L211.579 123.955L211.579 123.956C211.916 135.538 212.276 147.899 212.246 149.83H212.227Z" fill="#999999"/>
<path fill-rule="evenodd" clip-rule="evenodd" d="M106.168 174.01L105.33 173.648C104.461 174.218 103.633 174.848 102.852 175.534C102.387 175.988 102.622 177.102 102.89 178.371C103.039 179.077 103.198 179.831 103.253 180.546C103.253 180.717 103.253 181.46 103.138 181.518C102.097 181.858 101.132 180.301 100.54 179.346L100.528 179.326C100.449 179.199 100.37 179.065 100.29 178.93C99.7728 178.056 99.2214 177.124 98.4127 177.421C97.481 177.859 95.9478 179.486 94.4215 181.106C92.8263 182.798 91.2386 184.483 90.3526 184.795C89.6116 183.377 93.0785 179.74 94.2719 178.488C94.4902 178.259 94.6324 178.11 94.6589 178.069C94.7325 177.946 94.771 177.806 94.7703 177.663C94.7696 177.52 94.7298 177.38 94.6552 177.258C94.5805 177.137 94.4739 177.038 94.3469 176.972C94.2199 176.907 94.0774 176.877 93.9349 176.887C93.6667 176.887 93.4684 177.074 93.1397 177.383C93.048 177.469 92.9461 177.565 92.8297 177.669C91.2069 179.252 89.3494 180.576 87.3228 181.594C89.1603 179.486 91.1267 177.494 93.2108 175.63C93.3137 175.524 93.3861 175.392 93.4204 175.249C93.4204 175.249 93.0202 174.239 92.239 174.639C91.9636 174.791 91.4233 175.098 90.7409 175.485C88.6844 176.653 85.3378 178.554 84.0645 179.155C83.8596 179.018 83.9454 178.82 84.034 178.616C84.0443 178.593 84.0546 178.569 84.0645 178.545C86.5462 175.5 91.7755 171.854 95.4124 169.318L95.4207 169.312C95.7181 169.104 96.0049 168.904 96.2786 168.713C96.7035 168.275 97.0572 167.774 97.3266 167.227C97.0852 167.065 96.6025 166.727 96.6025 166.674C96.3366 167.159 96.017 167.613 95.6498 168.027L95.41 168.184C91.6026 170.677 86.0587 174.308 83.0546 177.554C82.8394 177.746 82.678 177.991 82.5862 178.264C82.4945 178.537 82.4756 178.83 82.5313 179.112C82.5871 179.395 82.7157 179.659 82.9044 179.877C83.093 180.095 83.3353 180.26 83.6072 180.355C84.1733 180.544 84.2722 180.49 87.884 178.508L87.9898 178.45C86.9686 179.346 86.1334 180.433 85.5317 181.651C85.284 182.699 86.2367 183.309 87.4372 183.118C88.1126 182.941 88.7557 182.658 89.3426 182.28C88.999 182.81 88.8161 183.429 88.8161 184.061C88.8161 184.694 88.999 185.312 89.3426 185.843C90.6364 187.473 93.3532 184.509 95.7873 181.854C96.9382 180.598 98.0259 179.411 98.87 178.812C99.0733 179.07 99.2905 179.393 99.5247 179.742C100.52 181.225 101.825 183.168 103.691 182.489C105.037 181.989 104.485 179.832 104.038 178.086C103.821 177.237 103.629 176.485 103.691 176.068C104.466 175.324 105.294 174.636 106.168 174.01ZM187.816 47.5644C187.927 47.7438 188.151 48.1071 188.523 48.9729L187.799 49.354C187.627 48.9348 187.437 48.5346 187.227 48.1345L187.731 47.3809C187.728 47.4217 187.755 47.4645 187.816 47.5644Z" fill="#999999"/>
<path fill-rule="evenodd" clip-rule="evenodd" d="M229.969 179.962L229.578 178.435C225.125 180.885 220.021 182.981 217.431 183.868L214.268 168.301L205.179 170.168L205.021 187.362C205.028 187.348 205.036 187.332 205.045 187.317C205.16 187.127 205.045 187.451 205.045 187.451C201.414 191.412 172.343 195.161 156.475 194.417V195.816C155.887 209.649 155.418 227.792 155.1 240.048C154.893 248.05 154.751 253.542 154.684 253.685L154.047 255.056C149.515 264.824 148.189 267.681 146.566 270.834C145.611 272.662 143.707 276.011 141.49 279.912C136.541 288.619 130.03 300.073 129.017 303.494C128.807 304.275 128.788 304.58 129.608 306.028L129.893 306.791C132.476 310.731 139.421 317.099 139.421 317.099L140.183 317.557C140.183 317.557 141.426 318.343 142.088 318.662C142.736 318.948 143.46 318.452 143.994 318.014C150.339 313.021 184.562 270.377 191.898 250.255C195.232 241.071 199.672 228.38 200.93 219.387C201.698 213.7 201.769 207.941 201.139 202.237C201.139 202.156 201.171 202.079 201.229 202.022C201.286 201.965 201.363 201.932 201.444 201.932C201.525 201.932 201.602 201.965 201.66 202.022C201.717 202.079 201.749 202.156 201.749 202.237C202.703 207.973 202.889 213.811 202.302 219.596C200.891 232.077 191.04 258.087 185.781 267.652C190.316 266.814 199.539 264.984 203.997 263.651C218.86 259.135 232.58 245.663 233.78 230.534C234.168 223.406 234.168 216.263 233.78 209.135C233.651 199.295 232.372 189.505 229.969 179.962Z" fill="#16A34A"/>
<path fill-rule="evenodd" clip-rule="evenodd" d="M183.749 92.8905C182.198 92.1192 176.967 89.5174 167.895 85.9875L169.629 88.1597L183.977 94.3906L184.205 93.114L185.768 94.181C186.187 92.5233 188.074 84.9967 188.207 83.3008L186.549 83.7771C185.988 86.9406 185.205 90.0606 184.205 93.114C184.141 93.0858 183.989 93.0102 183.749 92.8905ZM192.59 97.992L192.418 99.4973C192.694 99.5999 192.982 99.664 193.276 99.6878C193.459 99.6899 193.638 99.6255 193.778 99.5064C193.918 99.3874 194.01 99.2217 194.038 99.04C194.19 98.4112 194.438 95.229 194.476 94.524L193.123 91.3419C193.123 91.5515 192.761 96.3152 192.59 97.992ZM183.348 102.565L181.881 102.298L182.929 103.899C183.062 103.556 183.196 103.099 183.348 102.565Z" fill="#999999"/>
<path fill-rule="evenodd" clip-rule="evenodd" d="M184.205 93.114L183.977 94.3906C183.656 95.1544 183.251 96.8314 182.823 98.6071C182.514 99.8881 182.192 101.22 181.881 102.298L181.883 102.302L183.348 102.565L184.625 103.232C184.811 103.354 184.93 103.35 185.016 103.346C185.053 103.345 185.083 103.344 185.11 103.353C185.243 103.399 185.288 103.697 185.558 105.454C185.602 105.745 185.653 106.076 185.711 106.452C185.711 106.823 185.763 107.215 185.819 107.627C185.869 108 185.921 108.389 185.939 108.796L188.773 117.227C193.944 128.178 197.909 139.669 200.593 151.498L201.363 155.48L201.374 155.48L203.927 161.863L204.747 160.777C208.557 155.88 209.701 148.087 209.339 141.97L208.329 137.454C202.435 124.915 200.264 121.228 199.066 119.193C198.076 117.511 197.75 116.957 196.534 113.464H196.515C195.508 110.716 194.623 107.796 193.906 105.43C193.266 103.317 192.76 101.645 192.418 100.926C192.461 100.451 192.461 99.9727 192.418 99.4973L192.59 97.992C190.158 97.028 187.864 95.7465 185.768 94.181L184.205 93.114Z" fill="#999999"/>
<path fill-rule="evenodd" clip-rule="evenodd" d="M189.982 60.5322C189.408 60.805 188.784 60.9591 188.149 60.9852C187.514 61.0114 186.88 60.9092 186.285 60.6847C184.288 59.8708 183.888 58.267 183.378 56.2218L183.332 56.0353C183.206 56.1015 183.066 56.1848 182.927 56.2677C182.625 56.4476 182.326 56.626 182.17 56.626L181.217 56.9499C181.186 56.9591 181.119 56.9818 181.024 57.0136C180.525 57.1807 179.28 57.5978 178.816 57.5978C179.113 58.9279 179.113 60.3073 178.816 61.6374C177.615 65.6008 171.194 66.5916 169.003 63.1999C168.431 62.3043 166.583 56.8547 167.231 56.1496C167.974 55.1397 174.128 53.2914 175.843 53.0247C176.141 52.9334 176.46 52.9334 176.758 53.0247C177.749 53.5391 178.378 55.3874 178.663 56.3783C180.077 55.6095 181.621 55.1119 183.218 54.9111C183.103 54.3966 182.627 52.2244 182.951 51.8242C184.429 50.7402 186.078 49.9095 187.829 49.3662L188.553 48.9851C189.487 48.6421 190.573 48.2991 191.087 48.6421C192.002 49.2518 192.593 51.7099 192.783 52.796C193.278 55.4827 193.221 58.1123 191.068 59.751L189.982 60.5322ZM191.335 56.7975C191.669 54.4365 191.318 52.0293 190.325 49.8616C189.448 50.0712 183.961 51.405 183.446 52.0719C183.892 54.1447 184.576 56.1589 185.485 58.0742C185.876 58.5558 186.394 58.9194 186.98 59.1244C187.565 59.3295 188.196 59.368 188.803 59.2357C189.409 59.1034 189.967 58.8054 190.414 58.3749C190.861 57.9445 191.18 57.3984 191.335 56.7975ZM171.899 63.5429C173.957 64.1145 176.834 63.2189 177.444 61.142V61.0467C177.821 58.6936 177.37 56.2825 176.167 54.2251C175.31 54.3585 168.431 55.7685 167.802 56.4545C167.966 57.4919 168.28 58.4998 168.736 59.4461C168.857 59.7545 168.965 60.0408 169.065 60.3068C169.771 62.1768 170.097 63.0424 171.899 63.5429Z" fill="#999999"/>
<path fill-rule="evenodd" clip-rule="evenodd" d="M164.563 75.3085C164.704 75.3874 164.86 75.4331 165.021 75.4418L166.358 75.2526C165.981 72.9778 165.636 71.0474 165.44 70.2971C165.478 69.5539 165.383 69.3824 164.278 68.887V68.9823C163.581 68.6654 162.869 68.3855 162.143 68.1439C161.656 67.9437 161.222 67.6346 160.872 67.2404C160.523 66.8462 160.269 66.3772 160.129 65.8695C159.99 65.3618 159.968 64.8289 160.066 64.3115C160.164 63.7941 160.379 63.3061 160.695 62.8848C161.896 61.8749 162.982 61.932 163.973 63.4374C164.12 63.7088 164.231 63.9221 164.319 64.091C164.609 64.6452 164.649 64.7217 164.868 64.8093C164.95 64.8454 165.039 64.8636 165.129 64.8627C165.218 64.8617 165.307 64.8416 165.388 64.8037C165.469 64.7658 165.541 64.711 165.599 64.643C165.658 64.5749 165.701 64.4952 165.726 64.4091C166.008 63.2164 166.053 61.9799 165.859 60.7697C165.63 59.4549 165.592 53.6242 165.63 53.4336C166.187 53.727 166.812 53.8652 167.441 53.8338C170.241 53.7255 171.22 52.537 172.223 51.3186C172.456 51.0364 172.689 50.7525 172.947 50.4801C173.449 50.5285 173.824 50.6381 174.159 50.7361C174.882 50.9473 175.421 51.1048 176.644 50.4801C177.483 50.003 178.252 49.4132 178.931 48.7271C179.478 48.9513 180.007 49.2189 180.512 49.5274C181.654 50.0766 182.942 50.2452 184.187 50.0086C185.432 49.772 186.568 49.1425 187.429 48.2126L187.933 47.459C187.935 47.4285 187.954 47.399 187.986 47.3476C188.027 47.2817 188.091 47.1797 188.172 46.9931C188.349 46.5892 188.452 46.1568 188.477 45.7164C189.487 46.0213 191.583 44.0015 190.859 41.3339C190.48 40.3789 190.014 39.4605 189.468 38.59C189.488 38.5418 189.509 38.493 189.531 38.4427C189.807 37.8172 190.173 36.9839 188.515 34.779C187.744 33.9469 186.742 33.3632 185.638 33.1022H184.761C184.129 32.1843 183.201 31.5115 182.132 31.1967C180.518 30.7852 178.807 31.0248 177.368 31.8637C177.188 31.9989 177.025 32.1555 176.862 32.3112C176.681 32.4846 176.502 32.6568 176.301 32.7973C175.44 32.2742 174.451 31.9975 173.443 31.9975C172.435 31.9975 171.446 32.2742 170.585 32.7973C170.08 32.9953 169.621 33.2931 169.235 33.6729C168.848 34.0527 168.543 34.5068 168.336 35.0077C167.403 34.6856 166.412 34.5615 165.428 34.6436C164.444 34.7256 163.487 35.0118 162.62 35.4841C159.328 37.269 156.866 40.2716 155.76 43.8491C155.729 44.3885 155.729 44.9293 155.76 45.4687H155.55C152.692 45.0495 149.053 51.833 151.968 57.1112C152.172 57.4855 152.41 57.8462 152.658 58.2216C152.826 58.4769 152.999 58.739 153.169 59.0167C153.548 59.6089 153.763 60.0722 153.961 60.4994C154.401 61.4468 154.759 62.2163 156.637 63.8184C157.089 64.2065 157.329 64.3567 157.541 64.4899C157.704 64.5922 157.851 64.6844 158.066 64.8665C158.094 64.8901 158.119 64.9118 158.143 64.9318C158.288 65.0534 158.36 65.1136 158.405 65.1895C158.45 65.2638 158.469 65.3532 158.508 65.5302C158.539 65.669 158.581 65.8616 158.656 66.1431C158.812 66.7717 159.091 67.3632 159.477 67.8832C159.863 68.4033 160.348 68.8416 160.905 69.1728C161.107 71.0366 161.902 72.7864 163.172 74.1652C163.575 74.6153 164.044 75.0009 164.563 75.3085Z" fill="#16A34A"/>
<path fill-rule="evenodd" clip-rule="evenodd" d="M139.446 317.528L138.684 317.071C138.684 317.071 136.658 319.351 135.75 320.577C132.32 318.5 127.518 313.565 126.794 309.697C127.107 309.3 127.425 308.916 127.744 308.532C128.222 307.956 128.7 307.38 129.157 306.762L128.871 306C126.416 308.581 124.137 311.325 122.049 314.213C121.001 316.118 125.498 333.877 128.681 340.165C129.405 341.575 130.586 343.747 132.168 343.69C136.931 343.519 136.912 326.408 136.779 321.625C136.778 321.477 136.724 321.335 136.626 321.225C137.49 319.936 139.446 317.528 139.446 317.528Z" fill="#999999"/>
<path d="M181.281 69.9314C182.52 70.2934 183.701 69.7027 183.663 69.3978C183.625 69.093 183.663 69.2454 181.986 68.6166C180.862 68.1974 179.623 66.7111 179.185 66.9398C178.747 67.1684 179.414 68.3879 179.566 68.6166C179.974 69.2351 180.578 69.6982 181.281 69.9314Z" fill="#999999"/>
<path d="M175.45 57.3181C175.427 57.1929 175.378 57.0737 175.309 56.9672C175.239 56.8607 175.149 56.769 175.043 56.6974C174.938 56.6257 174.82 56.5755 174.695 56.5496C174.57 56.5237 174.442 56.5226 174.317 56.5463C174.191 56.5701 174.072 56.6183 173.966 56.6881C173.859 56.758 173.768 56.8481 173.696 56.9534C173.624 57.0587 173.574 57.177 173.548 57.3017C173.522 57.4264 173.521 57.555 173.545 57.6801C173.926 59.5856 174.002 60.0238 174.841 60.0238C174.999 60.0244 175.155 59.9854 175.295 59.9104C175.434 59.8354 175.553 59.7268 175.64 59.5943C175.727 59.4619 175.78 59.3098 175.793 59.1519C175.807 58.994 175.781 58.8352 175.717 58.69C175.66 58.3851 175.488 57.4896 175.45 57.3181Z" fill="#999999"/>
<path d="M185.282 54.4217C185.282 54.5932 185.396 54.8028 185.682 55.908C185.757 56.1477 185.922 56.3491 186.142 56.4699C186.363 56.5907 186.621 56.6215 186.864 56.5558C187.106 56.4851 187.311 56.3209 187.432 56.0993C187.554 55.8778 187.582 55.617 187.511 55.3745C187.321 54.6313 187.149 54.0025 187.035 53.6976C186.924 53.4884 186.739 53.328 186.516 53.2478C186.293 53.1675 186.049 53.1731 185.83 53.2636C185.611 53.354 185.433 53.5227 185.332 53.7368C185.231 53.951 185.213 54.1951 185.282 54.4217Z" fill="#999999"/>
</svg>

