<svg viewBox="0 0 400 400" xmlns="http://www.w3.org/2000/svg" id="Listening-Music-1--Streamline-Brooklyn.svg" height="400" width="400"><desc>Listening Music 1 Streamline Illustration: https://streamlinehq.com</desc><path d="M254.376 120.754c-2.338 4.382 6.096 9.712 11.308 1.164a0.886 0.886 0 0 0 -1.4 -1.094 11.038 11.038 0 0 1 -4.958 2.894 2.844 2.844 0 0 1 -2.858 -1.464 2.8 2.8 0 0 1 -0.458 -1.13 0.84 0.84 0 0 0 -1.634 -0.37Z" fill="#999999" stroke-width="1"></path><path d="M253.376 111.6a5.504 5.504 0 0 1 0.036 -4.146c0.698 -1.296 2.354 -1.704 3.458 -2.152a53.43 53.43 0 0 1 8.892 -2.452 0.84 0.84 0 0 1 0.494 1.6c-2.562 0.962 -6.214 2.216 -8.346 3.248a8.776 8.776 0 0 0 -2.116 0.988c-0.366 0.692 0.166 2.138 0.422 2.858 0.632 1.628 -1.33 1.28 -4.586 6.51a31.362 31.362 0 0 0 -3.864 9.386c-1.27 6.562 3.132 8.838 1.834 10.4 -1.978 2.456 -4.17 5.216 -7.056 8.576a1.086 1.086 0 0 1 -1 0.352 17.502 17.502 0 0 0 -4.516 -0.3 0.87 0.87 0 0 1 -0.918 -0.83 0.862 0.862 0 0 1 0.812 -0.934 23.438 23.438 0 0 1 4.358 -0.07l5.768 -7.676c-2.48 -4.2 -3.056 -7.974 -0.882 -13.832a29.882 29.882 0 0 1 7.21 -11.526Z" fill="#999999" stroke-width="1"></path><path d="M273.508 105.228a5 5 0 0 1 4.588 1.182c0.668 0.6 0.908 1.282 1.658 0.952 1.062 -0.448 0.254 -2.054 -0.318 -2.91a5.966 5.966 0 0 0 -6.844 -1.694c-0.732 0.4 -1.976 1.672 -1.36 2.4 0.352 0.46 0.536 0.36 2.276 0.07Z" fill="#999999" stroke-width="1"></path><path d="M270.338 111.738a12.784 12.784 0 0 0 1.976 0.37c1.034 0.138 1.6 0.262 1.94 -0.316 0.378 -0.618 -0.138 -1.168 -0.882 -1.854a4.772 4.772 0 0 0 -3.016 -0.846c-0.25 0.05 -1.536 0.6 -1.536 1.252 -0.02 0.692 1.088 1.256 1.518 1.394Z" fill="#999999" stroke-width="1"></path><path d="M246.38 114.536c-2.212 -3.314 -6.584 -2.704 -10.022 -0.722 -5.97 3.43 -9.638 10.896 -12.544 16.212 -1.702 3.284 2.4 6.02 4.366 3.7 2.73 -3.216 4.82 -5.834 8 -9.4a12.214 12.214 0 0 1 1 -1.046c5.1 2.32 12.89 -3.028 9.2 -8.744ZM226.338 132.4a0.304 0.304 0 0 1 -0.09 0.036 0.846 0.846 0 0 1 -0.388 -1.13c0.526 0.008 1.05 0.494 0.478 1.094Zm1.524 -2.172a2.962 2.962 0 0 0 -1.014 -0.616c0.354 -0.6 0.708 -1.186 1.074 -1.8a6.316 6.316 0 0 1 1.144 0.706c-0.324 0.444 -0.892 1.23 -1.204 1.718Zm9.414 -8.836a0.836 0.836 0 0 0 -1.216 0.422 19.716 19.716 0 0 0 -5.344 4.658 6.506 6.506 0 0 0 -1.366 -1.03c2.668 -4.312 7 -10.116 12.054 -10.526a2.722 2.722 0 0 1 2.7 1.112c2.194 3.266 -3.634 6.81 -6.828 5.372Z" fill="#999999" stroke-width="1"></path><path d="M264.016 99.078a9.434 9.434 0 0 1 4.622 -4.64 6.94 6.94 0 0 1 2.682 -0.548 0.886 0.886 0 0 0 0.3 -1.746 7.548 7.548 0 0 0 -3.758 -0.144 10.088 10.088 0 0 0 -6.212 5.946c-0.214 0.6 -0.78 2.826 0.2 3.176 0.71 0.23 1.792 -1.4 2.166 -2.044Z" fill="#999999" stroke-width="1"></path><path d="M284.534 94.01a10.496 10.496 0 0 0 -14.502 3.422 13.07 13.07 0 0 0 -1.218 2.504 0.842 0.842 0 0 0 1.446 0.866c0.2 -0.254 1.328 -1.21 1.782 -1.712a10.906 10.906 0 0 1 7.904 -4.04 10.416 10.416 0 0 1 3.846 0.546 0.876 0.876 0 0 0 0.742 -1.586Z" fill="#999999" stroke-width="1"></path><path d="M282.06 107.456a5.6 5.6 0 0 0 -0.53 1.676 8.952 8.952 0 0 0 -0.3 2.558c0.032 0.522 0.264 2.576 1.218 2.576 0.744 0 0.908 -0.702 1.252 -2.082 0.072 -0.246 0.124 -0.512 0.178 -0.776 0.088 -0.476 0.158 -0.952 0.264 -1.446 0.106 -0.46 0.248 -0.918 0.352 -1.4 0.144 -0.72 0.238 -2.134 -0.44 -2.418 -0.732 -0.328 -1.59 0.616 -1.994 1.312Z" fill="#999999" stroke-width="1"></path><path d="M342.128 132.674a11.738 11.738 0 0 0 1.536 -9.034 7.234 7.234 0 0 0 -2.028 -2.876c-3.46 -3.138 -6.048 -1.766 -6.124 0.97 -0.352 11.816 -18.676 17.716 -26.446 9.564 -5.978 -6.288 -5.156 -16.776 -8.962 -25.284 -0.822 -1.816 -3.4 -5.866 -4.424 -6.17 -1.726 -3.742 -6.642 -4.646 -10.26 -3.08a8.862 8.862 0 0 0 -3.546 2.718c-0.438 0.614 -1.494 2.16 -0.778 2.77 0.568 0.454 0.98 0.112 2.752 -1.236a10.904 10.904 0 0 1 2.664 -1.746 6.67 6.67 0 0 1 7.816 1.94c0.366 0.832 3.502 -0.174 6.164 14.756 1.132 6.38 2.272 12.532 6.634 17.2 4.64 4.904 12.314 5.698 18.912 3.4 12.428 -4.352 12.12 -14.6 12.2 -14.8a5.578 5.578 0 0 1 2.786 2.628 7.6 7.6 0 0 1 -0.2 4.6c-1.312 3.936 -3.424 4.582 -2.436 6a1.362 1.362 0 0 0 1.5 0.512c4.526 -1.294 6.018 4 2.17 7.058 -2.362 1.914 -3.762 1.4 -3.97 2.822a1.328 1.328 0 0 0 0.548 1.218c5.242 3.698 0.958 11.084 -4.376 11.662a1.168 1.168 0 0 0 -0.846 1.8 5.492 5.492 0 0 1 -3.74 8.8 0.97 0.97 0 0 0 -0.812 1.042c0.246 3.08 -0.478 5.972 -3.246 7.428a0.882 0.882 0 1 0 0.81 1.568 8.56 8.56 0 0 0 4.464 -8.256 7.49 7.49 0 0 0 5.24 -10.374c6.026 -1.742 10 -9.33 5.61 -14.378 7.536 -3.896 6.176 -12.32 0.388 -13.222Z" fill="#999999" stroke-width="1"></path><path d="M332.786 145.53c-0.666 0.2 -3.228 0.874 -5.6 1.288 -7.754 1.482 -15.076 0.788 -21.578 -3.724a25.828 25.828 0 0 1 -6.632 -6.632 0.872 0.872 0 1 0 -1.482 0.916c6.94 12.786 23.18 16.346 35.938 9.704a0.842 0.842 0 0 0 -0.646 -1.552Z" fill="#999999" stroke-width="1"></path><path d="M289.876 143.238a40.928 40.928 0 0 0 2.328 6.704c5.084 11.044 13.144 14.694 24.648 18.26a0.882 0.882 0 0 0 0.6 -1.658 96.168 96.168 0 0 1 -12.58 -6.104c-7.982 -5.08 -9.078 -9.702 -13.444 -17.838a0.818 0.818 0 0 0 -1.094 -0.458 0.84 0.84 0 0 0 -0.458 1.094Z" fill="#999999" stroke-width="1"></path><path d="M277.222 146.15c-0.668 12.184 5.77 25.662 16.638 31.528a0.88 0.88 0 0 0 0.918 -1.5 33.104 33.104 0 0 1 -6.37 -5.944 40.108 40.108 0 0 1 -8.504 -18.932c-0.2 -1.162 -0.762 -3.688 -1 -5.24a0.84 0.84 0 0 0 -1.682 0.088Z" fill="#999999" stroke-width="1"></path><path d="M251.668 153.738a0.9 0.9 0 0 0 -0.988 -0.776c-5.31 0.642 -11.126 2.416 -16.108 0.9 -4 -1.2 -3.454 -5.16 -0.2 -7.252a1.296 1.296 0 0 0 -1.252 -2.258 43.266 43.266 0 0 0 -8.662 5.824c-3.916 3.126 -14.984 12.072 -16.268 16.918a4.464 4.464 0 0 0 1.8 5.046c7.686 5.826 19.616 -2.248 27.718 -7.6 9.464 -6.434 16.304 -9.63 13.96 -10.802Z" fill="#16a34a" stroke-width="1"></path><path d="M354.4 179.032c-1.8 -2.17 -3.776 -4.182 -5.434 -6.476a1.176 1.176 0 0 0 -0.882 -0.476c-1.312 -0.068 -1.146 1.676 -6.4 4.058a81.312 81.312 0 0 1 -9.898 3.4c-16.378 5.216 -38.072 7.418 -52.276 -2.382 -5.6 -3.964 -5.92 -12.522 -17.166 -19.566a1.306 1.306 0 0 0 -1.306 -0.072 97.888 97.888 0 0 0 -22.6 14.838c-3.6 3.154 -7.462 6.962 -8.132 11.734 -0.522 3.656 1.052 6 1.87 9.156a15.4 15.4 0 0 1 -0.846 11.696c-6.738 11.844 -24.332 14.426 -37.828 15.72a1.356 1.356 0 0 0 -1.234 1.324 69.042 69.042 0 0 1 -0.864 12.632c-1.44 6.96 -3.966 7.58 -2.824 9.086a1.346 1.346 0 0 0 1.448 0.476c20.054 -5.678 42.032 -17.244 54.832 -33.486 29.758 16.962 59.082 25.096 91.338 14.344 8.544 -2.858 17.58 -6.728 24.064 -13.038a0.88 0.88 0 0 0 0.142 -1.094c4.52 -10.906 1.196 -23.082 -6.004 -31.874Z" fill="#16a34a" stroke-width="1"></path><path d="M220.642 144.874a1.336 1.336 0 0 0 -1.094 -1.076 38.982 38.982 0 0 0 -10.338 -0.4c-5.046 0.4 -10.092 1.446 -14.962 2.186 -10.038 1.554 -21.56 2.26 -31.334 -0.916a28.05 28.05 0 0 1 -15.966 -12.2 1.334 1.334 0 0 0 -1.376 -0.6 31.238 31.238 0 0 0 -15.42 8.752 25.03 25.03 0 0 0 -7.64 15.948 11.854 11.854 0 0 0 3.812 8.892c4.568 4.712 12.508 8.064 17.854 11.716a0.822 0.822 0 0 0 0.528 0.14A31.972 31.972 0 0 0 157.18 181.6a27.688 27.688 0 0 0 13.568 -1.888 29.658 29.658 0 0 0 6.916 -4.428 56.09 56.09 0 0 1 6.14 -4.622 10.762 10.762 0 0 1 5.662 -1.782 16.584 16.584 0 0 0 7.428 -1.748 31.524 31.524 0 0 0 8.6 -6.95c2.682 -2.894 5.4 -6.088 8.364 -8.928a38.26 38.26 0 0 1 6.174 -4.958 1.358 1.358 0 0 0 0.61 -1.422Z" fill="#16a34a" stroke-width="1"></path><path d="M223.696 143a68.254 68.254 0 0 1 9.456 0.44 1.098 1.098 0 0 1 0.388 2.048c-8.32 4.8 -16.666 13.546 -23.306 20.466 -3.212 3.328 -6.958 9.15 -11.89 9.526 -2.344 0.164 -3.982 -0.886 -3.9 -3.2a17.8 17.8 0 0 1 4.252 -7.904c6.948 -7.86 13.324 -15.728 22.706 -20.8a6.054 6.054 0 0 1 2.294 -0.576Zm6.034 2.188a38.65 38.65 0 0 0 -6.934 -0.336c-7.932 4.468 -16.242 14.612 -22.054 21.312 -1.086 1.24 -3.706 4.914 -3.546 6.528l-0.018 -0.034c-0.14 0.2 0.53 0.106 0.972 0.088 3.7 -0.258 7.472 -5.952 10.144 -8.68 6.652 -6.82 13.282 -13.818 21.436 -18.88Z" fill="#999999" stroke-width="1"></path><path d="M286.028 114.494a12.354 12.354 0 0 0 -3.282 1.622 11 11 0 0 0 -4 6.706 4.4 4.4 0 0 0 1.12 3.178c-1.184 1.318 -2.662 2.712 -3.112 3.152a37.978 37.978 0 0 1 -17.15 10.322c-1.2 0.284 -0.556 0.918 -4.286 5.928 -3.936 5.336 -4.356 4.884 -4.306 5.644 0 0.588 0.384 0.744 1.568 1.664a113.542 113.542 0 0 0 -15.764 9.922 97.872 97.872 0 0 0 -13.532 10.62c-2.572 2.506 -5.182 5.048 -5.768 8.574a4.856 4.856 0 0 0 3.282 5.716 7.37 7.37 0 0 0 6.086 -2.01 59 59 0 0 0 7.516 -7.6c7.538 -8.4 18.73 -14.56 28.51 -20.22a0.896 0.896 0 0 0 0.424 -0.564 0.852 0.852 0 0 0 0.054 -0.934 11.18 11.18 0 0 0 -2.692 -3.06 49.896 49.896 0 0 1 -0.366 -7.334c0.162 -3.892 -0.74 -1.878 0.438 -3.872a35.72 35.72 0 0 0 20.48 -14.742 12.73 12.73 0 0 0 1.516 0.828l-3.264 3.07c-1.778 1.72 -4.326 3.38 -4.076 6.068a3.378 3.378 0 0 0 5.382 2.754c3.03 -1.754 6.38 -5.81 8.8 -8.328 2.292 -2.416 4.872 -4.638 6.016 -8.028 1.978 -6.004 -4.422 -10.316 -9.594 -9.076Zm-28.464 32.062a21.26 21.26 0 0 0 0.466 5.02 4.148 4.148 0 0 0 -3.642 0.33c-0.664 -0.57 -0.434 -0.366 -1.012 -0.898a45.666 45.666 0 0 0 4.188 -4.452Zm3.936 9.914c-10.466 5.6 -20.904 10.852 -29.058 19.672a55.056 55.056 0 0 1 -7.216 7.234 4.924 4.924 0 0 1 -3.864 1.482c-0.954 -0.184 -1.334 -1.632 -1.146 -2.6 0.448 -2.788 2.908 -5 4.974 -7.058a94.942 94.942 0 0 1 13.162 -10.338c5.232 -3.62 12.122 -8.8 18 -11.326 0.642 -0.322 2.218 0.518 2.858 0.934a11.16 11.16 0 0 1 2.29 2Zm17.03 -18.67a1.37 1.37 0 0 1 -0.148 -1.726c0.142 0.136 -0.014 -0.034 0.874 0.664a3.12 3.12 0 0 0 0.63 0.534c-0.486 0.308 -0.992 0.696 -1.356 0.528Zm3.298 -2.064a4.486 4.486 0 0 0 -1.546 -1.676c1 -0.886 0.648 -0.574 1.566 -1.444a0.458 0.458 0 0 0 0.096 0.108 4.282 4.282 0 0 1 1.288 0.812c0.124 0.124 0.264 0.2 0.388 0.334a0.532 0.532 0 0 0 0.086 0.078q-0.906 0.928 -1.878 1.788Zm11.486 -13c-1.012 2.77 -3.246 4.452 -7.83 9.35a4.712 4.712 0 0 0 -1.552 -1.44l2.132 -2.018a1.348 1.348 0 0 0 -0.336 -2.188c-1.466 -0.734 -3.516 -1.346 -4.216 -2.698 -0.71 -1.424 1.128 -4.484 2.1 -5.558 1.62 -1.886 2.68 -1.962 3.086 -2.012 3.142 -0.384 8.072 2.716 6.616 6.562Z" fill="#999999" stroke-width="1"></path><path d="M206.908 171.252c0.956 4.508 6.634 7.692 13.216 4.676a0.878 0.878 0 0 0 -0.53 -1.676c-6.016 0.926 -8 -0.288 -11.186 -3.758a0.84 0.84 0 0 0 -1.5 0.758Z" fill="#999999" stroke-width="1"></path><path d="M37.338 198.4a31.53 31.53 0 0 0 3.67 -1.4c1.436 -0.79 2.134 -1.29 1.888 -2.012 -0.298 -0.876 -2.412 -0.456 -2.752 -0.388a21.724 21.724 0 0 0 -3.74 1.324c-0.6 0.376 -1.574 1.222 -1.306 1.922s1.994 0.602 2.24 0.554Z" fill="#999999" stroke-width="1"></path><path d="M50.748 193.858c0.476 -0.106 0.97 -0.246 1.482 -0.352s1.024 -0.2 1.518 -0.336c3.97 -0.744 3.784 -3.294 -0.882 -2.558a13.864 13.864 0 0 0 -3.176 0.8c-0.416 0.178 -1.718 1.148 -1.4 1.958 0.31 0.732 1.728 0.63 2.458 0.488Z" fill="#999999" stroke-width="1"></path><path d="M63.508 191.554c0.2 -0.02 2.936 -0.4 3.828 -0.582 1.264 -0.302 2.128 -0.51 2.1 -1.306 0 -0.94 -2.108 -1.154 -2.558 -1.182a15.634 15.634 0 0 0 -4.164 0.512c-2.514 1.082 -1.978 2.804 0.794 2.558Z" fill="#999999" stroke-width="1"></path><path d="M77.782 190.558c0.2 0 5 -0.114 5.188 -0.124 1.908 -0.12 2.52 -0.058 2.664 -0.83 0.232 -1.044 -1.93 -1.546 -2.982 -1.728a20.114 20.114 0 0 0 -5.54 0.088c-0.232 0.03 -2.152 0.6 -2.046 1.518 0.06 0.766 1.904 1.134 2.716 1.076Z" fill="#999999" stroke-width="1"></path><path d="M94.564 191.732c7.028 0.704 8.028 0.936 8.292 -0.088 0.41 -1.842 -6.482 -2.752 -8.626 -2.558 -2.9 0.314 -3.492 2.374 0.334 2.646Z" fill="#999999" stroke-width="1"></path><path d="M109.764 194.96a29.68 29.68 0 0 0 4.164 1.34c1.17 0.214 2 0.342 2.294 -0.37 0.332 -0.866 -1.584 -1.942 -1.836 -2.082a19.348 19.348 0 0 0 -3.846 -1.412c-0.472 -0.066 -2.02 0 -2.2 0.776s1.168 1.62 1.424 1.748Z" fill="#999999" stroke-width="1"></path><path d="M122.286 200.048c1 0.4 2.894 1.304 3.636 1.534 1.324 0.386 2.046 0.714 2.47 0.018 0.48 -0.824 -1.2 -2.102 -1.588 -2.364a14.922 14.922 0 0 0 -3.83 -1.782c-0.414 -0.118 -2.012 -0.166 -2.292 0.618 -0.248 0.772 0.946 1.61 1.604 1.976Z" fill="#999999" stroke-width="1"></path><path d="M138.29 205a15.922 15.922 0 0 0 -3.264 -1.71c-0.294 -0.092 -1.814 -0.25 -2.134 0.4 -0.302 0.616 0.296 1.336 1 1.958a25 25 0 0 0 3.582 1.728c1.102 0.312 1.8 0.646 2.2 0 0.526 -0.792 -1.104 -2.146 -1.384 -2.376Z" fill="#999999" stroke-width="1"></path><path d="M145.292 213.4a31.61 31.61 0 0 0 2.716 1.976 4.664 4.664 0 0 0 0.6 0.3c1.086 0.456 1.744 0.86 2.222 0.212 0.556 -0.686 -0.854 -2.222 -1.058 -2.436a12.88 12.88 0 0 0 -1.71 -1.376 6.566 6.566 0 0 0 -1.2 -0.812c-2.462 -1.022 -3.088 0.536 -1.57 2.136Z" fill="#999999" stroke-width="1"></path><path d="M153.626 219.722a14.438 14.438 0 0 0 3.704 1.766c0.546 0.132 2.544 0.558 2.858 -0.354s-1.448 -1.818 -2.292 -2.24c-0.19 -0.1 -2.538 -1.254 -2.7 -1.324 -0.734 -0.326 -2.104 -0.6 -2.524 0.088s0.764 1.912 0.954 2.064Z" fill="#999999" stroke-width="1"></path><path d="M184.012 218.582a17.522 17.522 0 0 0 -2.524 -0.318 22.21 22.21 0 0 0 -16.548 8.468c-0.476 0.618 -0.918 1.288 -1.34 1.958a0.884 0.884 0 1 0 1.428 1.042c5.6 -6.2 10.734 -8.21 18.948 -9.474a0.838 0.838 0 0 0 0.036 -1.676Z" fill="#999999" stroke-width="1"></path><path d="M224.31 178.782a1.554 1.554 0 1 1 -1.536 1.554 1.544 1.544 0 0 1 1.536 -1.554Z" fill="#999999" stroke-width="1"></path><path d="M201.524 166.824a1.554 1.554 0 1 1 -1.552 1.554 1.54 1.54 0 0 1 1.552 -1.554Z" fill="#999999" stroke-width="1"></path><path d="M115.698 234.512a12.818 12.818 0 0 0 -2.276 3c-0.126 0.246 -1.028 2.2 -0.246 2.682 0.692 0.452 1.312 -0.218 2.118 -1.024a31.502 31.502 0 0 0 2.258 -2.716c0.416 -0.556 0.924 -1.902 0.352 -2.418 -0.54 -0.484 -1.428 -0.076 -2.206 0.476Z" fill="#999999" stroke-width="1"></path><path d="M106.814 247.8a41.2 41.2 0 0 0 -2.452 5.188c-0.542 1.568 -1.08 3 -0.2 3.4 0.728 0.336 1.244 -0.2 2.504 -2.31 0.544 -0.912 2.284 -4.53 2.488 -5.082 0.168 -0.452 0.712 -2.284 -0.088 -2.7 -0.756 -0.398 -1.966 1.064 -2.252 1.504Z" fill="#999999" stroke-width="1"></path><path d="M100.302 263.366a26.904 26.904 0 0 0 -2.524 5.098c-0.298 1 -0.928 3.124 0.054 3.476 0.746 0.268 1.05 -0.286 2.064 -2.028 0.522 -0.896 2.386 -4.672 2.488 -4.87 0.4 -0.764 0.958 -2.522 0.176 -2.964 -0.742 -0.42 -1.922 0.824 -2.258 1.288Z" fill="#999999" stroke-width="1"></path><path d="M93.552 278.62a27.25 27.25 0 0 0 -1.712 5.222c-0.18 1.012 -0.578 3.02 0.4 3.3 0.778 0.22 1.09 -0.468 1.87 -2.17 0.376 -0.82 1.73 -4.838 1.8 -5.064 0.266 -0.85 0.546 -2.6 -0.282 -2.928 -0.792 -0.316 -1.69 0.946 -2.076 1.64Z" fill="#999999" stroke-width="1"></path><path d="M88.824 295.77a38.654 38.654 0 0 0 -1.358 6.21c-0.216 2.854 -0.02 3.466 0.688 3.582 0.878 0.144 1.058 -0.73 1.676 -2.646 0.264 -0.824 1.4 -5.864 1.446 -6.07 0.2 -0.844 0.284 -2.906 -0.494 -3.14 -0.894 -0.268 -1.724 1.45 -1.958 2.064Z" fill="#999999" stroke-width="1"></path><path d="M85.72 313.522a18.712 18.712 0 0 0 -0.37 4.04c0.132 1.71 0.346 2.492 1.076 2.558 0.928 0.084 1.2 -1.158 1.482 -2.364a36.934 36.934 0 0 0 0.4 -3.846c0 -0.48 -0.2 -1.902 -0.954 -2.064s-1.408 0.954 -1.634 1.676Z" fill="#999999" stroke-width="1"></path><path d="M139.81 245.064c-29.88 23.784 -42.846 55.81 -41.92 93.984a58.236 58.236 0 0 0 -26.728 -15.508 102.186 102.186 0 0 1 -4.852 -32.656c0.4 -22.452 9.902 -58.022 27.346 -72a0.834 0.834 0 0 0 -1.058 -1.288c-9.062 7.174 -15.272 17.6 -19.584 28.228a133.988 133.988 0 0 0 -9.414 45.024 104.152 104.152 0 0 0 5.188 34.246c0.384 1.2 1.02 0.628 6.6 2.686 -0.6 1.768 -1.862 1.362 -3.73 0.56 -7.364 -3.168 -16.73 -6.826 -24.63 -7.868l-2.752 -0.228c-4.094 -0.124 -5.17 1.6 -5.046 3.368 0.21 3.096 5.3 7.712 7.64 9.122A186.934 186.934 0 0 0 84 348.348c5.79 1.772 7.416 -4.96 8.2 -10.962a42.012 42.012 0 0 1 4.724 4.668c-0.436 -0.016 -0.87 0 -1.304 -0.016 -5.48 -0.22 -3.932 2.734 0.318 2.734a16.236 16.236 0 0 0 2.884 -0.232c1.012 -0.164 1.976 -0.666 1.916 -1.68 -2.056 -38.652 10.324 -72 40.156 -96.418a0.88 0.88 0 0 0 -1.084 -1.378Z" fill="#999999" stroke-width="1"></path><path d="M357.748 174.146A50.288 50.288 0 0 0 363.4 166.8c0.986 -1.44 2.33 -3.22 3.37 -5.028a37.4 37.4 0 0 0 1.922 -3.634 0.852 0.852 0 0 0 -0.318 -1.2 0.874 0.874 0 0 0 -1.2 0.318c-0.688 0.988 -1.43 1.888 -2.154 2.84 -1.84 2.302 -2.286 2.956 -3.846 5.152 -1.252 1.764 -2.452 3.512 -3.722 5.2 -0.316 0.44 0.012 -0.044 -1.624 2.136 -1.518 2.124 -1.8 2.5 -1.288 3.07 0.724 0.778 2.414 -0.802 3.208 -1.508Z" fill="#999999" stroke-width="1"></path><path d="M364.166 170.8a15.04 15.04 0 0 1 0.742 6.106 7.814 7.814 0 0 1 -2.1 4.2 0.88 0.88 0 1 0 1 1.446 7.086 7.086 0 0 0 3.74 -5.168 11.868 11.868 0 0 0 -1.112 -7.534c-0.686 -1.012 -1.44 -2.056 -2.2 -1.624 -0.596 0.314 -0.502 0.852 -0.07 2.574Z" fill="#999999" stroke-width="1"></path><path d="M371.498 167.72c0.528 -0.306 9.2 -6.662 10.444 -7.286a0.874 0.874 0 1 0 -0.688 -1.6 25.2 25.2 0 0 0 -5.558 2.576c-1.582 1 -8.2 5.418 -7.058 6.916 0.432 0.562 1.126 0.37 2.86 -0.606Z" fill="#999999" stroke-width="1"></path><path d="M375.14 172.446a12.706 12.706 0 0 0 1.906 -1.182c6.882 -4.418 9.8 -4.972 9.262 -6.334 -0.362 -0.824 -1.22 -0.5 -2.558 -0.088a30.244 30.244 0 0 0 -10 5.6c-1.066 1.168 -1.574 1.834 -1.094 2.434s0.898 0.268 2.484 -0.43Z" fill="#999999" stroke-width="1"></path><path d="M377.832 178.028c1.224 -0.612 0.248 -0.328 7.446 -4.482 1.936 -1.2 2.934 -1.528 2.558 -2.452 -0.342 -0.854 -1.284 -0.464 -2.434 -0.142a18.824 18.824 0 0 0 -4.852 2.188 19.772 19.772 0 0 0 -4.322 2.964c-1 1.15 -1.504 1.734 -1.042 2.312 0.4 0.55 0.926 0.41 2.646 -0.388Z" fill="#999999" stroke-width="1"></path><path d="M363.73 194.77c0.68 -0.532 0.988 -0.736 3.97 -2.77 2.48 -1.818 12.534 -9.462 21.842 -15.224a0.872 0.872 0 0 0 -0.83 -1.536 81.076 81.076 0 0 0 -7.814 4.11 169.632 169.632 0 0 0 -15.58 11.222 26.27 26.27 0 0 0 -2.77 3 0.842 0.842 0 0 0 1.182 1.198Z" fill="#999999" stroke-width="1"></path><path d="M131.774 120.072a25.184 25.184 0 0 0 3.74 12.384c0.71 1.086 1.268 2.18 2.098 1.694 0.854 -0.4 0.328 -1.284 -0.158 -2.646a62.95 62.95 0 0 1 -3.44 -12.298c-0.298 -1.074 -0.328 -1.746 -1.13 -1.746 -0.874 0.034 -0.998 1.284 -1.11 2.612Z" fill="#999999" stroke-width="1"></path><path d="M128.436 127.82a11.682 11.682 0 0 0 -0.934 6.246 7.016 7.016 0 0 0 1.112 2.558 0.88 0.88 0 0 0 1.588 -0.76 7.126 7.126 0 0 1 -0.16 -1.728 16.37 16.37 0 0 1 0.9 -5.452c0.2 -0.626 0.554 -2.572 -0.3 -2.894 -0.794 -0.33 -1.862 1.23 -2.206 2.03Z" fill="#999999" stroke-width="1"></path><path d="M123.468 118.38a55.704 55.704 0 0 0 2.364 6.476c0.724 1.548 1.018 2.372 1.836 2.152 1.038 -0.27 0.522 -2.556 0.282 -3.6a47.4 47.4 0 0 0 -1.906 -5.644c-0.32 -0.832 -1.2 -2.37 -2.082 -2.136 -0.846 0.272 -0.666 2.146 -0.494 2.752Z" fill="#999999" stroke-width="1"></path><path d="M117.448 122.106a42.914 42.914 0 0 0 3.106 6.756c1 1.73 1.372 2.358 2.134 2.064 1.022 -0.4 0.154 -2.714 -0.2 -3.758S120.58 122.6 120 121.364c-0.4 -0.85 -1.316 -2.436 -2.2 -2.152 -0.92 0.326 -0.558 2.34 -0.352 2.894Z" fill="#999999" stroke-width="1"></path><path d="M112.754 127.098a38.456 38.456 0 0 0 4.516 5.786c1.372 1.318 1.828 1.94 2.542 1.412 0.83 -0.6 0 -1.828 -1.06 -3.528 -0.342 -0.564 -3.26 -4.422 -3.634 -4.904 -0.63 -0.702 -1.762 -2.06 -2.558 -1.554 -0.798 0.452 -0.198 1.904 0.194 2.788Z" fill="#999999" stroke-width="1"></path><path d="M110.29 132.934a51.572 51.572 0 0 0 10.92 13.814c1.254 1.064 2.36 2.058 3.036 1.27 0.65 -0.758 0 -1.06 -2.93 -4.428A144.324 144.324 0 0 1 112.4 131.7c-1.516 -1.95 -2 -2.49 -2.682 -2.1s-0.424 1.136 0.572 3.334Z" fill="#999999" stroke-width="1"></path><path d="M305.814 102.732c5.2 -5.834 15.19 -5.886 22.302 -6.846 9.624 -1.324 19.18 -8.4 21.1 -18.314a0.6 0.6 0 0 0 -0.458 -0.704 0.588 0.588 0 0 0 -0.706 0.476 20.886 20.886 0 0 1 -7.64 11.238c-9.84 7.844 -17 4.558 -27.152 7.8A15.386 15.386 0 0 0 304.932 102a0.57 0.57 0 0 0 0.882 0.732Z" fill="#16a34a" stroke-width="1"></path><path d="M338 114.326c2.716 -0.8 8.716 -1.11 12.226 -2.082a23.238 23.238 0 0 0 17.342 -18.066 0.6 0.6 0 0 0 -0.422 -0.74c-1.238 -0.2 -0.366 1.768 -3.812 7.2 -6.936 10.742 -18.06 10.372 -22.088 11.38a22.042 22.042 0 0 0 -3.652 1.234 0.576 0.576 0 0 0 0.406 1.074Z" fill="#16a34a" stroke-width="1"></path><path d="M371.368 66.04c-1.484 3.85 -7.524 1.6 -10.454 4.188q-0.54 -0.848 -1.052 -1.688c1.976 -1.752 4.8 -0.656 7.956 -1.906 4.572 -1.934 3.356 -5.984 1.8 -5.364a0.884 0.884 0 0 0 -0.476 1.166 1.132 1.132 0 0 1 -0.442 1.182c-2.676 2.778 -7.734 -0.654 -11.52 3.846a1.362 1.362 0 0 0 -0.16 1.534c1.666 2.902 4.122 6.462 5.524 9.386a5.514 5.514 0 0 0 -3.442 3.67c-0.352 1.536 0.23 3 2.488 3.582 3.758 0.87 5.586 -2.626 4.482 -5.858a37.958 37.958 0 0 0 -3.95 -7.648 4.4 4.4 0 0 1 0.724 -0.128c2.618 -0.87 6.496 -0.268 8.716 -2.38a5.03 5.03 0 0 0 1.518 -3.176 0.88 0.88 0 0 0 -1.712 -0.406Zm-8.136 13.914a3.298 3.298 0 0 1 0.228 2.7c-0.438 0.8 -1.868 0.326 -1.922 0.106a3.31 3.31 0 0 1 1.694 -2.806Z" fill="#999999" stroke-width="1"></path><path d="M328.164 112.704a1.35 1.35 0 0 0 -0.988 -0.952 65.226 65.226 0 0 0 -12.756 -1.906 1.378 1.378 0 0 0 -1.41 1.588c0.46 2.912 1.306 6.612 1.57 9.458a4.628 4.628 0 0 0 -3.864 3.828 3 3 0 0 0 2.752 3.3c2.562 0.512 3.916 -2.212 3.916 -4.836a36.628 36.628 0 0 0 -0.612 -6.278 68.074 68.074 0 0 0 10.088 1.334 20.672 20.672 0 0 1 0.352 2.086 3.678 3.678 0 0 0 -3.44 0.866c-3.078 2.6 -0.358 7.264 2.91 6.05a5.172 5.172 0 0 0 2.894 -3.316c0.928 -3.378 -0.486 -7.882 -1.412 -11.222Zm-13.672 12c-0.086 0.272 -0.316 0.882 -0.6 0.848a1.258 1.258 0 0 1 -0.83 -0.3c-0.468 -0.762 0.58 -2.332 1.64 -2.648a5.848 5.848 0 0 1 -0.21 2.098Zm6.73 -9.77a17.518 17.518 0 0 0 -4.89 -0.462c-0.11 -0.6 -0.22 -1.188 -0.324 -1.782a65.746 65.746 0 0 1 9.774 1.5c0.19 0.652 0.4 1.356 0.6 2.088a19.44 19.44 0 0 0 -5.16 -1.346Zm5.918 8.376c-0.256 1.028 -1.372 2.3 -2.098 1.536 -1.364 -1.4 0.746 -3.432 2.24 -2.47a5.314 5.314 0 0 1 -0.142 0.932Z" fill="#999999" stroke-width="1"></path><path d="M330.848 105.386c5.062 -2.072 12.222 2.108 19.9 -6.458a32.412 32.412 0 0 0 6.422 -12.314 0.6 0.6 0 0 0 -1.128 -0.4c-2.6 6.818 -6.8 14.068 -13.78 16.124 -3.788 1.138 -7.65 -0.286 -11.872 2.012a0.57 0.57 0 0 0 0.458 1.036Z" fill="#16a34a" stroke-width="1"></path><path d="M229.05 186.93a0.836 0.836 0 1 0 -1.64 -0.318c-1.58 7.832 7.952 13.972 -3.8 21.896 -8.6 5.764 -25.102 5.79 -34.47 13.8 -16.718 13.956 -1.44 23.848 -14.842 24.294 -29.342 1.068 -50.432 -22.85 -76.498 -32.534 -21.366 -7.904 -43.85 -0.674 -65.844 3.83a62.78 62.78 0 0 1 -2.858 -32.57c29.188 -14.932 59.36 -23.448 91.46 -15.614 17.298 4.086 46.062 17.264 63.078 36.266a0.876 0.876 0 0 0 1.324 -1.148A86.424 86.424 0 0 0 161.684 184.4c15.67 2.286 19.842 -11.358 30.298 -13.338a0.842 0.842 0 0 0 -0.158 -1.676c-13.778 -0.174 -13.086 17.056 -36.768 11.698C140.524 177.8 104.48 143.8 27.304 183.26c-0.722 0.976 -0.78 0.532 -1.336 5.218 -1.814 -8.52 -8.228 -34.8 -14.906 -29.2 -2.232 1.982 -1.522 54.822 7.782 58.114 2.614 0.952 6.748 -1.294 9.212 -2.7 1.36 4.582 1.826 6.374 3.324 6.08 21.704 -4.304 44.498 -11.938 65.472 -4.128C123 226.314 143.936 250.4 174.4 249.28c4.48 -0.114 7.706 -0.862 8.558 -5.468 2.636 0.096 3.25 0.274 3.724 -0.672 9.938 -20.106 -6.028 -19.114 25.614 -27.682 29.462 -7.924 15.616 -22.004 16.754 -28.528Z" fill="#999999" stroke-width="1"></path><path d="M89.2 99.268a26.306 26.306 0 0 0 -14.45 -13.8 25.366 25.366 0 0 0 -33.54 15.666 27.31 27.31 0 0 0 16.056 34.034c22.078 8.458 42.642 -14.482 31.934 -35.9Zm-15.73 20.69a8.134 8.134 0 0 0 -2.346 -0.564 8.382 8.382 0 0 0 -5.522 1.498c-0.252 0.144 -1.2 0.528 -1.446 0.672a0.838 0.838 0 0 1 -1.236 -1.13c1.532 -3.622 8.164 -5.314 11.574 -1.904a0.878 0.878 0 0 1 -1.024 1.428ZM77.42 114c-5.558 -5.56 -14.616 -5.642 -19.83 4.04a0.842 0.842 0 0 1 -1.59 -0.556 12.704 12.704 0 0 1 22.76 -4.6 0.876 0.876 0 0 1 -1.34 1.116Zm3.44 -6.154a20.056 20.056 0 0 0 -8.98 -7.11c-8.536 -2.664 -16.966 3.156 -20.042 11.362a0.84 0.84 0 0 1 -1.624 -0.424c1.706 -10.616 13.146 -16.458 22.46 -13.444 4.346 1.464 7.078 4.752 9.614 8.574a0.884 0.884 0 0 1 -1.428 1.05Z" fill="#16a34a" stroke-width="1"></path><path d="m240.696 296.632 0.036 -0.018a26.68 26.68 0 0 0 -14.484 -13.78 25.368 25.368 0 0 0 -33.54 15.668 27.296 27.296 0 0 0 16.056 34.032 25.532 25.532 0 0 0 33.574 -15.93 26.6 26.6 0 0 0 -1.642 -19.972Zm-13.95 10.104a96.556 96.556 0 0 1 -13.85 9.844 1.322 1.322 0 0 1 -1.976 -0.9c-0.932 -5.05 -1.938 -9.466 -2.488 -15.4a1.364 1.364 0 0 1 1.694 -1.446 97.142 97.142 0 0 1 16.444 6.068c1.348 0.114 1.276 1.834 0.176 1.834Z" fill="#16a34a" stroke-width="1"></path><path d="M299.814 270.58a15.528 15.528 0 0 1 1.482 -4.552 8.982 8.982 0 0 1 3.052 -2.84c1.108 -0.582 1.892 -0.624 1.73 -1.5 -0.266 -1.2 -2.354 -0.6 -3.512 -0.212A8.906 8.906 0 0 0 297.52 270c0.18 1.034 0.484 2.286 1.342 2.188 0.692 -0.056 0.752 -0.678 0.952 -1.608Z" fill="#16a34a" stroke-width="1"></path><path d="M290.626 269.098a23.29 23.29 0 0 1 0.318 -3.122c1.164 -7.432 6.894 -11.16 11.484 -11.044a0.87 0.87 0 1 0 0.2 -1.73c-8.8 -1.74 -16.44 8.532 -13.654 16.232a0.846 0.846 0 1 0 1.652 -0.336Z" fill="#16a34a" stroke-width="1"></path><path d="M279.952 266.91a34.474 34.474 0 0 1 0.688 -4.428 18.428 18.428 0 0 1 7.868 -12.368 25.512 25.512 0 0 1 12.138 -3.986 0.874 0.874 0 0 0 -0.016 -1.748 22.272 22.272 0 0 0 -13.6 3.476 20.4 20.4 0 0 0 -8.892 13.762 18.922 18.922 0 0 0 0.142 5.346 0.836 0.836 0 0 0 0.864 0.812 0.858 0.858 0 0 0 0.808 -0.866Z" fill="#16a34a" stroke-width="1"></path><path d="M320.874 285.934c-2.742 -2.022 -5.06 -3.232 -6.086 -3.968a1.364 1.364 0 0 0 -1.13 -0.212c-0.824 0.2 -0.744 0.624 -2.364 3.528 -0.8 1.412 -1.622 2.8 -2.434 4.2a1.358 1.358 0 0 0 1.728 1.922c3.04 -1.434 10.164 -3.664 10.164 -3.916a0.826 0.826 0 0 0 0.122 -1.554Z" fill="#999999" stroke-width="1"></path><path d="M325.82 275.132a54.558 54.558 0 0 0 -9.862 0.2 1.272 1.272 0 0 1 -1.342 -1.746c1.836 -4.646 2.788 -7.132 4.534 -10.956a1.372 1.372 0 0 1 1.112 -0.8c3.618 -0.37 6.328 -0.466 11.68 -0.672a1.352 1.352 0 0 1 1.252 2c-1.056 1.96 -3.082 6.384 -5.54 10.922a0.9 0.9 0 0 1 -0.564 1.022 0.838 0.838 0 0 1 -1.27 0.03Zm3.916 -11.168c-2.64 0.122 -6.742 0.352 -8.432 0.494 -0.854 1.822 -2.7 6.188 -3.548 8.222a69.082 69.082 0 0 1 8.24 0.618 65.858 65.858 0 0 1 3.74 -9.334Z" fill="#999999" stroke-width="1"></path><path d="m334.732 265.274 -0.704 -0.106a0.844 0.844 0 0 1 -0.2 -1.676 6.74 6.74 0 0 1 2.946 -0.618 1.326 1.326 0 0 1 1.094 1.87 85.832 85.832 0 0 1 -4.324 9.8 1.156 1.156 0 0 1 -1.252 0.634l-2.082 -0.616a0.87 0.87 0 1 1 0.3 -1.712l1.236 0.052c0.584 -1.746 2.338 -6.204 2.986 -7.628Z" fill="#999999" stroke-width="1"></path><path d="M313.342 271.786a0.882 0.882 0 0 1 -0.106 1.746l-1.692 0.336a1.118 1.118 0 0 1 -1.094 -1.588 59.146 59.146 0 0 1 3.722 -8.486 1.302 1.302 0 0 1 1.182 -0.76l1.588 0.4a0.838 0.838 0 0 1 -0.054 1.676 5.886 5.886 0 0 0 -0.6 0.23c-0.714 1.948 -2.852 6.24 -2.946 6.446Z" fill="#999999" stroke-width="1"></path><path d="M348.182 263.634c-0.114 -0.636 -2.044 -5.498 -2.374 -6.102 -3.066 -5.6 -13.096 -2.714 -23.878 -2.48 -3.358 0.07 -6 0.242 -7.446 3.3a0.876 0.876 0 0 0 1.588 0.74c1.108 -2.214 3.428 -2.094 5.876 -2.064 11.218 0.05 25.178 -3.308 21.048 5.47 -1.042 2.118 -2.612 4.234 -3.352 5.68 -1.4 2.732 -1.886 3.296 -3.618 6.8 -1.562 3.174 -4.846 8.49 -6.298 11.098 -2.6 4.6 -2.774 6.64 -5.218 10.388 -1.912 2.642 -3.43 2.748 -6.938 2.748 -4.22 0.054 -9.316 -1.096 -13.92 -1.34 -1.098 -0.074 -5.03 0.046 -6.37 -0.864 -0.346 -0.19 -0.56 -0.388 -0.264 -1.464 0.54 -1.96 6.084 -11.294 8.6 -16.268s5.232 -11.04 9.032 -17.272a0.842 0.842 0 1 0 -1.4 -0.918 155.266 155.266 0 0 0 -9.898 17c-6 11.05 -8.822 15.36 -9.162 18.134a3.26 3.26 0 0 0 0.446 2.4c1.162 1.976 1.98 3.498 3.246 5.328a1.252 1.252 0 0 0 0.918 0.564c5.58 0.924 11.096 1.656 16.744 2.082 2.768 0.2 6.052 0.824 9.05 -0.546 4.092 -1.77 5.976 -7.092 7.94 -10.374 1.706 -2.8 3.024 -6.338 4.658 -9.28 3.376 -6.252 7.24 -12.656 10.656 -19.814a4.734 4.734 0 0 0 0.334 -2.946Z" fill="#999999" stroke-width="1"></path><path d="m176.3 74.868 -0.024 -0.018q0.012 0.018 0.024 0.018Z" fill="#16a34a" stroke-width="1"></path><path d="M178.644 65.034c0 0.692 0 1.382 0.012 2.072 13.716 4.842 7.15 2.4 10.584 3.724 -0.03 -0.834 -0.056 -1.668 -0.08 -2.496a87.7 87.7 0 0 1 -10.516 -3.3Z" fill="#16a34a" stroke-width="1"></path><path d="M200.646 59.956c-0.786 -2.46 -1.612 -4.182 -4.2 -4.692 -9.22 -1.814 -24.716 -3.8 -25.6 -3.846 -13.6 -0.876 -11.714 8.844 -11.714 31.262a20.272 20.272 0 0 0 0.07 4 6.71 6.71 0 0 0 5.2 5.328c1.508 0.428 24.48 1.826 24.682 1.834a18.086 18.086 0 0 0 6 -0.634c5.4 -1.782 5.544 -6.556 5.77 -11.856 0.484 -16.202 0.764 -18.352 -0.208 -21.396Zm-8.892 19.968A4.532 4.532 0 0 1 186.4 84.9c-4.46 -0.82 -4.242 -7.024 -0.318 -8.31 2.666 -0.816 3.366 0.286 3.566 0.388 -0.13 -1.316 -0.246 -2.668 -0.316 -3.972a27 27 0 0 1 -10.668 -3.388c0 4.04 -0.17 5.222 -0.322 8.102a5.97 5.97 0 0 1 -5.266 5.76c-4.456 0.24 -5.984 -4.564 -3.81 -7.676a5.17 5.17 0 0 1 7 -0.954c-0.32 -0.512 -0.362 -11.4 -0.366 -11.65a1.376 1.376 0 0 1 1.748 -1.342 135.638 135.638 0 0 0 13.038 4.058 1.308 1.308 0 0 1 1.092 1.306c-0.032 2.474 -0.15 10.228 -0.024 12.702Z" fill="#16a34a" stroke-width="1"></path><path d="M129.874 75.852c-2.88 2.2 -7.848 6.4 -10.744 9.246a1.336 1.336 0 0 1 -2.222 -0.636c-1.11 -4.362 -2.2 -7.682 -3.424 -13.108a1.4 1.4 0 0 1 0.388 -1.27 1.384 1.384 0 0 1 1.306 -0.354c5.174 1.434 7.4 1.884 12.42 3.53 0.618 0.2 1.236 0.4 1.854 0.616l0.722 -0.458a0.892 0.892 0 0 1 1.218 0.23 0.846 0.846 0 0 1 -0.142 1.146 0.674 0.674 0 0 1 0.036 0.494 0.818 0.818 0 0 1 -1 0.618Zm-13.2 -2.892c0.142 0.564 1.676 6.368 2.276 8.698a73.76 73.76 0 0 1 8.134 -6.228l-0.036 -0.018a99.44 99.44 0 0 1 -10.37 -2.452Z" fill="#999999" stroke-width="1"></path><path d="M166.628 290.29c-5.26 6.524 -8.014 10.622 -12.774 16.884a1.354 1.354 0 0 1 -1.622 0.372c-7.014 -3.442 -13.892 -6.11 -20.184 -10.056a1.36 1.36 0 0 1 -0.3 -2.066 111.786 111.786 0 0 1 18.066 -15.136 1.296 1.296 0 0 1 1.376 -0.106c6.926 3.462 8.964 4.6 14.8 8 0.4 -0.46 0.81 -0.9 1.234 -1.342a0.88 0.88 0 0 1 1.306 1.182c-0.388 0.442 -0.776 0.918 -1.164 1.376a0.85 0.85 0 0 1 -0.738 0.892Zm-15.896 -7.356a118.92 118.92 0 0 0 -15.826 13.09c5.266 3.12 11.92 5.938 17.556 8.698 4.2 -5.262 7.632 -9.85 12.296 -15.19 -2.77 -1.288 -12.138 -5.664 -14.026 -6.598Z" fill="#999999" stroke-width="1"></path><path d="M248.104 280.366c5.36 3.386 1.766 5.296 5 10.71 3.576 6.094 9.6 2.952 7.444 10.4a0.882 0.882 0 1 0 1.66 0.6c1.038 -2.378 1.702 -4.862 0.122 -6.916a10.886 10.886 0 0 0 -3.368 -2.382c-8.586 -4.728 -0.918 -11.018 -10.146 -13.938a0.844 0.844 0 0 0 -0.712 1.526Z" fill="#999999" stroke-width="1"></path><path d="M266.738 288.032a13.48 13.48 0 0 1 3.634 1.906c1.8 1.418 1.534 2.982 1.64 5.134a7.752 7.752 0 0 0 1.942 5.382c4.564 4.648 7.936 3.2 11.432 8.926a0.878 0.878 0 0 0 1.182 0.37 0.896 0.896 0 0 0 0.37 -1.2 12.894 12.894 0 0 0 -6.262 -6.67c-6.178 -3.416 -5.83 -4.494 -5.982 -7.886a8.67 8.67 0 0 0 -1.076 -4.428 8.036 8.036 0 0 0 -6.51 -3.176 0.84 0.84 0 0 0 -0.37 1.642Z" fill="#999999" stroke-width="1"></path></svg>