<svg width="169" height="169" viewBox="0 0 169 169" fill="none" xmlns="http://www.w3.org/2000/svg">
<rect width="169" height="169" fill="#141414"/>
<path d="M84 129.167C108.393 129.167 128.167 109.393 128.167 85C128.167 60.6074 108.393 40.8333 84 40.8333C59.6074 40.8333 39.8333 60.6074 39.8333 85C39.8333 109.393 59.6074 129.167 84 129.167Z" stroke="#242A22" stroke-width="8.83333" stroke-linecap="round" stroke-linejoin="round"/>
<path d="M57.5 85C57.5 77.4917 60.5917 70.8667 65.45 66.45" stroke="#242A22" stroke-width="8.83333" stroke-linecap="round" stroke-linejoin="round"/>
<path d="M84 93.8333C88.8785 93.8333 92.8333 89.8785 92.8333 85C92.8333 80.1215 88.8785 76.1667 84 76.1667C79.1215 76.1667 75.1667 80.1215 75.1667 85C75.1667 89.8785 79.1215 93.8333 84 93.8333Z" stroke="#242A22" stroke-width="8.83333" stroke-linecap="round" stroke-linejoin="round"/>
<path d="M110.5 85C110.5 92.5083 107.408 99.1333 102.55 103.55" stroke="#242A22" stroke-width="8.83333" stroke-linecap="round" stroke-linejoin="round"/>
</svg>
