<svg width="1018" height="1018" viewBox="0 0 1018 1018" fill="none" xmlns="http://www.w3.org/2000/svg">
<rect width="1018" height="1018" rx="150" fill="url(#paint0_linear_39_66)"/>
<path fill-rule="evenodd" clip-rule="evenodd" d="M203 275C203 215.353 251.353 167 311 167H709C768.647 167 817 215.353 817 275V336V338V377.054C856.315 393.199 884 431.867 884 477V742C884 801.647 835.647 850 776 850H242C182.353 850 134 801.647 134 742V477C134 431.105 162.628 391.896 203 376.256V338V275ZM240 446H311H709H778C793.464 446 806 458.536 806 474V745C806 760.464 793.464 773 778 773H240C224.536 773 212 760.464 212 745V474C212 458.536 224.536 446 240 446ZM481 609C481 667.542 433.542 715 375 715C316.458 715 269 667.542 269 609C269 550.458 316.458 503 375 503C433.542 503 481 550.458 481 609ZM404 609C404 625.016 391.016 638 375 638C358.984 638 346 625.016 346 609C346 592.984 358.984 580 375 580C391.016 580 404 592.984 404 609ZM644 715C702.542 715 750 667.542 750 609C750 550.458 702.542 503 644 503C585.458 503 538 550.458 538 609C538 667.542 585.458 715 644 715ZM644 638C660.016 638 673 625.016 673 609C673 592.984 660.016 580 644 580C627.984 580 615 592.984 615 609C615 625.016 627.984 638 644 638ZM279 277V290V370H337.157C338.925 350.377 355.417 335 375.5 335C395.583 335 412.075 350.377 413.843 370H471.157C472.925 350.377 489.417 335 509.5 335C529.583 335 546.075 350.377 547.843 370H606.157C607.925 350.377 624.417 335 644.5 335C664.583 335 681.075 350.377 682.843 370H741V298.094C741.653 295.504 742 292.793 742 290V277C742 258.775 727.225 244 709 244H312C295.824 244 282.366 255.639 279.544 271H279V277Z" fill="#16A34A"/>
<defs>
<linearGradient id="paint0_linear_39_66" x1="991.5" y1="-15.5" x2="25.5001" y2="1018" gradientUnits="userSpaceOnUse">
<stop stop-color="#2A442A"/>
<stop offset="1" stop-color="#0F170F"/>
</linearGradient>
</defs>
</svg>
