<svg width="1672" height="673" viewBox="0 0 1672 673" fill="none" xmlns="http://www.w3.org/2000/svg">
<path fill-rule="evenodd" clip-rule="evenodd" d="M43.0365 190.362C43.0365 153.159 73.1953 123 110.398 123H358.638C395.841 123 426 153.159 426 190.362V228.409H426V254.015C450.521 264.085 467.789 288.202 467.789 316.353V481.638C467.789 518.841 437.63 549 400.428 549H67.3616C30.1588 549 0 518.841 0 481.638V316.353C0 287.727 17.8555 263.272 43.0365 253.517V229.656V190.362ZM66.1142 297.018L110.398 297.018H358.638L401.675 297.018C411.32 297.018 419.139 304.837 419.139 314.482V483.51C419.139 493.155 411.32 500.974 401.675 500.974H66.1142C56.469 500.974 48.6501 493.155 48.6501 483.51V314.482C48.6501 304.837 56.469 297.018 66.1142 297.018ZM216.431 398.684C216.431 435.198 186.83 464.798 150.316 464.798C113.802 464.798 84.2021 435.198 84.2021 398.684C84.2021 362.17 113.802 332.57 150.316 332.57C186.83 332.57 216.431 362.17 216.431 398.684ZM168.404 398.684C168.404 408.673 160.306 416.772 150.316 416.772C140.327 416.772 132.228 408.673 132.228 398.684C132.228 388.694 140.327 380.596 150.316 380.596C160.306 380.596 168.404 388.694 168.404 398.684ZM318.096 464.798C354.61 464.798 384.211 435.198 384.211 398.684C384.211 362.17 354.61 332.57 318.096 332.57C281.583 332.57 251.982 362.17 251.982 398.684C251.982 435.198 281.583 464.798 318.096 464.798ZM318.096 416.772C328.086 416.772 336.184 408.673 336.184 398.684C336.184 388.694 328.086 380.596 318.096 380.596C308.107 380.596 300.008 388.694 300.008 398.684C300.008 408.673 308.107 416.772 318.096 416.772ZM90.4391 191.609V199.717V249.615H126.713C127.816 237.376 138.102 227.785 150.628 227.785C163.154 227.785 173.44 237.376 174.543 249.615H210.291C211.394 237.376 221.68 227.785 234.206 227.785C246.733 227.785 257.019 237.376 258.122 249.615H294.493C295.596 237.376 305.882 227.785 318.409 227.785C330.935 227.785 341.221 237.376 342.324 249.615H378.597V204.766C379.005 203.151 379.221 201.459 379.221 199.717V191.609C379.221 180.242 370.006 171.026 358.638 171.026H111.022C100.932 171.026 92.5383 178.286 90.7785 187.867H90.4391V191.609Z" fill="#16A34A"/>
<path d="M681.219 332.296C665.397 332.296 650.453 329.22 636.388 323.066C622.323 316.913 610.017 308.452 599.468 297.684C588.92 286.696 580.569 274.06 574.416 259.775C568.482 245.271 565.515 229.778 565.515 213.296C565.515 196.814 568.482 181.431 574.416 167.146C580.569 152.862 588.92 140.335 599.468 129.567C610.237 118.579 622.763 110.118 637.047 104.185C651.552 98.0314 667.155 94.9548 683.856 94.9548C702.097 94.9548 719.018 98.471 734.621 105.503C750.224 112.536 763.3 122.535 773.848 135.501L748.136 161.213C741.324 151.543 732.204 144.181 720.776 139.127C709.349 133.852 697.042 131.215 683.856 131.215C668.034 131.215 654.079 134.731 641.992 141.764C630.125 148.576 620.895 158.136 614.302 170.443C607.709 182.749 604.413 197.034 604.413 213.296C604.413 229.558 607.709 243.953 614.302 256.479C621.115 268.786 630.235 278.455 641.662 285.487C653.09 292.52 666.056 296.036 680.56 296.036C695.943 296.036 709.129 293.289 720.117 287.795C731.325 282.081 739.895 273.73 745.829 262.742C751.763 251.534 754.729 237.799 754.729 221.537L778.463 238.678H679.901V204.066H793.957V209.34C793.957 236.81 789.012 259.665 779.123 277.906C769.453 296.146 756.158 309.771 739.236 318.781C722.315 327.791 702.976 332.296 681.219 332.296ZM820.15 329V170.772H856.411V329H820.15ZM856.411 240.986L843.884 234.723C843.884 214.724 848.28 198.572 857.07 186.265C866.08 173.739 879.595 167.476 897.616 167.476C905.527 167.476 912.669 168.904 919.043 171.761C925.416 174.618 931.349 179.233 936.843 185.606L913.109 210C910.252 206.923 907.066 204.725 903.549 203.407C900.033 202.088 895.968 201.429 891.353 201.429C881.244 201.429 872.893 204.615 866.3 210.988C859.707 217.362 856.411 227.361 856.411 240.986ZM1015.49 332.296C1000.11 332.296 986.15 328.67 973.624 321.418C961.098 313.946 951.098 303.947 943.627 291.421C936.374 278.895 932.748 264.94 932.748 249.556C932.748 234.173 936.374 220.328 943.627 208.022C951.098 195.715 961.098 185.936 973.624 178.684C986.15 171.212 1000.11 167.476 1015.49 167.476C1031.09 167.476 1045.16 171.102 1057.68 178.354C1070.21 185.606 1080.1 195.495 1087.35 208.022C1094.82 220.328 1098.56 234.173 1098.56 249.556C1098.56 264.94 1094.82 278.895 1087.35 291.421C1080.1 303.947 1070.21 313.946 1057.68 321.418C1045.16 328.67 1031.09 332.296 1015.49 332.296ZM1015.49 297.354C1024.5 297.354 1032.41 295.377 1039.22 291.421C1046.25 287.245 1051.64 281.532 1055.37 274.28C1059.33 267.027 1061.31 258.786 1061.31 249.556C1061.31 240.327 1059.33 232.195 1055.37 225.163C1051.42 218.131 1046.04 212.637 1039.22 208.681C1032.41 204.506 1024.5 202.418 1015.49 202.418C1006.7 202.418 998.786 204.506 991.754 208.681C984.942 212.637 979.557 218.131 975.602 225.163C971.866 232.195 969.998 240.327 969.998 249.556C969.998 258.786 971.866 267.027 975.602 274.28C979.557 281.532 984.942 287.245 991.754 291.421C998.786 295.377 1006.7 297.354 1015.49 297.354ZM1194.64 332.296C1179.26 332.296 1165.3 328.67 1152.78 321.418C1140.25 313.946 1130.25 303.947 1122.78 291.421C1115.53 278.895 1111.9 264.94 1111.9 249.556C1111.9 234.173 1115.53 220.328 1122.78 208.022C1130.25 195.715 1140.25 185.936 1152.78 178.684C1165.3 171.212 1179.26 167.476 1194.64 167.476C1210.24 167.476 1224.31 171.102 1236.83 178.354C1249.36 185.606 1259.25 195.495 1266.5 208.022C1273.97 220.328 1277.71 234.173 1277.71 249.556C1277.71 264.94 1273.97 278.895 1266.5 291.421C1259.25 303.947 1249.36 313.946 1236.83 321.418C1224.31 328.67 1210.24 332.296 1194.64 332.296ZM1194.64 297.354C1203.65 297.354 1211.56 295.377 1218.37 291.421C1225.41 287.245 1230.79 281.532 1234.53 274.28C1238.48 267.027 1240.46 258.786 1240.46 249.556C1240.46 240.327 1238.48 232.195 1234.53 225.163C1230.57 218.131 1225.19 212.637 1218.37 208.681C1211.56 204.506 1203.65 202.418 1194.64 202.418C1185.85 202.418 1177.94 204.506 1170.91 208.681C1164.09 212.637 1158.71 218.131 1154.75 225.163C1151.02 232.195 1149.15 240.327 1149.15 249.556C1149.15 258.786 1151.02 267.027 1154.75 274.28C1158.71 281.532 1164.09 287.245 1170.91 291.421C1177.94 295.377 1185.85 297.354 1194.64 297.354ZM1349.2 329L1277.01 170.772H1317.23L1372.28 299.662H1348.54L1403.92 170.772H1442.49L1370.3 329H1349.2ZM1502.55 330.648L1434.97 170.772H1474.86L1521.01 288.125H1509.47L1558.26 170.772H1598.47L1524.96 330.648H1502.55ZM1455.41 394.928L1504.52 293.728L1524.96 330.648L1495.62 394.928H1455.41Z" fill="white"/>
<path d="M753.094 587V554.036H819.352C831 554.036 840.01 550.41 846.383 543.158C852.756 535.906 855.942 527.555 855.942 518.105C855.942 511.732 854.514 505.798 851.657 500.304C848.8 494.81 844.625 490.415 839.131 487.119C833.637 483.822 827.044 482.174 819.352 482.174H753.094V449.21H813.748C823.638 449.21 831.549 446.683 837.483 441.628C843.416 436.574 846.383 429.102 846.383 419.213C846.383 409.323 843.416 401.852 837.483 396.797C831.549 391.743 823.638 389.215 813.748 389.215H753.094V356.251H814.737C830.34 356.251 843.306 359.108 853.635 364.822C863.964 370.536 871.655 377.898 876.71 386.908C881.764 395.918 884.292 405.587 884.292 415.916C884.292 428.003 880.885 438.661 874.073 447.891C867.48 457.121 857.7 464.593 844.735 470.307L847.701 458.44C862.206 464.374 873.523 472.724 881.654 483.493C889.786 494.261 893.851 506.897 893.851 521.401C893.851 533.268 890.884 544.147 884.951 554.036C879.237 563.925 870.666 571.946 859.239 578.1C848.031 584.033 834.186 587 817.704 587H753.094ZM727.053 587V356.251H764.961V587H727.053ZM920.575 587V428.772H956.836V587H920.575ZM956.836 498.986L944.309 492.723C944.309 472.724 948.705 456.572 957.495 444.265C966.505 431.739 980.021 425.476 998.041 425.476C1005.95 425.476 1013.09 426.904 1019.47 429.761C1025.84 432.618 1031.77 437.233 1037.27 443.606L1013.53 468C1010.68 464.923 1007.49 462.725 1003.97 461.407C1000.46 460.088 996.393 459.429 991.778 459.429C981.669 459.429 973.318 462.615 966.725 468.988C960.132 475.362 956.836 485.361 956.836 498.986ZM1116.9 590.296C1101.08 590.296 1086.8 586.78 1074.05 579.748C1061.52 572.496 1051.52 562.607 1044.05 550.08C1036.8 537.554 1033.17 523.489 1033.17 507.886C1033.17 492.283 1036.8 478.328 1044.05 466.022C1051.3 453.495 1061.08 443.606 1073.39 436.354C1085.92 429.102 1099.76 425.476 1114.92 425.476C1129.65 425.476 1142.61 428.882 1153.82 435.695C1165.25 442.507 1174.15 451.847 1180.52 463.714C1187.12 475.581 1190.41 489.097 1190.41 504.26C1190.41 506.897 1190.19 509.644 1189.75 512.501C1189.53 515.138 1189.09 518.105 1188.43 521.401H1058.56V491.734H1169.64L1156.13 503.601C1155.69 493.931 1153.82 485.8 1150.53 479.207C1147.23 472.615 1142.5 467.56 1136.35 464.044C1130.42 460.528 1123.06 458.77 1114.27 458.77C1105.04 458.77 1097.01 460.747 1090.2 464.703C1083.39 468.659 1078.11 474.263 1074.38 481.515C1070.64 488.547 1068.77 497.008 1068.77 506.897C1068.77 516.786 1070.75 525.467 1074.71 532.939C1078.66 540.411 1084.27 546.234 1091.52 550.41C1098.77 554.366 1107.12 556.343 1116.57 556.343C1124.7 556.343 1132.18 554.915 1138.99 552.058C1146.02 549.201 1151.95 545.026 1156.79 539.532L1179.86 562.936C1172.17 571.946 1162.83 578.759 1151.84 583.374C1140.86 587.989 1129.21 590.296 1116.9 590.296ZM1279.14 590.296C1264.86 590.296 1251.89 586.67 1240.25 579.418C1228.82 572.166 1219.7 562.387 1212.89 550.08C1206.29 537.554 1203 523.599 1203 508.216C1203 492.613 1206.29 478.658 1212.89 466.351C1219.7 453.825 1228.82 443.936 1240.25 436.684C1251.89 429.212 1264.86 425.476 1279.14 425.476C1291.23 425.476 1301.89 428.113 1311.12 433.387C1320.57 438.442 1328.04 445.474 1333.54 454.484C1339.03 463.494 1341.78 473.713 1341.78 485.141V530.631C1341.78 542.059 1339.03 552.278 1333.54 561.288C1328.26 570.298 1320.9 577.44 1311.45 582.715C1302 587.769 1291.23 590.296 1279.14 590.296ZM1285.08 556.014C1298.48 556.014 1309.25 551.509 1317.38 542.498C1325.73 533.488 1329.91 521.951 1329.91 507.886C1329.91 498.436 1328.04 490.086 1324.31 482.833C1320.57 475.581 1315.3 469.977 1308.48 466.022C1301.89 461.846 1294.09 459.759 1285.08 459.759C1276.29 459.759 1268.49 461.846 1261.67 466.022C1255.08 469.977 1249.81 475.581 1245.85 482.833C1242.12 490.086 1240.25 498.436 1240.25 507.886C1240.25 517.336 1242.12 525.687 1245.85 532.939C1249.81 540.191 1255.08 545.905 1261.67 550.08C1268.49 554.036 1276.29 556.014 1285.08 556.014ZM1327.6 587V544.476L1333.87 505.908L1327.6 467.67V428.772H1363.86V587H1327.6ZM1498.05 587L1431.14 506.238L1497.72 428.772H1540.91L1464.43 515.798L1466.08 495.03L1544.2 587H1498.05ZM1397.51 587V349.658H1433.77V587H1397.51ZM1601.7 590.296C1592.91 590.296 1584.45 589.198 1576.32 587C1568.19 584.583 1560.71 581.286 1553.9 577.111C1547.09 572.716 1541.15 567.441 1536.1 561.288L1559.18 538.213C1564.67 544.586 1570.93 549.421 1577.96 552.717C1585.22 555.794 1593.35 557.332 1602.36 557.332C1610.49 557.332 1616.64 556.124 1620.82 553.706C1624.99 551.289 1627.08 547.773 1627.08 543.158C1627.08 538.323 1625.1 534.587 1621.15 531.95C1617.19 529.313 1612.03 527.115 1605.65 525.357C1599.5 523.379 1592.91 521.401 1585.88 519.424C1579.06 517.446 1572.47 514.809 1566.1 511.512C1559.94 507.996 1554.89 503.271 1550.93 497.338C1546.98 491.404 1545 483.712 1545 474.263C1545 464.154 1547.31 455.473 1551.92 448.221C1556.76 440.969 1563.46 435.365 1572.03 431.409C1580.82 427.454 1591.26 425.476 1603.35 425.476C1616.09 425.476 1627.3 427.783 1636.97 432.398C1646.86 436.794 1655.1 443.496 1661.69 452.506L1638.62 475.581C1634 469.868 1628.73 465.582 1622.8 462.725C1616.86 459.868 1610.05 458.44 1602.36 458.44C1595.11 458.44 1589.5 459.539 1585.55 461.736C1581.59 463.934 1579.61 467.121 1579.61 471.296C1579.61 475.691 1581.59 479.097 1585.55 481.515C1589.5 483.932 1594.56 486.02 1600.71 487.778C1607.08 489.536 1613.68 491.514 1620.49 493.712C1627.52 495.689 1634.11 498.546 1640.27 502.282C1646.64 505.798 1651.8 510.633 1655.76 516.786C1659.72 522.72 1661.69 530.521 1661.69 540.191C1661.69 555.574 1656.31 567.771 1645.54 576.781C1634.77 585.791 1620.16 590.296 1601.7 590.296Z" fill="white"/>
</svg>
